<svg width="20" height="15" viewBox="0 0 20 15" fill="none" xmlns="http://www.w3.org/2000/svg">
<path d="M13.7541 13.2743C14.3499 13.0513 14.9143 12.7884 15.4509 12.4726C15.4479 12.4473 15.4277 12.4408 15.412 12.4292C15.3012 12.3437 15.189 12.259 15.0797 12.1721C15.0557 12.1526 15.037 12.1475 15.0071 12.1612C14.5393 12.3771 14.058 12.561 13.5648 12.7152C13.0625 12.8724 12.5513 12.9984 12.0311 13.0875C11.6981 13.1447 11.3643 13.1903 11.0267 13.2178C10.8807 13.2301 10.734 13.2374 10.5881 13.2475C10.2865 13.2685 9.98482 13.2627 9.68393 13.2584C9.35086 13.2533 9.01928 13.2265 8.68771 13.1889C8.34191 13.149 7.99836 13.0969 7.6578 13.0281C6.78957 12.8536 5.95128 12.5871 5.14218 12.2358C5.08529 12.2112 5.02916 12.1859 4.97227 12.1605C4.95506 12.1526 4.93859 12.141 4.91763 12.1576C4.78815 12.259 4.65866 12.3589 4.52843 12.4596C4.53816 12.4864 4.56285 12.4915 4.58082 12.5016C5.08305 12.7898 5.60548 13.0382 6.14962 13.2425C6.15861 13.2461 6.16759 13.2511 6.17732 13.2533C6.21624 13.262 6.21549 13.2816 6.19902 13.3112C6.14438 13.4112 6.09424 13.514 6.03885 13.6132C5.82778 13.9913 5.598 14.3577 5.34726 14.7125C5.28963 14.7944 5.22825 14.8733 5.17211 14.9559C5.14966 14.9892 5.13095 14.9986 5.08829 14.9856C4.7395 14.8784 4.39445 14.7611 4.05239 14.6336C3.54568 14.4439 3.05019 14.2302 2.56667 13.9913C2.0607 13.7436 1.56895 13.4684 1.09217 13.1693C0.769579 12.9673 0.455968 12.7544 0.146099 12.5356C0.0974478 12.5016 0.0764905 12.4647 0.0727481 12.4053C0.0577786 12.1728 0.0405636 11.9396 0.0248456 11.7072C-0.00808732 11.2205 -0.000602561 10.7339 0.00463677 10.2472C0.0068822 10.0242 0.0203548 9.80041 0.0398151 9.57736C0.0517908 9.43832 0.0615209 9.29927 0.074245 9.16023C0.0974478 8.8988 0.129632 8.63882 0.167805 8.37956C0.219449 8.03195 0.281573 7.68579 0.35642 7.34253C0.473183 6.81025 0.615393 6.28377 0.786046 5.76526C0.998613 5.11711 1.25235 4.48418 1.5435 3.86572C1.84065 3.23351 2.17671 2.62085 2.54571 2.02412C2.69541 1.78225 2.85034 1.54327 3.00902 1.30718C3.03447 1.26952 3.0659 1.24273 3.10857 1.2239C3.55615 1.02403 4.01123 0.842256 4.47528 0.681488C5.01194 0.495373 5.55758 0.336052 6.1122 0.207147C6.44602 0.128936 6.78134 0.059414 7.11965 0.00292771C7.16456 -0.00431412 7.18102 0.007997 7.20048 0.0420336C7.37488 0.356329 7.5388 0.675694 7.68325 1.00447C7.70571 1.05517 7.70645 1.05734 7.76633 1.04865C7.97291 1.02041 8.17949 0.991438 8.38757 0.972609C8.53876 0.95885 8.6892 0.943642 8.84039 0.932779C9.05072 0.917571 9.26179 0.90526 9.47286 0.894398C9.58214 0.888604 9.69216 0.888604 9.80219 0.888604C10.0215 0.889328 10.2415 0.884983 10.4601 0.895122C10.6712 0.904536 10.8822 0.913226 11.0926 0.929883C11.3231 0.947987 11.5529 0.96754 11.7827 0.993611C11.9159 1.00882 12.0484 1.02837 12.1816 1.04575C12.2011 1.04865 12.2213 1.0501 12.2407 1.05227C12.2699 1.05589 12.2841 1.04358 12.2954 1.01678C12.3717 0.841532 12.454 0.668452 12.5386 0.496821C12.6157 0.340397 12.6988 0.186146 12.7826 0.0333434C12.7991 0.00292772 12.8163 -0.00431412 12.853 0.00220353C13.5476 0.12097 14.2302 0.283187 14.9031 0.488131C15.5497 0.684384 16.1807 0.920468 16.7982 1.19204C16.8783 1.22752 16.9456 1.2688 16.9965 1.34556C17.248 1.72504 17.495 2.10741 17.7233 2.50064C18.1634 3.25813 18.5481 4.04025 18.8677 4.85278C19.0406 5.29236 19.1948 5.73701 19.3295 6.18818C19.4845 6.70669 19.6102 7.23173 19.7105 7.76255C19.7756 8.10799 19.8295 8.45487 19.8684 8.80393C19.8901 9.00018 19.9118 9.19571 19.9276 9.39197C19.9493 9.6534 19.9642 9.91483 19.974 10.177C19.9777 10.2878 19.9695 10.3993 19.9845 10.5087C20.0002 10.6245 20.0054 10.7404 19.9934 10.8541C19.9762 11.017 19.9919 11.1807 19.9732 11.3436C19.9657 11.4081 19.9702 11.474 19.9672 11.5384C19.9583 11.7231 19.9485 11.9085 19.9366 12.0932C19.9291 12.2105 19.9156 12.3278 19.9081 12.4451C19.9051 12.485 19.8804 12.5045 19.852 12.5248C19.7023 12.6291 19.5541 12.7355 19.4036 12.8376C18.9096 13.1729 18.3977 13.4807 17.8693 13.7624C17.3715 14.0275 16.8603 14.2657 16.3364 14.4786C15.8813 14.6633 15.4188 14.827 14.9487 14.9711C14.8177 15.0109 14.8559 15.0232 14.7773 14.9175C14.4929 14.5358 14.2369 14.1361 14.0011 13.7248C13.9151 13.5792 13.838 13.43 13.7541 13.2743ZM15.1059 8.23255C15.1104 7.87408 15.031 7.54023 14.8611 7.22666C14.6583 6.85153 14.3656 6.56548 13.963 6.3924C13.6509 6.25843 13.326 6.22656 12.9922 6.29029C12.6195 6.36198 12.3103 6.5452 12.0603 6.81677C11.6936 7.21435 11.5259 7.68941 11.5132 8.21807C11.5095 8.39187 11.5304 8.5635 11.5708 8.73296C11.6704 9.15299 11.874 9.5158 12.2093 9.80403C12.5491 10.0959 12.9428 10.2458 13.4031 10.2219C13.6209 10.2103 13.8252 10.1589 14.0198 10.0662C14.3978 9.88658 14.6718 9.60415 14.8626 9.24423C15.031 8.92632 15.1096 8.58595 15.1059 8.23255ZM6.67056 6.26639C6.61293 6.26639 6.55605 6.26422 6.49841 6.26712C6.4565 6.26929 6.41458 6.27725 6.37342 6.28522C5.90487 6.37574 5.53962 6.62196 5.27166 6.99782C4.88545 7.53951 4.7859 8.13913 4.94158 8.77569C5.05086 9.22323 5.28813 9.59908 5.66611 9.88369C6.02238 10.1516 6.42656 10.2697 6.8749 10.2132C7.3165 10.1582 7.67502 9.94959 7.96169 9.62226C8.29176 9.24496 8.44221 8.80176 8.46691 8.31438C8.47589 8.13841 8.46017 7.96315 8.42424 7.79007C8.33143 7.34398 8.11961 6.96088 7.76184 6.6618C7.45048 6.40109 7.08746 6.2606 6.67056 6.26639Z" fill="white"/>
</svg>
