<svg width="22" height="12" viewBox="0 0 22 12" fill="none" xmlns="http://www.w3.org/2000/svg">
<path d="M11.8748 6.01949C11.867 9.33332 9.20827 12.0078 5.92575 12C2.62764 11.9922 -0.0155253 9.29434 6.86455e-05 5.94152C0.0156626 2.66668 2.69002 -0.00778024 5.95694 1.70062e-05C9.23166 0.00781426 11.8748 2.69787 11.8748 6.01949Z" fill="white"/>
<path d="M18.4251 5.69222C18.3784 7.38423 18.199 8.71756 17.5441 9.93393C17.3102 10.3628 17.0139 10.776 16.6708 11.1113C15.9301 11.8209 14.9945 11.8131 14.2148 11.1425C13.4195 10.4485 13.0296 9.52067 12.7801 8.52263C12.2733 6.47974 12.3123 4.45246 13.1232 2.48755C13.3649 1.91835 13.7392 1.36474 14.168 0.9203C14.9321 0.132777 15.9379 0.179561 16.7332 0.935895C17.5363 1.70003 17.9183 2.69807 18.1444 3.74291C18.3082 4.49144 18.3628 5.25557 18.4251 5.69222Z" fill="white"/>
<path d="M22 5.99628C22 8.83475 21.4318 11.1358 20.7308 11.1358C20.0299 11.1358 19.4616 8.83475 19.4616 5.99628C19.4616 3.15781 20.0299 0.856771 20.7308 0.856771C21.4318 0.856771 22 3.15781 22 5.99628Z" fill="white"/>
</svg>
