<svg width="20" height="17" viewBox="0 0 20 17" fill="none" xmlns="http://www.w3.org/2000/svg">
<path d="M0 7.42533C0 7.35762 0 7.28991 0 7.2222C0.00486618 7.2152 0.00973236 7.21053 0.0121655 7.20352C0.0608273 6.97005 0.216545 6.8253 0.437956 6.73891C0.688564 6.64319 0.944039 6.5568 1.19708 6.46575C1.81752 6.24394 2.43796 6.01981 3.05839 5.79801C3.62774 5.59255 4.19708 5.38943 4.76886 5.18397C5.25547 5.00886 5.74209 4.83609 6.22871 4.66332C6.74696 4.47888 7.26277 4.2921 7.78102 4.10765C8.43552 3.87418 9.09002 3.63837 9.74209 3.4049C10.2822 3.21111 10.8224 3.01733 11.365 2.82354C11.9635 2.60875 12.5645 2.39629 13.163 2.18149C13.7908 1.95735 14.4209 1.73088 15.0487 1.50675C15.7324 1.26394 16.4161 1.02112 17.0998 0.778309C17.6934 0.568182 18.2895 0.358055 18.8832 0.147928C19.0219 0.0988983 19.163 0.0592077 19.2968 0.00317383C19.3382 0.00317383 19.3796 0.00317383 19.4209 0.00317383C19.4355 0.00784332 19.4526 0.0125128 19.4672 0.0171823C19.7421 0.112907 19.9416 0.276339 19.9951 0.565847C19.9951 0.617212 19.9951 0.670911 19.9951 0.722275C19.9903 0.733949 19.983 0.743288 19.9805 0.754961C19.9197 1.03513 19.8564 1.3153 19.7956 1.5978C19.7153 1.95735 19.635 2.31924 19.5572 2.67879C19.4696 3.08504 19.382 3.49128 19.2944 3.89519C19.2287 4.19871 19.1606 4.50223 19.0949 4.80808C18.9951 5.26569 18.8954 5.72563 18.7956 6.18324C18.708 6.58015 18.6204 6.97472 18.5353 7.36929C18.4258 7.8736 18.3163 8.38024 18.2068 8.88454C18.1314 9.23475 18.0511 9.58496 17.9732 9.93751C17.8637 10.4395 17.7543 10.9438 17.6448 11.4458C17.5766 11.7539 17.511 12.0621 17.4428 12.3703C17.3625 12.7392 17.2798 13.1058 17.1995 13.4746C17.1338 13.7758 17.0706 14.0747 17.0024 14.3759C16.9294 14.7074 16.8637 15.0389 16.7786 15.3681C16.7056 15.653 16.528 15.8654 16.2238 15.9588C16.1655 15.9775 16.1046 15.9892 16.0438 16.0055C15.9343 16.0055 15.8273 16.0055 15.7178 16.0055C15.708 16.0008 15.7007 15.9962 15.691 15.9938C15.5304 15.9635 15.3893 15.8958 15.2579 15.8047C14.3942 15.1977 13.5304 14.5883 12.6667 13.9813C12.0146 13.5237 11.365 13.0661 10.7153 12.6061C10.6715 12.5758 10.6496 12.5804 10.6131 12.6131C10.2603 12.933 9.90511 13.2528 9.54988 13.5727C9.06813 14.007 8.58394 14.4389 8.10219 14.8755C7.92457 15.0366 7.71776 15.1066 7.47445 15.0786C7.18248 15.0459 6.9781 14.9058 6.87835 14.6374C6.81022 14.4576 6.75182 14.2755 6.68856 14.0934C6.53771 13.6544 6.38443 13.2155 6.23358 12.7766C6.05353 12.2512 5.87348 11.7236 5.691 11.1983C5.47932 10.5819 5.26277 9.96553 5.0511 9.34682C5.03893 9.31413 5.02433 9.29779 4.99027 9.28845C4.6837 9.1974 4.37956 9.10634 4.07299 9.01529C3.69343 8.90088 3.3163 8.78882 2.93674 8.67441C2.51825 8.54834 2.09976 8.4246 1.68127 8.30085C1.29197 8.18412 0.90511 8.06738 0.515815 7.95298C0.326034 7.89928 0.167883 7.81289 0.0729927 7.63779C0.0437956 7.57008 0.0316302 7.49303 0 7.42533ZM7.53528 13.2482C7.54015 13.2482 7.54501 13.2458 7.54988 13.2458C7.57178 13.0124 7.59367 12.7766 7.61801 12.5431C7.6545 12.1952 7.691 11.8473 7.72749 11.5018C7.75912 11.1866 7.79075 10.8714 7.81752 10.5539C7.82238 10.5025 7.84428 10.4698 7.88078 10.4395C8.49148 9.91183 9.10219 9.38418 9.71046 8.85419C10.5547 8.12341 11.4015 7.3903 12.2457 6.65953C13.0122 5.99413 13.7786 5.32639 14.545 4.66099C15.1533 4.131 15.764 3.60335 16.365 3.06402C16.4088 3.02433 16.4234 2.97764 16.4088 2.92394C16.3771 2.80487 16.2117 2.75117 16.0949 2.82354C15.4258 3.21812 14.764 3.62436 14.0998 4.02827C13.455 4.42051 12.8078 4.81508 12.163 5.20965C11.5255 5.59956 10.8905 5.98946 10.2555 6.37936C9.54988 6.81129 8.84428 7.24555 8.13869 7.67981C7.48905 8.07905 6.83942 8.4783 6.18978 8.8752C6.16302 8.89154 6.15572 8.90555 6.16545 8.9359C6.20925 9.06432 6.24818 9.19506 6.28954 9.32347C6.48175 9.92584 6.67153 10.5282 6.86375 11.1306C7.03893 11.6792 7.21411 12.2279 7.3893 12.7766C7.43309 12.933 7.48419 13.0894 7.53528 13.2482Z" fill="white"/>
</svg>
