<svg width="18" height="14" viewBox="0 0 18 14" fill="none" xmlns="http://www.w3.org/2000/svg">
<path d="M17.997 4.54228V4.54107L17.9565 4.53806C17.9565 4.53806 17.9712 4.52539 17.9946 4.51032C17.9454 3.90492 17.8903 3.30073 17.7608 2.70679C17.5088 1.55449 16.809 0.898437 15.6703 0.728395C14.7402 0.589709 13.803 0.555941 12.8676 0.499261C12.8184 0.496246 12.7504 0.52338 12.7006 0.500467H5.3061C5.26918 0.516747 5.22288 0.505894 5.18126 0.500467H5.0957C4.18259 0.557147 3.26773 0.590915 2.35931 0.722365C1.14789 0.899643 0.439325 1.58886 0.206067 2.82618C0.103504 3.36766 0.0478264 3.91457 0.000354262 4.46329C-0.00140397 4.4856 0.00152641 4.51092 0.00445679 4.53685C0.00855932 4.57243 0.0120758 4.60981 0.00269857 4.64237C-0.00257612 5.19049 -0.000231814 7.72122 0.00211249 9.38666C0.0103175 9.42827 0.00445679 9.4741 0.00211249 9.51691C0.00211249 9.53379 0.00211249 9.55068 0.00211249 9.56696C0.0560315 10.176 0.110536 10.785 0.250023 11.3813C0.499105 12.4474 1.19185 13.0992 2.24854 13.2693C3.09659 13.405 3.95226 13.4411 4.80676 13.4966C4.86654 13.5002 4.95387 13.458 5.0113 13.499H12.9942C13.0517 13.458 13.1378 13.499 13.1982 13.4948C14.0351 13.4405 14.8732 13.405 15.7037 13.2741C16.8155 13.0998 17.5053 12.4492 17.7549 11.3222C17.8909 10.7072 17.9472 10.0801 17.997 9.45239C17.9987 8.26029 18.0017 4.62489 17.997 4.54228ZM7.17509 9.76112C7.10242 9.67248 7.13172 9.58685 7.13172 9.51088C7.12938 7.86051 7.13348 6.20953 7.12645 4.55916C7.12528 4.31254 7.13465 4.21606 7.40366 4.37585C8.87881 5.25199 10.3633 6.11125 11.8936 7.00547C10.2959 7.93829 8.73816 8.8482 7.17509 9.76112Z" fill="white"/>
</svg>
