<svg width="178" height="124" viewBox="0 0 178 124" fill="none" xmlns="http://www.w3.org/2000/svg">
<circle r="62" transform="matrix(-1 0 0 1 92.021 62)" fill="url(#paint0_linear)"/>
<path d="M4.8434 59.4401C4.64727 60.4323 4.94649 61.5562 5.81618 62.8197C6.68648 64.084 8.09778 65.441 10.0255 66.8642C13.8786 69.7087 19.6994 72.7485 27.0728 75.7974C41.8117 81.8921 62.6563 87.9835 86.1098 92.6194L85.9159 93.6004C62.418 88.9558 41.5067 82.8481 26.6906 76.7216C19.2865 73.6599 13.3799 70.5836 9.43155 67.6687C7.45849 66.2121 5.95052 64.7785 4.99246 63.3867C4.03378 61.9939 3.59556 60.596 3.86238 59.2462L4.8434 59.4401ZM86.1098 92.6194C109.563 97.2552 131.158 99.5523 147.107 99.5235C155.086 99.5091 161.626 98.9125 166.271 97.7478C168.595 97.1651 170.417 96.4471 171.703 95.6089C172.988 94.7714 173.692 93.8458 173.888 92.8536L174.869 93.0475C174.602 94.3974 173.665 95.5234 172.249 96.4467C170.833 97.3693 168.893 98.1214 166.514 98.7178C161.754 99.9113 155.121 100.509 147.109 100.524C131.076 100.552 109.414 98.245 85.9159 93.6004L86.1098 92.6194ZM30.9026 52.7731C23.1298 52.822 16.7681 53.4354 12.2507 54.5991C9.99069 55.1813 8.22068 55.8942 6.97094 56.7228C5.7225 57.5505 5.03656 58.4628 4.8434 59.4401L3.86238 59.2462C4.12513 57.9169 5.03809 56.8044 6.41837 55.8893C7.79736 54.9751 9.68592 54.2272 12.0012 53.6308C16.6343 52.4373 23.09 51.8222 30.8963 51.7731L30.9026 52.7731ZM173.888 92.8536C174.078 91.8927 173.804 90.8089 172.996 89.5936C172.188 88.3766 170.871 87.0704 169.066 85.6994C165.459 82.9588 159.994 80.0282 153.045 77.0769L153.435 76.1565C160.416 79.1209 165.968 82.0896 169.671 84.9031C171.522 86.3092 172.935 87.6938 173.829 89.0403C174.725 90.3884 175.127 91.7407 174.869 93.0475L173.888 92.8536Z" fill="url(#paint1_linear)"/>
<defs>
<linearGradient id="paint0_linear" x1="18.6781" y1="3.75302" x2="102.439" y2="104.146" gradientUnits="userSpaceOnUse">
<stop stop-opacity="0"/>
<stop offset="1" stop-color="#393939"/>
</linearGradient>
<linearGradient id="paint1_linear" x1="147.633" y1="71.7606" x2="131.116" y2="115.172" gradientUnits="userSpaceOnUse">
<stop stop-color="#F1F6F9" stop-opacity="0"/>
<stop offset="1" stop-color="#CDD1DA"/>
</linearGradient>
</defs>
</svg>
