<svg width="151" height="107" viewBox="0 0 151 107" fill="none" xmlns="http://www.w3.org/2000/svg">
<circle cx="72.7843" cy="53.2774" r="53.2774" fill="url(#paint0_linear)"/>
<path d="M147.628 51.0913C147.792 51.9188 147.544 52.8653 146.803 53.9419C146.062 55.0194 144.856 56.1801 143.202 57.4007C139.898 59.8401 134.902 62.4497 128.568 65.0688C115.908 70.3037 98.0012 75.537 77.8504 79.52L78.0443 80.5011C98.2394 76.5093 116.213 71.2597 128.951 65.9929C135.315 63.361 140.397 60.715 143.796 58.2052C145.495 56.9512 146.798 55.7139 147.627 54.5089C148.457 53.303 148.844 52.0825 148.609 50.8974L147.628 51.0913ZM77.8504 79.52C57.6996 83.5031 39.1479 85.4763 25.4483 85.4516C18.5943 85.4392 12.9813 84.9266 8.99739 83.9278C7.00404 83.428 5.44717 82.8134 4.35132 82.0991C3.25637 81.3854 2.66753 80.6042 2.50396 79.7767L1.52294 79.9706C1.75719 81.1557 2.57883 82.1375 3.80526 82.9369C5.03078 83.7357 6.70617 84.3843 8.7542 84.8978C12.853 85.9254 18.5592 86.4391 25.4465 86.4516C39.2296 86.4764 57.8492 84.4928 78.0443 80.5011L77.8504 79.52ZM125.304 45.419C131.981 45.461 137.441 45.988 141.315 46.9859C143.253 47.4852 144.765 48.0953 145.83 48.8013C146.894 49.5064 147.467 50.2763 147.628 51.0913L148.609 50.8974C148.379 49.7303 147.578 48.7603 146.383 47.9678C145.189 47.1762 143.557 46.531 141.564 46.0175C137.575 44.9898 132.021 44.4612 125.31 44.419L125.304 45.419ZM2.50396 79.7767C2.34556 78.9753 2.57236 78.0629 3.25996 77.0279C3.94869 75.9912 5.07326 74.8743 6.62083 73.6987C9.7141 71.3487 14.4044 68.8331 20.3736 66.298L19.9827 65.3776C13.9824 67.9259 9.20519 70.4795 6.0159 72.9024C4.42219 74.1131 3.20171 75.3085 2.42702 76.4746C1.65119 77.6424 1.29617 78.8233 1.52294 79.9706L2.50396 79.7767Z" fill="url(#paint1_linear)"/>
<defs>
<linearGradient id="paint0_linear" x1="35.5572" y1="3.22502" x2="107.534" y2="89.4942" gradientUnits="userSpaceOnUse">
<stop stop-opacity="0"/>
<stop offset="1" stop-color="#393939"/>
</linearGradient>
<linearGradient id="paint1_linear" x1="24.9964" y1="61.6649" x2="39.1894" y2="98.9691" gradientUnits="userSpaceOnUse">
<stop stop-color="#F1F6F9" stop-opacity="0"/>
<stop offset="1" stop-color="#CDD1DA"/>
</linearGradient>
</defs>
</svg>
