<svg width="685" height="554" viewBox="0 0 685 554" fill="none" xmlns="http://www.w3.org/2000/svg">
<g filter="url(#filter0_d)">
<circle cx="329" cy="267" r="257" fill="url(#paint0_linear)" shape-rendering="crispEdges"/>
<circle cx="329" cy="267" r="256.5" stroke="url(#paint1_linear)" stroke-opacity="0.2" shape-rendering="crispEdges"/>
</g>
<path d="M636.422 103.296C642.627 114.043 640.547 129.185 630.906 147.652C621.293 166.067 604.298 187.507 581.235 210.606C535.119 256.792 464.905 309.443 381.522 357.584L382.522 359.316C466.012 311.113 536.378 258.362 582.65 212.019C605.781 188.853 622.932 167.248 632.679 148.577C642.4 129.957 644.895 113.973 638.154 102.296L636.422 103.296ZM381.522 357.584C298.138 405.726 217.434 440.207 154.378 457.052C122.842 465.476 95.7771 469.474 75.0219 468.592C54.2097 467.707 40.0563 461.938 33.8511 451.19L32.1191 452.19C38.8608 463.867 53.9513 469.698 74.937 470.59C95.9797 471.484 123.266 467.433 154.894 458.984C218.164 442.083 299.031 407.519 382.522 359.316L381.522 357.584ZM518.752 96.6795C549.543 88.6473 575.941 84.9234 596.19 85.9376C616.493 86.9545 630.311 92.7118 636.422 103.296L638.154 102.296C631.514 90.7952 616.775 84.9662 596.29 83.9401C575.752 82.9114 549.131 86.6878 518.247 94.7442L518.752 96.6795ZM33.8511 451.19C27.8438 440.785 29.5999 426.261 38.4731 408.579C47.3244 390.94 63.1335 370.421 84.7162 348.262L83.2834 346.866C61.6334 369.094 45.6674 389.782 36.6856 407.682C27.7258 425.537 25.5908 440.883 32.1191 452.19L33.8511 451.19Z" fill="url(#paint2_linear)"/>
<g opacity="0.2" filter="url(#filter1_i)">
<circle cx="180" cy="158" r="11" fill="url(#paint3_linear)"/>
</g>
<g opacity="0.2" filter="url(#filter2_i)">
<circle cx="390" cy="97" r="26" fill="url(#paint4_linear)"/>
</g>
<g opacity="0.2" filter="url(#filter3_i)">
<circle cx="497" cy="334" r="31" fill="url(#paint5_linear)"/>
</g>
<g opacity="0.2" filter="url(#filter4_i)">
<circle cx="205" cy="430" r="22" fill="url(#paint6_linear)"/>
</g>
<g opacity="0.2" filter="url(#filter5_i)">
<circle cx="512" cy="202" r="11" fill="url(#paint7_linear)"/>
</g>
<defs>
<filter id="filter0_d" x="52" y="0" width="554" height="554" filterUnits="userSpaceOnUse" color-interpolation-filters="sRGB">
<feFlood flood-opacity="0" result="BackgroundImageFix"/>
<feColorMatrix in="SourceAlpha" type="matrix" values="0 0 0 0 0 0 0 0 0 0 0 0 0 0 0 0 0 0 127 0" result="hardAlpha"/>
<feOffset dy="10"/>
<feGaussianBlur stdDeviation="10"/>
<feComposite in2="hardAlpha" operator="out"/>
<feColorMatrix type="matrix" values="0 0 0 0 0 0 0 0 0 0 0 0 0 0 0 0 0 0 0.05 0"/>
<feBlend mode="normal" in2="BackgroundImageFix" result="effect1_dropShadow"/>
<feBlend mode="normal" in="SourceGraphic" in2="effect1_dropShadow" result="shape"/>
</filter>
<filter id="filter1_i" x="169" y="147" width="22" height="29" filterUnits="userSpaceOnUse" color-interpolation-filters="sRGB">
<feFlood flood-opacity="0" result="BackgroundImageFix"/>
<feBlend mode="normal" in="SourceGraphic" in2="BackgroundImageFix" result="shape"/>
<feColorMatrix in="SourceAlpha" type="matrix" values="0 0 0 0 0 0 0 0 0 0 0 0 0 0 0 0 0 0 127 0" result="hardAlpha"/>
<feOffset dy="7"/>
<feGaussianBlur stdDeviation="8"/>
<feComposite in2="hardAlpha" operator="arithmetic" k2="-1" k3="1"/>
<feColorMatrix type="matrix" values="0 0 0 0 0 0 0 0 0 0 0 0 0 0 0 0 0 0 0.1 0"/>
<feBlend mode="normal" in2="shape" result="effect1_innerShadow"/>
</filter>
<filter id="filter2_i" x="364" y="71" width="52" height="59" filterUnits="userSpaceOnUse" color-interpolation-filters="sRGB">
<feFlood flood-opacity="0" result="BackgroundImageFix"/>
<feBlend mode="normal" in="SourceGraphic" in2="BackgroundImageFix" result="shape"/>
<feColorMatrix in="SourceAlpha" type="matrix" values="0 0 0 0 0 0 0 0 0 0 0 0 0 0 0 0 0 0 127 0" result="hardAlpha"/>
<feOffset dy="7"/>
<feGaussianBlur stdDeviation="8"/>
<feComposite in2="hardAlpha" operator="arithmetic" k2="-1" k3="1"/>
<feColorMatrix type="matrix" values="0 0 0 0 0 0 0 0 0 0 0 0 0 0 0 0 0 0 0.1 0"/>
<feBlend mode="normal" in2="shape" result="effect1_innerShadow"/>
</filter>
<filter id="filter3_i" x="466" y="303" width="62" height="69" filterUnits="userSpaceOnUse" color-interpolation-filters="sRGB">
<feFlood flood-opacity="0" result="BackgroundImageFix"/>
<feBlend mode="normal" in="SourceGraphic" in2="BackgroundImageFix" result="shape"/>
<feColorMatrix in="SourceAlpha" type="matrix" values="0 0 0 0 0 0 0 0 0 0 0 0 0 0 0 0 0 0 127 0" result="hardAlpha"/>
<feOffset dy="7"/>
<feGaussianBlur stdDeviation="8"/>
<feComposite in2="hardAlpha" operator="arithmetic" k2="-1" k3="1"/>
<feColorMatrix type="matrix" values="0 0 0 0 0 0 0 0 0 0 0 0 0 0 0 0 0 0 0.1 0"/>
<feBlend mode="normal" in2="shape" result="effect1_innerShadow"/>
</filter>
<filter id="filter4_i" x="183" y="408" width="44" height="51" filterUnits="userSpaceOnUse" color-interpolation-filters="sRGB">
<feFlood flood-opacity="0" result="BackgroundImageFix"/>
<feBlend mode="normal" in="SourceGraphic" in2="BackgroundImageFix" result="shape"/>
<feColorMatrix in="SourceAlpha" type="matrix" values="0 0 0 0 0 0 0 0 0 0 0 0 0 0 0 0 0 0 127 0" result="hardAlpha"/>
<feOffset dy="7"/>
<feGaussianBlur stdDeviation="8"/>
<feComposite in2="hardAlpha" operator="arithmetic" k2="-1" k3="1"/>
<feColorMatrix type="matrix" values="0 0 0 0 0 0 0 0 0 0 0 0 0 0 0 0 0 0 0.1 0"/>
<feBlend mode="normal" in2="shape" result="effect1_innerShadow"/>
</filter>
<filter id="filter5_i" x="501" y="191" width="22" height="29" filterUnits="userSpaceOnUse" color-interpolation-filters="sRGB">
<feFlood flood-opacity="0" result="BackgroundImageFix"/>
<feBlend mode="normal" in="SourceGraphic" in2="BackgroundImageFix" result="shape"/>
<feColorMatrix in="SourceAlpha" type="matrix" values="0 0 0 0 0 0 0 0 0 0 0 0 0 0 0 0 0 0 127 0" result="hardAlpha"/>
<feOffset dy="7"/>
<feGaussianBlur stdDeviation="8"/>
<feComposite in2="hardAlpha" operator="arithmetic" k2="-1" k3="1"/>
<feColorMatrix type="matrix" values="0 0 0 0 0 0 0 0 0 0 0 0 0 0 0 0 0 0 0.1 0"/>
<feBlend mode="normal" in2="shape" result="effect1_innerShadow"/>
</filter>
<linearGradient id="paint0_linear" x1="149.424" y1="25.5569" x2="496.627" y2="441.703" gradientUnits="userSpaceOnUse">
<stop stop-opacity="0"/>
<stop offset="1" stop-color="#393939"/>
</linearGradient>
<linearGradient id="paint1_linear" x1="329" y1="10" x2="329" y2="524" gradientUnits="userSpaceOnUse">
<stop stop-color="white"/>
<stop offset="1" stop-color="white" stop-opacity="0"/>
</linearGradient>
<linearGradient id="paint2_linear" x1="96.4929" y1="317.328" x2="266.025" y2="499.773" gradientUnits="userSpaceOnUse">
<stop stop-color="#F1F6F9" stop-opacity="0"/>
<stop offset="1" stop-color="#CDD1DA"/>
</linearGradient>
<linearGradient id="paint3_linear" x1="172.314" y1="147.666" x2="187.175" y2="165.478" gradientUnits="userSpaceOnUse">
<stop stop-opacity="0"/>
<stop offset="1" stop-color="#393939"/>
</linearGradient>
<linearGradient id="paint4_linear" x1="371.833" y1="72.5738" x2="406.958" y2="114.674" gradientUnits="userSpaceOnUse">
<stop stop-opacity="0"/>
<stop offset="1" stop-color="#393939"/>
</linearGradient>
<linearGradient id="paint5_linear" x1="475.339" y1="304.877" x2="517.22" y2="355.073" gradientUnits="userSpaceOnUse">
<stop stop-opacity="0"/>
<stop offset="1" stop-color="#393939"/>
</linearGradient>
<linearGradient id="paint6_linear" x1="189.628" y1="409.332" x2="219.349" y2="444.955" gradientUnits="userSpaceOnUse">
<stop stop-opacity="0"/>
<stop offset="1" stop-color="#393939"/>
</linearGradient>
<linearGradient id="paint7_linear" x1="504.314" y1="191.666" x2="519.175" y2="209.478" gradientUnits="userSpaceOnUse">
<stop stop-opacity="0"/>
<stop offset="1" stop-color="#393939"/>
</linearGradient>
</defs>
</svg>
