<svg width="549" height="522" viewBox="0 0 549 522" fill="none" xmlns="http://www.w3.org/2000/svg">
<path d="M374 366.096C459.284 375.859 518 396.329 518 420C518 453.137 402.937 480 261 480C119.063 480 4 453.137 4 420C4 393.298 78.7148 370.669 182 362.888" stroke="url(#paint0_linear)" stroke-width="2"/>
<g filter="url(#filter0_d)">
<circle cx="267" cy="246" r="164" fill="url(#paint1_linear)" shape-rendering="crispEdges"/>
</g>
<g opacity="0.4" filter="url(#filter1_i)">
<circle cx="171.918" cy="176.444" r="7.01946" fill="url(#paint2_linear)"/>
</g>
<g opacity="0.4" filter="url(#filter2_i)">
<circle cx="305.926" cy="137.518" r="16.5914" fill="url(#paint3_linear)"/>
</g>
<g opacity="0.4" filter="url(#filter3_i)">
<circle cx="374.206" cy="288.755" r="19.7821" fill="url(#paint4_linear)"/>
</g>
<g opacity="0.4" filter="url(#filter4_i)">
<circle cx="187.871" cy="350.016" r="14.0389" fill="url(#paint5_linear)"/>
</g>
<g opacity="0.1" filter="url(#filter5_f)">
<ellipse cx="279" cy="432.5" rx="100" ry="5.5" fill="black"/>
</g>
<path d="M135.5 187.628C57.0312 197.899 4 217.504 4 240C4 273.137 119.063 300 261 300C402.937 300 518 273.137 518 240C518 221.417 481.816 204.808 425 193.802" stroke="url(#paint6_linear)" stroke-width="2"/>
<path d="M427.5 284.293C482.875 295.298 518 311.691 518 330C518 363.137 402.937 390 261 390C119.063 390 4 363.137 4 330C4 310.402 44.2481 292.998 106.5 282.048" stroke="url(#paint7_linear)" stroke-dasharray="10 10"/>
<path d="M209.048 92.2277C209.6 92.2012 210.025 91.7326 209.999 91.1809C209.972 90.6293 209.504 90.2035 208.952 90.23L209.048 92.2277ZM324.559 90.8472C324.008 90.8145 323.534 91.2349 323.502 91.7862C323.469 92.3376 323.889 92.811 324.441 92.8437L324.559 90.8472ZM517 150C517 153.833 515.341 157.652 512.027 161.433C508.707 165.221 503.765 168.922 497.32 172.479C484.431 179.594 465.714 186.033 442.499 191.453C396.086 202.288 331.915 209 261 209V211C332.022 211 396.352 204.28 442.954 193.4C466.247 187.962 485.166 181.472 498.287 174.23C504.847 170.609 510.004 166.775 513.531 162.751C517.063 158.721 519 154.452 519 150H517ZM261 209C190.085 209 125.914 202.288 79.5009 191.453C56.2861 186.033 37.5689 179.594 24.6796 172.479C18.2346 168.922 13.2932 165.221 9.97335 161.433C6.65918 157.652 5 153.833 5 150H3C3 154.452 4.93653 158.721 8.46931 162.751C11.9964 166.775 17.1532 170.609 23.7131 174.23C36.8336 181.472 55.7531 187.962 79.0462 193.4C125.648 204.28 189.978 211 261 211V209ZM5 150C5 143.295 10.1052 136.611 20.1149 130.224C30.0743 123.87 44.6239 117.988 62.8944 112.815C99.4208 102.474 150.589 95.0321 209.048 92.2277L208.952 90.23C150.403 93.0388 99.0712 100.494 62.3496 110.89C43.9961 116.087 29.2347 122.033 19.0391 128.538C8.89378 135.011 3 142.216 3 150H5ZM324.441 92.8437C380.01 96.1409 428.303 103.667 462.676 113.849C479.869 118.942 493.523 124.683 502.855 130.854C512.23 137.054 517 143.518 517 150H519C519 142.472 513.485 135.486 503.958 129.186C494.389 122.858 480.522 117.049 463.244 111.931C428.673 101.691 380.216 94.1496 324.559 90.8472L324.441 92.8437Z" fill="url(#paint8_linear)"/>
<g filter="url(#filter6_d)">
<circle cx="29" cy="123" r="9" fill="url(#paint9_linear)"/>
</g>
<g filter="url(#filter7_d)">
<circle cx="97" cy="284" r="12" fill="url(#paint10_linear)"/>
</g>
<g filter="url(#filter8_d)">
<circle cx="335" cy="386" r="12" fill="url(#paint11_linear)"/>
</g>
<g filter="url(#filter9_d)">
<circle cx="245" cy="480" r="12" fill="url(#paint12_linear)"/>
</g>
<path d="M512.665 47.7787C514.55 49.9056 515.953 52.0735 516.846 54.2762C516.341 54.4636 516.073 55.0201 516.247 55.5339C516.748 57.0153 517 58.5035 517 60C517 61.4965 516.748 62.9847 516.247 64.4661C516.073 64.9799 516.341 65.5364 516.846 65.7238C515.953 67.9264 514.55 70.0944 512.665 72.2212C512.263 71.8531 511.638 71.875 511.262 72.2731C509.309 74.3443 506.868 76.3904 503.957 78.4012C503.505 78.7136 503.39 79.3322 503.698 79.7861C501.673 81.1401 499.446 82.4721 497.025 83.7799C496.766 83.2947 496.163 83.1095 495.676 83.3665C492.98 84.7894 490.047 86.1852 486.888 87.5509C486.382 87.7696 486.149 88.3564 486.366 88.8626C484.081 89.8328 481.685 90.7867 479.181 91.7233C478.99 91.2066 478.416 90.9423 477.898 91.1329C474.971 92.2113 471.899 93.2669 468.687 94.298C468.162 94.4667 467.872 95.0287 468.04 95.554C465.623 96.3198 463.13 97.0718 460.564 97.8092C460.412 97.2788 459.86 96.9711 459.329 97.1218C456.297 97.9827 453.163 98.8238 449.931 99.6438C449.396 99.7796 449.072 100.323 449.207 100.858C446.746 101.475 444.23 102.081 441.661 102.674C441.537 102.136 441.002 101.8 440.464 101.923C437.364 102.63 434.187 103.32 430.937 103.991C430.396 104.102 430.048 104.631 430.159 105.171C427.659 105.682 425.116 106.182 422.531 106.67C422.429 106.128 421.907 105.77 421.365 105.872C418.222 106.459 415.018 107.03 411.756 107.584C411.212 107.676 410.846 108.192 410.938 108.736C408.412 109.16 405.852 109.574 403.258 109.977C403.174 109.432 402.663 109.058 402.118 109.142C398.945 109.63 395.723 110.103 392.453 110.558C391.906 110.635 391.525 111.14 391.601 111.686C389.056 112.038 386.482 112.379 383.882 112.71C383.813 112.162 383.313 111.774 382.765 111.843C379.575 112.245 376.344 112.632 373.074 113.003C372.526 113.065 372.131 113.56 372.193 114.109C369.645 114.395 367.073 114.671 364.478 114.938C364.422 114.389 363.931 113.989 363.382 114.045C360.179 114.37 356.942 114.681 353.672 114.977C353.122 115.026 352.717 115.512 352.766 116.062C350.204 116.291 347.622 116.51 345.021 116.72C344.976 116.17 344.495 115.759 343.944 115.803C340.724 116.06 337.476 116.302 334.2 116.529C333.649 116.567 333.233 117.044 333.271 117.595C330.696 117.771 328.105 117.938 325.497 118.095C325.464 117.544 324.991 117.124 324.44 117.156C321.216 117.348 317.969 117.525 314.698 117.687C314.147 117.714 313.722 118.184 313.749 118.735C311.178 118.86 308.592 118.976 305.993 119.084C305.971 118.532 305.506 118.103 304.954 118.125C301.721 118.255 298.467 118.371 295.194 118.473C294.642 118.49 294.209 118.951 294.226 119.503C291.643 119.581 289.049 119.65 286.443 119.71C286.43 119.158 285.973 118.72 285.421 118.732C282.183 118.804 278.927 118.861 275.656 118.904C275.103 118.911 274.662 119.365 274.669 119.917C272.091 119.948 269.503 119.971 266.906 119.984C266.903 119.432 266.454 118.987 265.902 118.989C264.271 118.996 262.637 119 261 119C259.363 119 257.729 118.996 256.098 118.989C255.546 118.987 255.097 119.432 255.094 119.984C252.497 119.971 249.909 119.948 247.331 119.917C247.338 119.365 246.897 118.911 246.344 118.904C243.073 118.861 239.817 118.804 236.579 118.732C236.027 118.72 235.57 119.158 235.557 119.71C232.951 119.65 230.357 119.581 227.774 119.503C227.791 118.951 227.358 118.49 226.806 118.473C223.533 118.371 220.279 118.255 217.046 118.125C216.494 118.103 216.029 118.532 216.007 119.084C213.408 118.976 210.822 118.86 208.251 118.735C208.278 118.184 207.853 117.714 207.302 117.687C204.031 117.525 200.784 117.348 197.56 117.156C197.009 117.124 196.536 117.544 196.503 118.095C193.895 117.938 191.304 117.771 188.729 117.595C188.767 117.044 188.351 116.567 187.8 116.529C184.524 116.302 181.276 116.06 178.056 115.803C177.505 115.76 177.024 116.17 176.98 116.72C174.378 116.51 171.796 116.291 169.234 116.062C169.283 115.512 168.878 115.026 168.328 114.977C165.058 114.681 161.821 114.37 158.618 114.045C158.069 113.989 157.578 114.389 157.522 114.938C154.927 114.671 152.355 114.395 149.807 114.109C149.869 113.56 149.474 113.065 148.926 113.003C145.656 112.632 142.425 112.245 139.235 111.843C138.687 111.774 138.187 112.162 138.118 112.71C135.518 112.379 132.944 112.038 130.399 111.686C130.475 111.14 130.094 110.635 129.547 110.558C126.277 110.103 123.055 109.63 119.882 109.142C119.337 109.058 118.826 109.432 118.742 109.977C116.148 109.574 113.588 109.16 111.063 108.736C111.154 108.192 110.788 107.676 110.244 107.584C106.982 107.03 103.778 106.459 100.635 105.872C100.093 105.77 99.5708 106.128 99.4689 106.67C96.8843 106.182 94.3412 105.682 91.8408 105.171C91.9518 104.631 91.6039 104.102 91.0633 103.991C87.8128 103.32 84.6361 102.63 81.5365 101.923C80.9984 101.8 80.4626 102.136 80.3392 102.674C77.7699 102.081 75.2539 101.475 72.793 100.858C72.928 100.323 72.6042 99.7796 72.0693 99.6438C68.8375 98.8238 65.7033 97.9827 62.6709 97.1218C62.1401 96.9711 61.5877 97.2788 61.4362 97.8092C58.8698 97.0718 56.3769 96.3198 53.9601 95.554C54.1277 95.0287 53.8383 94.4667 53.3131 94.298C50.1012 93.2669 47.0288 92.2113 44.1019 91.1329C43.5844 90.9423 43.0105 91.2066 42.8187 91.7233C40.315 90.7867 37.9188 89.8328 35.6343 88.8626C35.8513 88.3564 35.6179 87.7696 35.1119 87.5509C31.953 86.1852 29.0202 84.7894 26.3239 83.3665C25.8369 83.1095 25.2341 83.2947 24.975 83.7799C22.5542 82.4721 20.327 81.1401 18.3019 79.7861C18.6104 79.3322 18.4954 78.7137 18.0431 78.4012C15.1318 76.3904 12.6909 74.3444 10.7376 72.2731C10.3622 71.875 9.73746 71.8531 9.33518 72.2213C7.45004 70.0944 6.0471 67.9264 5.15422 65.7238C5.65928 65.5364 5.92683 64.9799 5.75315 64.4661C5.25232 62.9847 5 61.4965 5 60C5 58.5035 5.25231 57.0153 5.75314 55.5339C5.92682 55.0201 5.65927 54.4637 5.15421 54.2763C6.04709 52.0736 7.45003 49.9056 9.33516 47.7788C9.73744 48.1469 10.3622 48.125 10.7376 47.7269C12.6909 45.6557 15.1318 43.6096 18.043 41.5988C18.4954 41.2864 18.6103 40.6678 18.3018 40.214C20.327 38.8599 22.5542 37.5279 24.975 36.2201C25.2341 36.7053 25.8369 36.8905 26.3239 36.6335C29.0202 35.2106 31.953 33.8148 35.1119 32.4491C35.6179 32.2304 35.8512 31.6436 35.6343 31.1374C37.9188 30.1672 40.315 29.2133 42.8187 28.2767C43.0104 28.7934 43.5844 29.0577 44.1019 28.8671C47.0288 27.7887 50.1012 26.7331 53.3131 25.702C53.8383 25.5333 54.1277 24.9713 53.9601 24.446C56.3769 23.6802 58.8698 22.9282 61.4362 22.1908C61.5877 22.7212 62.1401 23.0289 62.6709 22.8782C65.7033 22.0173 68.8375 21.1762 72.0693 20.3562C72.6042 20.2204 72.928 19.6771 72.793 19.1422C75.2539 18.5246 77.7699 17.9192 80.3392 17.3263C80.4626 17.864 80.9984 18.2003 81.5364 18.0774C84.6361 17.3697 87.8128 16.68 91.0633 16.0092C91.6039 15.8976 91.9518 15.3692 91.8408 14.8287C94.3412 14.3179 96.8843 13.8183 99.4689 13.3301C99.5708 13.8725 100.093 14.2298 100.635 14.1283C103.778 13.5406 106.982 12.9698 110.244 12.4163C110.788 12.324 111.154 11.8082 111.062 11.264C113.588 10.8397 116.148 10.4258 118.742 10.0227C118.826 10.5681 119.337 10.9422 119.882 10.8582C123.055 10.3698 126.277 9.89748 129.547 9.44158C130.094 9.36534 130.475 8.86048 130.399 8.31375C132.944 7.96248 135.518 7.62116 138.118 7.29003C138.187 7.83764 138.687 8.22554 139.235 8.15652C142.425 7.75455 145.656 7.36787 148.926 6.99691C149.474 6.93468 149.869 6.43969 149.807 5.89117C152.355 5.60518 154.927 5.32871 157.522 5.06197C157.578 5.61113 158.069 6.01098 158.618 5.95516C161.821 5.62962 165.058 5.31889 168.328 5.02333C168.878 4.97363 169.283 4.48774 169.234 3.93792C171.796 3.70917 174.378 3.48972 176.98 3.27975C177.024 3.83002 177.505 4.2405 178.056 4.19667C181.276 3.94022 184.524 3.69828 187.8 3.4712C188.351 3.43302 188.767 2.9557 188.729 2.40496C191.304 2.22914 193.895 2.06248 196.503 1.90514C196.536 2.45621 197.009 2.87635 197.56 2.84365C200.784 2.65241 204.031 2.47541 207.302 2.31294C207.853 2.28554 208.278 1.81643 208.251 1.26504C210.822 1.13981 213.408 1.02355 216.007 0.916404C216.029 1.46801 216.494 1.8971 217.046 1.87488C220.279 1.74468 223.533 1.6286 226.806 1.52691C227.358 1.50977 227.791 1.04862 227.774 0.496809C230.357 0.418985 232.951 0.350109 235.557 0.290321C235.57 0.842256 236.027 1.27976 236.579 1.2676C239.817 1.19628 243.073 1.13899 246.344 1.09601C246.897 1.08876 247.338 0.635443 247.331 0.0834099C249.909 0.051873 252.497 0.0292038 255.094 0.0155307C255.097 0.567604 255.546 1.01312 256.098 1.0107C257.729 1.00358 259.363 1 261 1C262.637 1 264.271 1.00358 265.901 1.0107C266.454 1.01312 266.903 0.567604 266.906 0.0155304C269.503 0.0292035 272.091 0.0518725 274.669 0.0834093C274.662 0.635442 275.103 1.08876 275.656 1.09601C278.927 1.13899 282.183 1.19628 285.421 1.2676C285.973 1.27976 286.43 0.842255 286.443 0.29032C289.049 0.350108 291.643 0.418984 294.226 0.496808C294.209 1.04862 294.642 1.50977 295.194 1.52691C298.467 1.6286 301.721 1.74468 304.954 1.87488C305.506 1.8971 305.971 1.46801 305.993 0.916403C308.592 1.02355 311.178 1.13981 313.749 1.26504C313.722 1.81643 314.147 2.28554 314.698 2.31293C317.969 2.4754 321.216 2.65241 324.44 2.84365C324.991 2.87635 325.464 2.4562 325.497 1.90513C328.105 2.06248 330.696 2.22914 333.271 2.40495C333.233 2.9557 333.649 3.43302 334.2 3.4712C337.476 3.69828 340.724 3.94022 343.944 4.19666C344.495 4.2405 344.976 3.83002 345.02 3.27975C347.622 3.48972 350.204 3.70917 352.766 3.93792C352.717 4.48774 353.122 4.97363 353.672 5.02333C356.942 5.31889 360.179 5.62962 363.382 5.95515C363.931 6.01098 364.422 5.61112 364.478 5.06197C367.073 5.32871 369.645 5.60517 372.193 5.89116C372.131 6.43969 372.526 6.93467 373.074 6.99691C376.344 7.36787 379.575 7.75455 382.765 8.15652C383.313 8.22553 383.813 7.83764 383.882 7.29003C386.482 7.62116 389.056 7.96248 391.601 8.31375C391.525 8.86048 391.906 9.36534 392.453 9.44158C395.723 9.89747 398.945 10.3698 402.118 10.8582C402.663 10.9422 403.174 10.5681 403.258 10.0227C405.852 10.4258 408.412 10.8397 410.938 11.264C410.846 11.8082 411.212 12.324 411.756 12.4163C415.018 12.9698 418.222 13.5406 421.365 14.1283C421.907 14.2298 422.429 13.8725 422.531 13.3301C425.116 13.8183 427.659 14.3179 430.159 14.8287C430.048 15.3692 430.396 15.8976 430.937 16.0092C434.187 16.68 437.364 17.3696 440.464 18.0774C441.002 18.2003 441.537 17.864 441.661 17.3262C444.23 17.9191 446.746 18.5246 449.207 19.1422C449.072 19.6771 449.396 20.2204 449.931 20.3562C453.162 21.1762 456.297 22.0173 459.329 22.8782C459.86 23.0289 460.412 22.7212 460.564 22.1908C463.13 22.9282 465.623 23.6802 468.04 24.446C467.872 24.9713 468.162 25.5333 468.687 25.702C471.899 26.7331 474.971 27.7887 477.898 28.867C478.416 29.0577 478.99 28.7934 479.181 28.2767C481.685 29.2133 484.081 30.1672 486.366 31.1374C486.149 31.6436 486.382 32.2304 486.888 32.4491C490.047 33.8148 492.98 35.2106 495.676 36.6335C496.163 36.8905 496.766 36.7053 497.025 36.2201C499.446 37.5279 501.673 38.8599 503.698 40.2139C503.39 40.6678 503.505 41.2864 503.957 41.5988C506.868 43.6096 509.309 45.6556 511.262 47.7269C511.638 48.125 512.263 48.1469 512.665 47.7787Z" stroke="url(#paint13_linear)" stroke-width="2" stroke-linecap="round" stroke-dasharray="10 10"/>
<g filter="url(#filter10_d)">
<circle cx="517" cy="60" r="9" fill="url(#paint14_linear)"/>
</g>
<g filter="url(#filter11_d)">
<circle cx="517" cy="244" r="12" fill="url(#paint15_linear)"/>
</g>
<defs>
<filter id="filter0_d" x="83" y="72" width="368" height="368" filterUnits="userSpaceOnUse" color-interpolation-filters="sRGB">
<feFlood flood-opacity="0" result="BackgroundImageFix"/>
<feColorMatrix in="SourceAlpha" type="matrix" values="0 0 0 0 0 0 0 0 0 0 0 0 0 0 0 0 0 0 127 0" result="hardAlpha"/>
<feOffset dy="10"/>
<feGaussianBlur stdDeviation="10"/>
<feComposite in2="hardAlpha" operator="out"/>
<feColorMatrix type="matrix" values="0 0 0 0 0 0 0 0 0 0 0 0 0 0 0 0 0 0 0.05 0"/>
<feBlend mode="normal" in2="BackgroundImageFix" result="effect1_dropShadow"/>
<feBlend mode="normal" in="SourceGraphic" in2="effect1_dropShadow" result="shape"/>
</filter>
<filter id="filter1_i" x="164.899" y="169.424" width="14.0389" height="21.0389" filterUnits="userSpaceOnUse" color-interpolation-filters="sRGB">
<feFlood flood-opacity="0" result="BackgroundImageFix"/>
<feBlend mode="normal" in="SourceGraphic" in2="BackgroundImageFix" result="shape"/>
<feColorMatrix in="SourceAlpha" type="matrix" values="0 0 0 0 0 0 0 0 0 0 0 0 0 0 0 0 0 0 127 0" result="hardAlpha"/>
<feOffset dy="7"/>
<feGaussianBlur stdDeviation="8"/>
<feComposite in2="hardAlpha" operator="arithmetic" k2="-1" k3="1"/>
<feColorMatrix type="matrix" values="0 0 0 0 0 0 0 0 0 0 0 0 0 0 0 0 0 0 0.1 0"/>
<feBlend mode="normal" in2="shape" result="effect1_innerShadow"/>
</filter>
<filter id="filter2_i" x="289.334" y="120.926" width="33.1829" height="40.1829" filterUnits="userSpaceOnUse" color-interpolation-filters="sRGB">
<feFlood flood-opacity="0" result="BackgroundImageFix"/>
<feBlend mode="normal" in="SourceGraphic" in2="BackgroundImageFix" result="shape"/>
<feColorMatrix in="SourceAlpha" type="matrix" values="0 0 0 0 0 0 0 0 0 0 0 0 0 0 0 0 0 0 127 0" result="hardAlpha"/>
<feOffset dy="7"/>
<feGaussianBlur stdDeviation="8"/>
<feComposite in2="hardAlpha" operator="arithmetic" k2="-1" k3="1"/>
<feColorMatrix type="matrix" values="0 0 0 0 0 0 0 0 0 0 0 0 0 0 0 0 0 0 0.1 0"/>
<feBlend mode="normal" in2="shape" result="effect1_innerShadow"/>
</filter>
<filter id="filter3_i" x="354.424" y="268.973" width="39.5642" height="46.5642" filterUnits="userSpaceOnUse" color-interpolation-filters="sRGB">
<feFlood flood-opacity="0" result="BackgroundImageFix"/>
<feBlend mode="normal" in="SourceGraphic" in2="BackgroundImageFix" result="shape"/>
<feColorMatrix in="SourceAlpha" type="matrix" values="0 0 0 0 0 0 0 0 0 0 0 0 0 0 0 0 0 0 127 0" result="hardAlpha"/>
<feOffset dy="7"/>
<feGaussianBlur stdDeviation="8"/>
<feComposite in2="hardAlpha" operator="arithmetic" k2="-1" k3="1"/>
<feColorMatrix type="matrix" values="0 0 0 0 0 0 0 0 0 0 0 0 0 0 0 0 0 0 0.1 0"/>
<feBlend mode="normal" in2="shape" result="effect1_innerShadow"/>
</filter>
<filter id="filter4_i" x="173.833" y="335.977" width="28.0778" height="35.0778" filterUnits="userSpaceOnUse" color-interpolation-filters="sRGB">
<feFlood flood-opacity="0" result="BackgroundImageFix"/>
<feBlend mode="normal" in="SourceGraphic" in2="BackgroundImageFix" result="shape"/>
<feColorMatrix in="SourceAlpha" type="matrix" values="0 0 0 0 0 0 0 0 0 0 0 0 0 0 0 0 0 0 127 0" result="hardAlpha"/>
<feOffset dy="7"/>
<feGaussianBlur stdDeviation="8"/>
<feComposite in2="hardAlpha" operator="arithmetic" k2="-1" k3="1"/>
<feColorMatrix type="matrix" values="0 0 0 0 0 0 0 0 0 0 0 0 0 0 0 0 0 0 0.1 0"/>
<feBlend mode="normal" in2="shape" result="effect1_innerShadow"/>
</filter>
<filter id="filter5_f" x="175" y="423" width="208" height="19" filterUnits="userSpaceOnUse" color-interpolation-filters="sRGB">
<feFlood flood-opacity="0" result="BackgroundImageFix"/>
<feBlend mode="normal" in="SourceGraphic" in2="BackgroundImageFix" result="shape"/>
<feGaussianBlur stdDeviation="2" result="effect1_foregroundBlur"/>
</filter>
<filter id="filter6_d" x="0" y="104" width="58" height="58" filterUnits="userSpaceOnUse" color-interpolation-filters="sRGB">
<feFlood flood-opacity="0" result="BackgroundImageFix"/>
<feColorMatrix in="SourceAlpha" type="matrix" values="0 0 0 0 0 0 0 0 0 0 0 0 0 0 0 0 0 0 127 0" result="hardAlpha"/>
<feOffset dy="10"/>
<feGaussianBlur stdDeviation="10"/>
<feComposite in2="hardAlpha" operator="out"/>
<feColorMatrix type="matrix" values="0 0 0 0 0 0 0 0 0 0 0 0 0 0 0 0 0 0 0.05 0"/>
<feBlend mode="normal" in2="BackgroundImageFix" result="effect1_dropShadow"/>
<feBlend mode="normal" in="SourceGraphic" in2="effect1_dropShadow" result="shape"/>
</filter>
<filter id="filter7_d" x="65" y="262" width="64" height="64" filterUnits="userSpaceOnUse" color-interpolation-filters="sRGB">
<feFlood flood-opacity="0" result="BackgroundImageFix"/>
<feColorMatrix in="SourceAlpha" type="matrix" values="0 0 0 0 0 0 0 0 0 0 0 0 0 0 0 0 0 0 127 0" result="hardAlpha"/>
<feOffset dy="10"/>
<feGaussianBlur stdDeviation="10"/>
<feComposite in2="hardAlpha" operator="out"/>
<feColorMatrix type="matrix" values="0 0 0 0 0 0 0 0 0 0 0 0 0 0 0 0 0 0 0.05 0"/>
<feBlend mode="normal" in2="BackgroundImageFix" result="effect1_dropShadow"/>
<feBlend mode="normal" in="SourceGraphic" in2="effect1_dropShadow" result="shape"/>
</filter>
<filter id="filter8_d" x="303" y="364" width="64" height="64" filterUnits="userSpaceOnUse" color-interpolation-filters="sRGB">
<feFlood flood-opacity="0" result="BackgroundImageFix"/>
<feColorMatrix in="SourceAlpha" type="matrix" values="0 0 0 0 0 0 0 0 0 0 0 0 0 0 0 0 0 0 127 0" result="hardAlpha"/>
<feOffset dy="10"/>
<feGaussianBlur stdDeviation="10"/>
<feComposite in2="hardAlpha" operator="out"/>
<feColorMatrix type="matrix" values="0 0 0 0 0 0 0 0 0 0 0 0 0 0 0 0 0 0 0.05 0"/>
<feBlend mode="normal" in2="BackgroundImageFix" result="effect1_dropShadow"/>
<feBlend mode="normal" in="SourceGraphic" in2="effect1_dropShadow" result="shape"/>
</filter>
<filter id="filter9_d" x="213" y="458" width="64" height="64" filterUnits="userSpaceOnUse" color-interpolation-filters="sRGB">
<feFlood flood-opacity="0" result="BackgroundImageFix"/>
<feColorMatrix in="SourceAlpha" type="matrix" values="0 0 0 0 0 0 0 0 0 0 0 0 0 0 0 0 0 0 127 0" result="hardAlpha"/>
<feOffset dy="10"/>
<feGaussianBlur stdDeviation="10"/>
<feComposite in2="hardAlpha" operator="out"/>
<feColorMatrix type="matrix" values="0 0 0 0 0 0 0 0 0 0 0 0 0 0 0 0 0 0 0.05 0"/>
<feBlend mode="normal" in2="BackgroundImageFix" result="effect1_dropShadow"/>
<feBlend mode="normal" in="SourceGraphic" in2="effect1_dropShadow" result="shape"/>
</filter>
<filter id="filter10_d" x="488" y="41" width="58" height="58" filterUnits="userSpaceOnUse" color-interpolation-filters="sRGB">
<feFlood flood-opacity="0" result="BackgroundImageFix"/>
<feColorMatrix in="SourceAlpha" type="matrix" values="0 0 0 0 0 0 0 0 0 0 0 0 0 0 0 0 0 0 127 0" result="hardAlpha"/>
<feOffset dy="10"/>
<feGaussianBlur stdDeviation="10"/>
<feComposite in2="hardAlpha" operator="out"/>
<feColorMatrix type="matrix" values="0 0 0 0 0 0 0 0 0 0 0 0 0 0 0 0 0 0 0.05 0"/>
<feBlend mode="normal" in2="BackgroundImageFix" result="effect1_dropShadow"/>
<feBlend mode="normal" in="SourceGraphic" in2="effect1_dropShadow" result="shape"/>
</filter>
<filter id="filter11_d" x="485" y="222" width="64" height="64" filterUnits="userSpaceOnUse" color-interpolation-filters="sRGB">
<feFlood flood-opacity="0" result="BackgroundImageFix"/>
<feColorMatrix in="SourceAlpha" type="matrix" values="0 0 0 0 0 0 0 0 0 0 0 0 0 0 0 0 0 0 127 0" result="hardAlpha"/>
<feOffset dy="10"/>
<feGaussianBlur stdDeviation="10"/>
<feComposite in2="hardAlpha" operator="out"/>
<feColorMatrix type="matrix" values="0 0 0 0 0 0 0 0 0 0 0 0 0 0 0 0 0 0 0.05 0"/>
<feBlend mode="normal" in2="BackgroundImageFix" result="effect1_dropShadow"/>
<feBlend mode="normal" in="SourceGraphic" in2="effect1_dropShadow" result="shape"/>
</filter>
<linearGradient id="paint0_linear" x1="93.9998" y1="367.458" x2="124.448" y2="522.686" gradientUnits="userSpaceOnUse">
<stop stop-color="#F1F6F9" stop-opacity="0"/>
<stop offset="1" stop-color="#CDD1DA"/>
</linearGradient>
<linearGradient id="paint1_linear" x1="152.407" y1="91.9274" x2="373.968" y2="357.484" gradientUnits="userSpaceOnUse">
<stop stop-opacity="0"/>
<stop offset="1" stop-color="#393939"/>
</linearGradient>
<linearGradient id="paint2_linear" x1="167.014" y1="169.849" x2="176.497" y2="181.215" gradientUnits="userSpaceOnUse">
<stop stop-opacity="0"/>
<stop offset="1" stop-color="#393939"/>
</linearGradient>
<linearGradient id="paint3_linear" x1="294.333" y1="121.93" x2="316.748" y2="148.796" gradientUnits="userSpaceOnUse">
<stop stop-opacity="0"/>
<stop offset="1" stop-color="#393939"/>
</linearGradient>
<linearGradient id="paint4_linear" x1="360.384" y1="270.17" x2="387.109" y2="302.202" gradientUnits="userSpaceOnUse">
<stop stop-opacity="0"/>
<stop offset="1" stop-color="#393939"/>
</linearGradient>
<linearGradient id="paint5_linear" x1="178.062" y1="336.826" x2="197.028" y2="359.559" gradientUnits="userSpaceOnUse">
<stop stop-opacity="0"/>
<stop offset="1" stop-color="#393939"/>
</linearGradient>
<linearGradient id="paint6_linear" x1="23.5" y1="257" x2="78.9293" y2="489.933" gradientUnits="userSpaceOnUse">
<stop stop-color="#F1F6F9" stop-opacity="0"/>
<stop offset="1" stop-color="#CDD1DA"/>
</linearGradient>
<linearGradient id="paint7_linear" x1="395.5" y1="279" x2="294.466" y2="237.529" gradientUnits="userSpaceOnUse">
<stop stop-color="#F1F6F9" stop-opacity="0"/>
<stop offset="1" stop-color="#CDD1DA"/>
</linearGradient>
<linearGradient id="paint8_linear" x1="327" y1="105" x2="126.42" y2="319.032" gradientUnits="userSpaceOnUse">
<stop stop-color="#F1F6F9" stop-opacity="0"/>
<stop offset="1" stop-color="#CDD1DA"/>
</linearGradient>
<linearGradient id="paint9_linear" x1="23.1517" y1="114.702" x2="35.4023" y2="128.932" gradientUnits="userSpaceOnUse">
<stop stop-color="#686868"/>
<stop offset="1" stop-color="white"/>
</linearGradient>
<linearGradient id="paint10_linear" x1="89.2023" y1="272.936" x2="105.536" y2="291.91" gradientUnits="userSpaceOnUse">
<stop stop-color="#686868"/>
<stop offset="1" stop-color="white"/>
</linearGradient>
<linearGradient id="paint11_linear" x1="327.202" y1="374.936" x2="343.536" y2="393.91" gradientUnits="userSpaceOnUse">
<stop stop-color="#686868"/>
<stop offset="1" stop-color="white"/>
</linearGradient>
<linearGradient id="paint12_linear" x1="237.202" y1="468.936" x2="253.536" y2="487.91" gradientUnits="userSpaceOnUse">
<stop stop-color="#686868"/>
<stop offset="1" stop-color="white"/>
</linearGradient>
<linearGradient id="paint13_linear" x1="155" y1="90.5" x2="285.59" y2="-48.3542" gradientUnits="userSpaceOnUse">
<stop stop-color="#F1F6F9" stop-opacity="0"/>
<stop offset="1" stop-color="#CDD1DA"/>
</linearGradient>
<linearGradient id="paint14_linear" x1="511.152" y1="51.7024" x2="523.402" y2="65.9323" gradientUnits="userSpaceOnUse">
<stop stop-color="#686868"/>
<stop offset="1" stop-color="white"/>
</linearGradient>
<linearGradient id="paint15_linear" x1="509.202" y1="232.936" x2="525.536" y2="251.91" gradientUnits="userSpaceOnUse">
<stop stop-color="#686868"/>
<stop offset="1" stop-color="white"/>
</linearGradient>
</defs>
</svg>
