<svg width="262" height="315" viewBox="0 0 262 315" fill="none" xmlns="http://www.w3.org/2000/svg">
<g filter="url(#filter0_d)">
<g filter="url(#filter1_i)">
<path d="M123.07 16.0922C126.48 9.39509 136.048 9.3951 139.458 16.0923L235.721 205.139C238.836 211.256 234.392 218.506 227.527 218.506H186.896H161.332C159.853 218.506 158.395 218.149 157.083 217.466L139.338 208.219C134.278 205.582 128.25 205.582 123.19 208.219L105.445 217.466C104.133 218.149 102.675 218.506 101.196 218.506H75.632H35.0012C28.136 218.506 23.6918 211.256 26.807 205.139L123.07 16.0922Z" fill="url(#paint0_linear)"/>
</g>
<mask id="mask0" style="mask-type:alpha" maskUnits="userSpaceOnUse" x="25" y="11" width="212" height="208">
<path d="M123.07 16.0922C126.48 9.39509 136.048 9.3951 139.458 16.0923L235.721 205.139C238.836 211.256 234.392 218.506 227.527 218.506H186.896H161.332C159.853 218.506 158.395 218.149 157.083 217.466L139.338 208.219C134.278 205.582 128.25 205.582 123.19 208.219L105.445 217.466C104.133 218.149 102.675 218.506 101.196 218.506H75.632H35.0012C28.136 218.506 23.6918 211.256 26.807 205.139L123.07 16.0922Z" fill="url(#paint1_linear)"/>
</mask>
<g mask="url(#mask0)">
<g opacity="0.1" filter="url(#filter2_f)">
<path d="M131.264 135.642L138.637 55.967L161.091 228.56H131.264V135.642Z" fill="url(#paint2_linear)"/>
</g>
<g opacity="0.05" filter="url(#filter3_if)">
<path d="M131.264 128.328L126.237 58.3131L103.783 226.022L131.264 228.56V128.328Z" fill="#191919"/>
</g>
</g>
<path d="M62.897 221.858H85.686C85.686 231.98 83.2026 241.948 78.4534 250.888L75.8841 255.724C75.206 257.001 73.377 257.001 72.6988 255.724L70.1295 250.888C65.3804 241.948 62.897 231.98 62.897 221.858Z" fill="url(#paint3_linear)"/>
<g opacity="0.4" filter="url(#filter4_f)">
<path d="M59.2105 151.48L91.3832 200.409L55.8592 215.155L50.4971 169.242L59.2105 151.48Z" fill="url(#paint4_linear)"/>
</g>
<path d="M56.8643 200.744H91.718V223.474C91.718 224.365 91.0787 225.13 90.1985 225.273C79.6698 226.975 68.9125 226.975 58.3838 225.273C57.5036 225.13 56.8643 224.365 56.8643 223.474V200.744Z" fill="url(#paint5_linear)"/>
<ellipse cx="74.2912" cy="200.409" rx="17.4269" ry="2.0108" fill="#1E1E1E"/>
<path d="M204.323 221.858H181.534C181.534 231.98 184.018 241.948 188.767 250.888L191.336 255.724C192.014 257.001 193.843 257.001 194.521 255.724L197.091 250.888C201.84 241.948 204.323 231.98 204.323 221.858Z" fill="url(#paint6_linear)"/>
<g opacity="0.3" filter="url(#filter5_f)">
<path d="M208.009 151.48L175.166 200.744L211.361 215.155L216.723 169.242L208.009 151.48Z" fill="url(#paint7_linear)"/>
</g>
<path d="M210.355 200.744H175.502V223.474C175.502 224.365 176.141 225.13 177.021 225.273C187.55 226.975 198.307 226.975 208.836 225.273C209.716 225.13 210.355 224.365 210.355 223.474V200.744Z" fill="url(#paint8_linear)"/>
<ellipse rx="17.4269" ry="2.0108" transform="matrix(-1 0 0 1 192.929 200.409)" fill="#1E1E1E"/>
</g>
<defs>
<filter id="filter0_d" x="0.793457" y="11.0693" width="260.941" height="303.612" filterUnits="userSpaceOnUse" color-interpolation-filters="sRGB">
<feFlood flood-opacity="0" result="BackgroundImageFix"/>
<feColorMatrix in="SourceAlpha" type="matrix" values="0 0 0 0 0 0 0 0 0 0 0 0 0 0 0 0 0 0 127 0" result="hardAlpha"/>
<feOffset dy="33"/>
<feGaussianBlur stdDeviation="12.5"/>
<feComposite in2="hardAlpha" operator="out"/>
<feColorMatrix type="matrix" values="0 0 0 0 0 0 0 0 0 0 0 0 0 0 0 0 0 0 0.07 0"/>
<feBlend mode="normal" in2="BackgroundImageFix" result="effect1_dropShadow"/>
<feBlend mode="normal" in="SourceGraphic" in2="effect1_dropShadow" result="shape"/>
</filter>
<filter id="filter1_i" x="25.7935" y="11.0693" width="212.32" height="207.437" filterUnits="userSpaceOnUse" color-interpolation-filters="sRGB">
<feFlood flood-opacity="0" result="BackgroundImageFix"/>
<feBlend mode="normal" in="SourceGraphic" in2="BackgroundImageFix" result="shape"/>
<feColorMatrix in="SourceAlpha" type="matrix" values="0 0 0 0 0 0 0 0 0 0 0 0 0 0 0 0 0 0 127 0" result="hardAlpha"/>
<feOffset dx="1.37931"/>
<feGaussianBlur stdDeviation="1.60919"/>
<feComposite in2="hardAlpha" operator="arithmetic" k2="-1" k3="1"/>
<feColorMatrix type="matrix" values="0 0 0 0 1 0 0 0 0 1 0 0 0 0 1 0 0 0 0.75 0"/>
<feBlend mode="normal" in2="shape" result="effect1_innerShadow"/>
</filter>
<filter id="filter2_f" x="125.287" y="49.99" width="41.7808" height="184.547" filterUnits="userSpaceOnUse" color-interpolation-filters="sRGB">
<feFlood flood-opacity="0" result="BackgroundImageFix"/>
<feBlend mode="normal" in="SourceGraphic" in2="BackgroundImageFix" result="shape"/>
<feGaussianBlur stdDeviation="2.9885" result="effect1_foregroundBlur"/>
</filter>
<filter id="filter3_if" x="96.4269" y="50.9568" width="42.1935" height="184.96" filterUnits="userSpaceOnUse" color-interpolation-filters="sRGB">
<feFlood flood-opacity="0" result="BackgroundImageFix"/>
<feBlend mode="normal" in="SourceGraphic" in2="BackgroundImageFix" result="shape"/>
<feColorMatrix in="SourceAlpha" type="matrix" values="0 0 0 0 0 0 0 0 0 0 0 0 0 0 0 0 0 0 127 0" result="hardAlpha"/>
<feOffset dx="2.75861" dy="6.43677"/>
<feGaussianBlur stdDeviation="3.90804"/>
<feComposite in2="hardAlpha" operator="arithmetic" k2="-1" k3="1"/>
<feColorMatrix type="matrix" values="0 0 0 0 1 0 0 0 0 1 0 0 0 0 1 0 0 0 1 0"/>
<feBlend mode="normal" in2="shape" result="effect1_innerShadow"/>
<feGaussianBlur stdDeviation="3.67815" result="effect2_foregroundBlur"/>
</filter>
<filter id="filter4_f" x="47.7385" y="148.721" width="46.4034" height="69.1924" filterUnits="userSpaceOnUse" color-interpolation-filters="sRGB">
<feFlood flood-opacity="0" result="BackgroundImageFix"/>
<feBlend mode="normal" in="SourceGraphic" in2="BackgroundImageFix" result="shape"/>
<feGaussianBlur stdDeviation="1.37931" result="effect1_foregroundBlur"/>
</filter>
<filter id="filter5_f" x="172.407" y="148.721" width="47.0737" height="69.1924" filterUnits="userSpaceOnUse" color-interpolation-filters="sRGB">
<feFlood flood-opacity="0" result="BackgroundImageFix"/>
<feBlend mode="normal" in="SourceGraphic" in2="BackgroundImageFix" result="shape"/>
<feGaussianBlur stdDeviation="1.37931" result="effect1_foregroundBlur"/>
</filter>
<linearGradient id="paint0_linear" x1="53.5194" y1="6.61339" x2="200.614" y2="186.16" gradientUnits="userSpaceOnUse">
<stop/>
<stop offset="1" stop-color="#2E2E2E"/>
</linearGradient>
<linearGradient id="paint1_linear" x1="53.5194" y1="6.61339" x2="200.614" y2="186.16" gradientUnits="userSpaceOnUse">
<stop/>
<stop offset="1" stop-color="#2E2E2E"/>
</linearGradient>
<linearGradient id="paint2_linear" x1="146.01" y1="85.7938" x2="146.01" y2="228.56" gradientUnits="userSpaceOnUse">
<stop stop-color="white" stop-opacity="0"/>
<stop offset="1" stop-color="white"/>
</linearGradient>
<linearGradient id="paint3_linear" x1="76.3023" y1="221.858" x2="90.6959" y2="250.47" gradientUnits="userSpaceOnUse">
<stop stop-color="#CDD1DA"/>
<stop offset="1" stop-color="#F1F6F9" stop-opacity="0"/>
</linearGradient>
<linearGradient id="paint4_linear" x1="53.1781" y1="154.161" x2="78.3131" y2="201.75" gradientUnits="userSpaceOnUse">
<stop stop-opacity="0"/>
<stop offset="1"/>
</linearGradient>
<linearGradient id="paint5_linear" x1="56.8643" y1="216.495" x2="90.3447" y2="228.664" gradientUnits="userSpaceOnUse">
<stop stop-color="#4D4D4D"/>
<stop offset="0.560474" stop-color="#272727"/>
<stop offset="1" stop-color="#050505"/>
</linearGradient>
<linearGradient id="paint6_linear" x1="190.918" y1="221.858" x2="176.524" y2="250.47" gradientUnits="userSpaceOnUse">
<stop stop-color="#CDD1DA"/>
<stop offset="1" stop-color="#F1F6F9" stop-opacity="0"/>
</linearGradient>
<linearGradient id="paint7_linear" x1="214.712" y1="154.161" x2="192.258" y2="206.441" gradientUnits="userSpaceOnUse">
<stop stop-opacity="0.49"/>
<stop offset="1"/>
</linearGradient>
<linearGradient id="paint8_linear" x1="210.355" y1="216.495" x2="176.875" y2="228.664" gradientUnits="userSpaceOnUse">
<stop stop-color="#4D4D4D"/>
<stop offset="0.560474" stop-color="#272727"/>
<stop offset="1" stop-color="#050505"/>
</linearGradient>
</defs>
</svg>
