<?xml version="1.0" standalone="no"?>
<!DOCTYPE svg PUBLIC "-//W3C//DTD SVG 1.1//EN" "http://www.w3.org/Graphics/SVG/1.1/DTD/svg11.dtd" >
<svg xmlns="http://www.w3.org/2000/svg" xmlns:xlink="http://www.w3.org/1999/xlink" version="1.1">
<metadata>
Created by FontForge 20190801 at Sun Aug 30 14:37:00 2020
 By Jimmy Wärting
(c) HansCo 2020. All Rights Reserved
</metadata>
<defs>
<font id="AerosRegular" horiz-adv-x="1017" >
  <font-face 
    font-family="Aeros"
    font-weight="400"
    font-stretch="normal"
    units-per-em="1000"
    panose-1="0 0 0 0 0 0 0 0 0 0"
    ascent="800"
    descent="-200"
    x-height="700"
    cap-height="700"
    bbox="-34 -296 2161 992"
    underline-thickness="50"
    underline-position="-150"
    unicode-range="U+000A-F015"
  />
<missing-glyph horiz-adv-x="527" 
d="M50 700h427v-700h-427v700zM78 680l185 -309l186 309h-371zM251 350l-180 300v-601zM264 329l-185 -308h370zM276 350l181 -303v605z" />
    <glyph glyph-name=".notdef" horiz-adv-x="527" 
d="M50 700h427v-700h-427v700zM78 680l185 -309l186 309h-371zM251 350l-180 300v-601zM264 329l-185 -308h370zM276 350l181 -303v605z" />
    <glyph glyph-name=".null" horiz-adv-x="0" 
 />
    <glyph glyph-name=".null" horiz-adv-x="0" 
 />
    <glyph glyph-name="nonmarkingreturn" horiz-adv-x="333" 
 />
    <glyph glyph-name="controlLF" unicode="&#xa;" horiz-adv-x="0" 
 />
    <glyph glyph-name="controlCR" unicode="&#xd;" horiz-adv-x="0" 
 />
    <glyph glyph-name="space" unicode=" " horiz-adv-x="528" 
 />
    <glyph glyph-name="exclam" unicode="!" horiz-adv-x="286" 
d="M85 134h116q9 0 9 -9v-116q0 -9 -9 -9h-116q-9 0 -9 9v116q0 9 9 9zM76 691q0 9 9 9h116q9 0 9 -9v-484q0 -10 -9 -10h-116q-9 0 -9 10v484z" />
    <glyph glyph-name="quotedbl" unicode="&#x22;" horiz-adv-x="323" 
d="M47 700h96q4 0 7 -2.5t3 -6.5l-29 -184q-2 -9 -9 -9h-30q-8 0 -10 9l-37 184q-1 3 2 6t7 3zM169 691q0 3 3 6t6 3h96q4 0 7 -2.5t3 -6.5l-29 -184q-2 -9 -9 -9h-30q-8 0 -9 9z" />
    <glyph glyph-name="numbersign" unicode="#" horiz-adv-x="871" 
d="M234 0h-115q-4 0 -7.5 3t-1.5 6l91 192h-150q-3 0 -4.5 4.5t0.5 7.5l49 104q2 5 12 5h150l26 55h-150q-3 0 -4.5 4.5t0.5 7.5l49 105q2 4 12 4h150l91 193q5 9 10 9h115q4 0 7.5 -3t1.5 -6l-91 -192h61l91 192q5 9 10 9h115q4 0 7.5 -3t1.5 -6l-91 -192h150q3 0 4.5 -4
t-0.5 -8l-49 -104q-2 -5 -12 -5h-150l-26 -55h149q4 0 5.5 -4.5t-0.5 -7.5l-49 -105q-2 -4 -13 -4h-149l-92 -193q-4 -9 -9 -9h-115q-4 0 -7.5 3t-1.5 6l91 193l-62 -1l-90 -192q-5 -9 -10 -9zM392 322l61 1l26 55h-61z" />
    <glyph glyph-name="dollar" unicode="$" horiz-adv-x="1053" 
d="M459 283h-186q-86 0 -147 61.5t-61 147.5t61 147t147 61h186v148q0 14 10 14h115q9 0 9 -14v-148h370q9 0 9 -9v-115q0 -10 -9 -10h-370v-149h186q86 0 147.5 -61.5t61.5 -147t-61.5 -147t-147.5 -61.5h-186v-148q0 -13 -9 -13h-115q-10 0 -10 13v148h-370q-9 0 -9 9v116
q0 9 9 9h370v149zM780 283h-187v-149h187q31 0 52.5 22t21.5 52.5t-21.5 52.5t-52.5 22zM459 417v149h-186q-20 0 -37.5 -10t-27.5 -27t-10 -37q0 -31 22 -53t53 -22h186z" />
    <glyph glyph-name="percent" unicode="%" horiz-adv-x="973" 
d="M322 0q-4 0 -7 4.5t-2 9.5q52 166 106.5 336.5t106.5 336.5q4 13 9 13h115q5 0 8 -4t2 -9q-52 -166 -106.5 -336.5t-106.5 -336.5q-4 -14 -9 -14h-116zM703 303h70q63 0 107.5 -44.5t44.5 -107t-44.5 -107t-107.5 -44.5h-70q-63 0 -107 44.5t-44 107t44 107t107 44.5z
M199 700h71q62 0 106.5 -44.5t44.5 -107t-44.5 -106.5t-106.5 -44h-71q-62 0 -106.5 44t-44.5 106.5t44.5 107t106.5 44.5zM270 579h-71q-12 0 -21 -9t-9 -21.5t9 -21t21 -8.5h71q12 0 21 8.5t9 21t-9 21.5t-21 9zM795 173q-9 9 -22 9h-70q-13 0 -21.5 -9t-8.5 -21.5
t8.5 -21.5t21.5 -9h70q13 0 22 9t9 21.5t-9 21.5z" />
    <glyph glyph-name="ampersand" unicode="&#x26;" horiz-adv-x="994" 
d="M538 283l78 -149h109q31 0 53 22t22 53v32h-1v167q0 9 9 9h116q9 0 9 -9v-204q-2 -84 -63 -144t-146 -60h-38l80 -152q1 -2 -0.5 -4.5t-4 -3.5t-5.5 -1h-115q-4 0 -9 9l-80 152h-292q-85 0 -146.5 61.5t-61.5 147t61 147t147 61.5h74l-143 274q-1 3 2 6t7 3h338
q86 0 147 -61t61.5 -147t-61 -147.5t-147.5 -61.5zM404 283h-144q-31 0 -53 -22t-22 -52.5t22 -52.5t53 -22h222zM390 566l78 -149h71q31 0 52.5 22t21.5 52.5t-21.5 52.5t-52.5 22h-149z" />
    <glyph glyph-name="quotesingle" unicode="'" horiz-adv-x="192" 
d="M38 691q-1 3 2 6t7 3h96q4 0 7 -2.5t3 -6.5l-29 -184q-2 -9 -9 -9h-30q-8 0 -10 9z" />
    <glyph glyph-name="parenleft" unicode="(" horiz-adv-x="347" 
d="M167 0q-5 0 -9 9q-181 362 0 682q5 9 9 9h115q4 0 7.5 -3t2.5 -6q-194 -332 0 -682q1 -2 -0.5 -4t-4 -3.5t-5.5 -1.5h-115z" />
    <glyph glyph-name="parenright" unicode=")" horiz-adv-x="347" 
d="M188 9q-4 -9 -9 -9h-115q-4 0 -7.5 3t-1.5 6q193 350 0 682q-1 2 -0.5 3.5t2 2.5t3.5 2t4 1h115q4 0 9 -9q182 -320 0 -682z" />
    <glyph glyph-name="asterisk" unicode="*" horiz-adv-x="379" 
d="M148 694q0 6 7 6h68q7 0 7 -6q-2 -50 -13 -101q40 29 87 50q6 3 8 -3l24 -65q3 -6 -3 -8q-48 -17 -102 -24q41 -30 77 -69q4 -5 -1 -9l-54 -43q-5 -4 -9 1q-32 43 -56 95q-21 -49 -54 -95q-4 -5 -9 -1l-53 44q-5 4 -1 9q33 38 76 71q-50 5 -101 21q-6 2 -4 9l25 64
q3 6 9 3q45 -19 89 -48q-13 47 -17 99z" />
    <glyph glyph-name="plus" unicode="+" horiz-adv-x="679" 
d="M632 292q0 -9 -8 -9h-218v-218q0 -7 -9 -7h-115q-9 0 -9 7v218h-218q-8 0 -8 9v116q0 9 8 9h218v218q0 8 9 8h115q9 0 9 -8v-218h218q8 0 8 -9v-116z" />
    <glyph glyph-name="comma" unicode="," horiz-adv-x="204" 
d="M35 125q0 9 9 9h116q9 0 9 -9v-184q0 -9 -9 -9h-30q-6 0 -9 9l-20 59h-57q-9 0 -9 9v116z" />
    <glyph glyph-name="hyphen" unicode="-" horiz-adv-x="655" 
d="M620 292q0 -9 -8 -9h-569q-8 0 -8 9v116q0 9 8 9h569q8 0 8 -9v-116z" />
    <glyph glyph-name="period" unicode="." horiz-adv-x="202" 
d="M34 125q0 9 9 9h116q9 0 9 -9v-116q0 -9 -9 -9h-116q-9 0 -9 9v116z" />
    <glyph glyph-name="slash" unicode="/" horiz-adv-x="434" 
d="M43 14q52 165 106.5 335.5t106.5 337.5q4 13 9 13h116q4 0 7.5 -4t1.5 -9q-52 -166 -106.5 -336.5t-106.5 -336.5q-4 -14 -9 -14h-115q-4 0 -7.5 4.5t-2.5 9.5z" />
    <glyph glyph-name="zero" unicode="0" horiz-adv-x="1042" 
d="M410 700h222q94 0 175 -47t128 -127.5t47 -175.5t-47 -175.5t-128 -127.5t-175 -47h-222q-95 0 -175.5 47t-127.5 127.5t-47 175.5t47 175.5t127.5 127.5t175.5 47zM632 134q89 0 152.5 63.5t63.5 152.5t-63.5 152.5t-152.5 63.5h-222q-89 0 -152.5 -63.5t-63.5 -152.5
t63.5 -152.5t152.5 -63.5h222z" />
    <glyph glyph-name="one" unicode="1" horiz-adv-x="339" 
d="M133 0q-9 0 -9 9v557h-56q-9 0 -9 9v116q0 9 9 9h181q9 0 9 -9v-682q0 -9 -9 -9h-116z" />
    <glyph glyph-name="two" unicode="2" horiz-adv-x="1053" 
d="M988 492q0 -86 -61.5 -147.5t-147.5 -61.5h-506q-31 0 -53 -22t-22 -52.5t22 -52.5t53 -22h690q9 0 9 -9v-116q0 -9 -9 -9h-690q-86 0 -147 61t-61 147t61 147.5t147 61.5h507q31 0 52.5 22t21.5 52.5t-21.5 52.5t-52.5 22h-691q-9 0 -9 9v116q0 9 9 9h690
q86 0 147.5 -61t61.5 -147z" />
    <glyph glyph-name="three" unicode="3" horiz-adv-x="1067" 
d="M82 700h353h353q61 0 111 -31.5t77 -86.5q25 -54 19 -112.5t-42 -105.5l-11 -14l11 -14q36 -47 42 -105.5t-19 -112.5q-27 -55 -77 -86.5t-111 -31.5h-706q-9 0 -9 10v115q0 9 10 9h705q32 0 53 21.5t21 53.5q0 20 -9 37q-20 37 -65 37h-705q-10 0 -10 9v116q0 9 10 9
h115h590q32 0 53 21.5t21 53.5q0 20 -9 37q-20 37 -65 37h-706q-9 0 -9 10v115q0 9 9 9z" />
    <glyph glyph-name="four" unicode="4" horiz-adv-x="1061" 
d="M847 417v283h124q3 0 5 -1.5t3 -2.5v-1q1 -2 1 -4v-682q0 -9 -9 -9h-115q-9 0 -9 9v274h-582q-85 0 -146.5 60t-61.5 145v29v174q0 9 9 9h116q9 0 9 -9v-199q0 -32 21.5 -53.5t52.5 -21.5h582z" />
    <glyph glyph-name="five" unicode="5" horiz-adv-x="1066" 
d="M86 700h445.5h444.5q9 0 9 -9v-116q0 -9 -9 -9h-383h-382v-149h290.5h290.5q86 0 147 -61.5t61 -147.5t-61 -147t-147 -61h-706q-9 0 -9 10v124h157h279h280q30 0 52 22t22 52.5t-22 52.5t-52 22h-280h-279h-157v408q0 9 9 9z" />
    <glyph glyph-name="six" unicode="6" horiz-adv-x="1045" 
d="M60 350q0 95 47 175.5t127.5 127.5t175.5 47h532q9 0 9 -9v-116q0 -9 -9 -9h-532q-60 0 -111.5 -31t-79.5 -85l-18 -33h572q86 0 147.5 -61.5t61.5 -147.5t-61.5 -147t-147.5 -61h-363q-95 0 -175.5 47t-127.5 127.5t-47 175.5zM410 134h363q31 0 53 22t22 52.5t-22 52.5
t-53 22h-572l18 -33q28 -54 79.5 -85t111.5 -31z" />
    <glyph glyph-name="seven" unicode="7" horiz-adv-x="957" 
d="M751 350q0 89 -63.5 152.5t-152.5 63.5h-485q-9 0 -9 9v116q0 9 9 9h485q93 0 172.5 -45.5t127.5 -124t50 -170.5v-10v-341q0 -9 -9 -9h-115q-10 0 -10 9v341z" />
    <glyph glyph-name="eight" unicode="8" horiz-adv-x="1064" 
d="M278 566q-45 0 -65 -37q-9 -17 -9 -37q0 -32 21 -53.5t53 -21.5h507q32 0 53 21.5t21 53.5q0 20 -9 37q-20 37 -65 37h-507zM278 283q-45 0 -65 -37q-9 -17 -9 -37q0 -32 21 -53.5t53 -21.5h507q21 0 38 9.5t26.5 27t9.5 38.5q0 20 -9 37q-20 37 -65 37h-507zM785 0h-507
q-61 0 -111 31.5t-76 86.5q-26 54 -20 112.5t43 105.5l11 14l-11 14q-37 47 -43 105.5t20 112.5q26 55 76 86.5t111 31.5h507q61 0 111 -31.5t77 -86.5q25 -54 19 -112.5t-42 -105.5l-11 -14l11 -14q36 -47 42 -105.5t-19 -112.5q-27 -55 -77 -86.5t-111 -31.5z" />
    <glyph glyph-name="nine" unicode="9" horiz-adv-x="1045" 
d="M985 350q0 -95 -47 -175.5t-128 -127.5t-175 -47h-532q-10 0 -10 9v116q0 9 10 9h532q60 0 111.5 31t79.5 85l18 33h-573q-86 0 -147 61.5t-61 147t61 147t147 61.5h364q94 0 175 -47t128 -127.5t47 -175.5zM635 566h-181.5h-182.5q-30 0 -52 -22t-22 -52.5t22 -52.5
t52 -22h573l-18 33q-28 54 -79.5 85t-111.5 31z" />
    <glyph glyph-name="colon" unicode=":" horiz-adv-x="232" 
d="M58 282h116q9 0 9 -9v-115q0 -9 -9 -9h-116q-9 0 -9 9v115q0 9 9 9zM49 542q0 10 9 10h116q9 0 9 -10v-115q0 -9 -9 -9h-116q-9 0 -9 9v115z" />
    <glyph glyph-name="semicolon" unicode=";" horiz-adv-x="242" 
d="M62 282h116q9 0 9 -9v-184q0 -9 -9 -9h-30q-6 0 -9 9l-20 60h-57q-9 0 -9 9v115q0 9 9 9zM53 542q0 10 9 10h116q9 0 9 -10v-115q0 -9 -9 -9h-116q-9 0 -9 9v115z" />
    <glyph glyph-name="less" unicode="&#x3c;" horiz-adv-x="543" 
d="M478 211v-151l-403 191q-22 15 -22 27v145q0 11 22 26l403 191v-150q0 -5 -1 -8t-3.5 -6t-4.5 -4.5t-6.5 -4.5t-6.5 -5l-291 -112l291 -112q2 -1 6.5 -4t6.5 -4.5t4.5 -4.5t3.5 -6.5t1 -7.5z" />
    <glyph glyph-name="equal" unicode="=" horiz-adv-x="683" 
d="M634 489v-116q0 -9 -8 -9h-569q-8 0 -8 9v116q0 9 8 9h569q8 0 8 -9zM634 211q0 -9 -8 -9h-569q-8 0 -8 9v116q0 9 8 9h569q8 0 8 -9v-116z" />
    <glyph glyph-name="greater" unicode="&#x3e;" horiz-adv-x="543" 
d="M64 60v151q0 4 1 7.5t4 6.5l4.5 4.5t6.5 4.5t7 4l291 112l-292 112q-1 2 -6 5t-6.5 4.5l-4.5 4.5t-4 6t-1 8v150l403 -191q22 -15 22 -26v-145q0 -12 -22 -27z" />
    <glyph glyph-name="question" unicode="?" horiz-adv-x="838" 
d="M577 283h-200q-31 0 -53 -22t-22 -53q0 -5 1 -11h-134v11q0 57 28 105t76 76t104 28h200q31 0 53 22t22 52.5t-22 52.5t-53 22h-325q-31 0 -53 -22t-22 -52h-133q0 86 61 147t147 61h325q86 0 147 -61t61 -147q0 -57 -28 -105t-76 -76t-104 -28zM168 125q0 9 10 9h115
q9 0 9 -9v-116q0 -9 -9 -9h-115q-10 0 -10 9v116z" />
    <glyph glyph-name="at" unicode="@" horiz-adv-x="914" 
d="M396 147q-45 0 -81.5 15.5t-58.5 41t-34.5 58t-12.5 66t12.5 66t34.5 58t58.5 41t81.5 15.5h236v24q0 5 5 5h63q5 0 5 -5v-271q0 -17 12 -29t29 -12t29 12t12 29q0 1 1.5 55t-1.5 56q-6 52 -21 94t-40 75t-64 51t-89 18h-180q-111 0 -190.5 -79.5t-79.5 -190.5v-7
q0 -111 79.5 -190.5t190.5 -79.5h307v-63h-307q-90 0 -167 45t-121.5 121.5t-44.5 166.5v7q0 90 44.5 166.5t121.5 121.5t167 45h180q83 0 144.5 -41t93.5 -107.5t40 -153.5q1 -16 1 -106q0 -46 -32 -78t-78 -32q-19 0 -36.5 6t-31.5 17.5t-24 26.5q-13 -16 -39 -31
q-44 -27 -95 -27h-120zM516 220q48 0 82 34t34 83v5v82q0 5 -3.5 8t-7.5 3h-225q-32 0 -56.5 -11.5t-37.5 -30.5t-19 -42t0 -46t19 -42t37.5 -31t56.5 -12h120z" />
    <glyph glyph-name="A" unicode="A" horiz-adv-x="1167" 
d="M682 678l476 -678h-150q-5 0 -8 1t-6 4l-4.5 4.5t-4.5 6.5t-5 6l-84 121h-625l-85 -121q-1 -1 -4 -6t-4.5 -6.5l-4.5 -4.5t-6.5 -4t-7.5 -1h-151l476 678q16 22 27 22h145q11 0 26 -22zM365 277h437l-219 311l-19 -26z" />
    <glyph glyph-name="B" unicode="B" horiz-adv-x="1065" 
d="M80 691q0 9 9 9h706q61 0 111 -31.5t77 -86.5q25 -54 19 -112.5t-42 -105.5l-11 -14l11 -14q36 -47 42 -105.5t-19 -112.5q-18 -37 -46.5 -63.5t-64.5 -40.5t-77 -14h-706q-9 0 -9 9v682zM795 566h-581v-149h581q32 0 53 21.5t21 53.5q0 20 -9 37q-20 37 -65 37zM214 134
h23h558q32 0 53 21t21 53q0 20 -9 38q-20 37 -65 37h-581v-149z" />
    <glyph glyph-name="C" unicode="C" horiz-adv-x="1010" 
d="M395 700h281.5h281.5q9 0 9 -9v-116q0 -9 -9 -9h-563q-58 0 -108 -29t-79 -78.5t-29 -108.5q0 -89 63.5 -152.5t152.5 -63.5h563q9 0 9 -9v-116q0 -9 -9 -9h-563q-95 0 -175.5 47t-127.5 127.5t-47 175.5t47 175.5t127.5 127.5t175.5 47z" />
    <glyph glyph-name="D" unicode="D" horiz-adv-x="1046" 
d="M88 700h563q94 0 175 -47t128 -127.5t47 -175.5t-47 -175.5t-128 -127.5t-175 -47h-565q-7 0 -7 7v684q0 9 9 9zM213 566v-432h438q89 0 152.5 63.5t63.5 152.5t-63.5 152.5t-152.5 63.5h-438z" />
    <glyph glyph-name="E" unicode="E" horiz-adv-x="1022" 
d="M979 575q0 -9 -9 -9h-757v-149h566q9 0 9 -9v-116q0 -9 -9 -9h-566v-149h757q9 0 9 -9v-116q0 -9 -9 -9h-882q-9 0 -9 9v682q0 9 9 9h882q9 0 9 -9v-116z" />
    <glyph glyph-name="F" unicode="F" horiz-adv-x="977" 
d="M772 408v-116q0 -9 -9 -9h-566v-274q0 -9 -9 -9h-116q-9 0 -9 9v399q0 9 10 9h690q9 0 9 -9zM963 575q0 -9 -9 -9h-882q-9 0 -9 9v116q0 9 9 9h882q9 0 9 -9v-116z" />
    <glyph glyph-name="G" unicode="G" horiz-adv-x="1040" 
d="M395 700h281.5h281.5q9 0 9 -9v-116q0 -9 -9 -9h-563q-58 0 -108 -29t-79 -78.5t-29 -108.5q0 -89 63.5 -152.5t152.5 -63.5h438v274q0 9 9 9h116q9 0 9 -9v-401q0 -7 -7 -7h-565q-95 0 -175.5 47t-127.5 127.5t-47 175.5t47 175.5t127.5 127.5t175.5 47z" />
    <glyph glyph-name="H" unicode="H" horiz-adv-x="1058" 
d="M845 417v274q0 9 9 9h116q9 0 9 -9v-682q0 -9 -9 -9h-116q-9 0 -9 9v274h-632v-274q0 -9 -9 -9h-116q-9 0 -9 9v682q0 9 9 9h116q9 0 9 -9v-274h632z" />
    <glyph glyph-name="I" unicode="I" horiz-adv-x="292" 
d="M88 0q-9 0 -9 9v682q0 9 9 9h116q9 0 9 -9v-682q0 -9 -9 -9h-116z" />
    <glyph glyph-name="J" unicode="J" horiz-adv-x="657" 
d="M595 340q-3 -92 -50.5 -170.5t-127 -124t-172.5 -45.5h-215q-9 0 -9 9v116q0 9 9 9h215q89 0 152.5 63.5t63.5 152.5v341q0 9 9 9h116q9 0 9 -9v-341v-10z" />
    <glyph glyph-name="K" unicode="K" horiz-adv-x="996" 
d="M974 0h-151q-4 0 -7.5 1t-6.5 4l-4.5 4.5t-4.5 6.5t-4 6q-34 49 -97 139.5t-78 111.5l-7 10h-400v-274q0 -9 -9 -9h-116q-9 0 -9 9v682q0 9 9 9h116q9 0 9 -9v-274h400l7 10q16 23 79.5 112.5t97.5 138.5q2 2 4 5.5t3.5 5t3.5 4.5t4 4t5.5 2t6.5 1h151l-247 -350z" />
    <glyph glyph-name="L" unicode="L" horiz-adv-x="800" 
d="M88 0q-9 0 -9 9v682q0 9 9 9h116q9 0 9 -9v-557h557q9 0 9 -9v-116q0 -9 -9 -9h-682z" />
    <glyph glyph-name="M" unicode="M" horiz-adv-x="1316" 
d="M79 700h154q5 0 8.5 -1t6 -4t4 -4.5t4.5 -6.5t5 -6l397 -566l397 566q2 1 3.5 3.5t2.5 4.5t2.5 4t2.5 3t3 2.5t4 2.5t4.5 1.5t5.5 0.5h154v-9v-682q0 -9 -9 -9h-116q-9 0 -9 9v506l-346 -493q-15 -22 -26 -22h-146q-11 0 -26 22l-346 493v-506q0 -9 -9 -9h-116q-9 0 -9 9
v682v9z" />
    <glyph glyph-name="N" unicode="N" horiz-adv-x="1058" 
d="M849 2h-1v1l-635 519v-513q0 -9 -9 -9h-116q-9 0 -9 9v682q0 9 9 9h116q3 0 6 -3h1l634 -520v514q0 9 9 9h116q9 0 9 -9v-682q0 -9 -9 -9h-116q-3 0 -5 2z" />
    <glyph glyph-name="O" unicode="O" horiz-adv-x="1012" 
d="M395 700h222q94 0 175 -47t128 -127.5t47 -175.5t-47 -175.5t-128 -127.5t-175 -47h-222q-95 0 -175.5 47t-127.5 127.5t-47 175.5t47 175.5t127.5 127.5t175.5 47zM617 134q89 0 152.5 63.5t63.5 152.5t-63.5 152.5t-152.5 63.5h-222q-58 0 -108 -29t-79 -78.5
t-29 -108.5q0 -89 63.5 -152.5t152.5 -63.5h222z" />
    <glyph glyph-name="P" unicode="P" horiz-adv-x="1036" 
d="M204 0h-116q-9 0 -9 9v199.5v199.5v283q0 9 9 9h705q86 0 147.5 -61t61.5 -147q0 -43 -17 -81.5t-44.5 -66.5t-66.5 -44.5t-81 -16.5h-580v-274q0 -9 -9 -9zM213 566v-149h581q31 0 53 22t22 52.5t-22 52.5t-53 22h-581z" />
    <glyph glyph-name="Q" unicode="Q" horiz-adv-x="1012" 
d="M689 -156q3 -4 4 -8h-2h-138q-18 0 -24 4q-2 2 -6 7l-107 153h-21q-95 0 -175.5 47t-127.5 127.5t-47 175.5t47 175.5t127.5 127.5t175.5 47h222q94 0 175 -47t128 -127.5t47 -175.5q0 -116 -69.5 -209t-179.5 -126q-50 -15 -101 -15h-37zM395 134h222q15 0 30 2h1
q79 12 132 72.5t53 141.5q0 89 -63.5 152.5t-152.5 63.5h-222q-58 0 -108 -29t-79 -78.5t-29 -108.5q0 -89 63.5 -152.5t152.5 -63.5z" />
    <glyph glyph-name="R" unicode="R" horiz-adv-x="1045" 
d="M778 280l196 -280h-151q-4 0 -7.5 1t-6.5 4l-4.5 4.5t-4.5 6.5t-4 6q-26 37 -56 80t-64 92t-55 79l-7 10h-400v-274q0 -9 -9 -9h-116q-9 0 -9 9v199.5v199.5v283q0 9 9 9h705q57 0 105 -28t76 -76t28 -104q0 -40 -14.5 -76t-39.5 -63.5t-59.5 -46t-72.5 -22.5zM214 566
v-149h581q31 0 53 22t22 52.5t-22 52.5t-53 22h-581z" />
    <glyph glyph-name="S" unicode="S" horiz-adv-x="1029" 
d="M261 283q-56 0 -104 28t-76 76t-28 105q0 86 61.5 147t146.5 61h690q9 0 9 -9v-116q0 -9 -9 -9h-690q-31 0 -53 -22t-22 -52.5t22 -52.5t53 -22h506q86 0 147.5 -61.5t61.5 -147.5t-61.5 -147t-147.5 -61h-690q-9 0 -9 9v116q0 9 9 9h691q31 0 52.5 22t21.5 52.5
t-21.5 52.5t-52.5 22h-507z" />
    <glyph glyph-name="T" unicode="T" horiz-adv-x="965" 
d="M934 700q10 0 10 -9v-116q0 -9 -10 -9h-385v-557q0 -9 -9 -9h-115q-10 0 -10 9v557h-385q-9 0 -9 9v116q0 9 9 9h904z" />
    <glyph glyph-name="U" unicode="U" horiz-adv-x="1046" 
d="M984 350q0 -95 -47 -175.5t-128 -127.5t-175 -47h-222q-95 0 -175.5 47t-127.5 127.5t-47 175.5v341q0 9 9 9h116q9 0 9 -9v-341q0 -89 63.5 -152.5t152.5 -63.5h222q89 0 152.5 63.5t63.5 152.5v341q0 9 9 9h116q9 0 9 -9v-341z" />
    <glyph glyph-name="V" unicode="V" horiz-adv-x="1310" 
d="M80 700h151q4 0 7.5 -1t6.5 -4l4.5 -4.5t4.5 -6.5t4 -6l397 -566l397 566q2 1 5 6t4.5 6.5l4.5 4.5t6 4t8 1h150l-476 -678q-15 -22 -26 -22h-145q-11 0 -27 22z" />
    <glyph glyph-name="W" unicode="W" horiz-adv-x="2169" 
d="M8 700h151q3 0 5.5 -0.5t4.5 -2l4 -3t3.5 -3.5l3 -4t3 -5t3.5 -4l397 -566l397 566q16 22 22 22h165q6 0 21 -22l398 -566l397 566q1 1 4 6t4.5 6.5l4.5 4.5t6.5 4t7.5 1h151l-476 -678q-16 -22 -27 -22h-145q-11 0 -26 22l-403 573l-402 -573q-15 -22 -26 -22h-145
q-11 0 -27 22z" />
    <glyph glyph-name="X" unicode="X" horiz-adv-x="1168" 
d="M1153 0h-101h-101q-7 1 -42 27l-325 244l-325 -244q-35 -26 -43 -27h-202l466 349l-468 351h208q3 -1 10.5 -6.5t16 -12.5t10.5 -8l327 -246l327 246q2 1 10.5 8t15.5 12.5t11 6.5h208l-468 -351z" />
    <glyph glyph-name="Y" unicode="Y" horiz-adv-x="1148" 
d="M1146 700l-505 -380v-311q0 -9 -10 -9h-115q-9 0 -9 9v313l-505 378h208q3 -1 10.5 -6.5t16 -12.5t10.5 -8l327 -246l327 246q2 1 6 4t8 6.5t8.5 7.5t8.5 6.5t6 2.5h208z" />
    <glyph glyph-name="Z" unicode="Z" horiz-adv-x="981" 
d="M908 552q-79 -54 -557 -376l-62 -42h638q9 0 9 -9v-116q0 -9 -9 -9h-874q-9 0 -9 9v116q0 4 4 7l6 4l637 430h-638q-9 0 -9 9v116q0 9 9 9h874q9 0 9 -9v-116q0 -4 -4 -7z" />
    <glyph glyph-name="bracketleft" unicode="[" horiz-adv-x="294" 
d="M89 -169q-9 0 -9 14v1011q0 13 9 13h204q12 0 12 -9v-115q0 -10 -12 -10h-79v-770h79q12 0 12 -9v-116q0 -9 -12 -9h-204z" />
    <glyph glyph-name="backslash" unicode="\" horiz-adv-x="434" 
d="M177 687q52 -166 106.5 -336.5t106.5 -336.5q2 -5 -1.5 -9.5t-7.5 -4.5h-116q-5 0 -9 14q-52 166 -106.5 336.5t-106.5 336.5q-1 5 2.5 9t7.5 4h115q5 0 9 -13z" />
    <glyph glyph-name="bracketright" unicode="]" horiz-adv-x="294" 
d="M214 -155q0 -14 -9 -14h-204q-12 0 -12 9v116q0 9 12 9h79v770h-79q-12 0 -12 10v115q0 9 12 9h204q9 0 9 -13v-1011z" />
    <glyph glyph-name="asciicircum" unicode="^" horiz-adv-x="346" 
d="M105 494h-73l93 195q7 11 13 11h70q6 0 13 -11l93 -196h-73q-2 0 -4 1t-3.5 2t-2 2t-2 3t-2.5 3l-54 142l-55 -142l-1.5 -2.5t-2.5 -3.5l-2 -2t-3 -1.5t-4 -0.5z" />
    <glyph glyph-name="underscore" unicode="_" horiz-adv-x="653" 
d="M619 9q0 -9 -8 -9h-569q-8 0 -8 9v116q0 9 8 9h569q8 0 8 -9v-116z" />
    <glyph glyph-name="grave" unicode="`" horiz-adv-x="256" 
d="M34 684q-4 7 -2 11.5t6 4.5h96q6 0 9 -9l78 -184q1 -2 -0.5 -4.5t-4 -3.5t-4.5 -1h-24q-8 0 -15 9z" />
    <glyph glyph-name="a" unicode="a" 
d="M622 700q94 0 175 -47t128 -127.5t47 -175.5t-47 -175.5t-128 -127.5t-175 -47h-364q-86 0 -147 61t-61 147t61 147.5t147 61.5h573l-18 33q-19 36 -48.5 62t-66 40t-76.5 14h-532q-10 0 -10 9v116q0 9 10 9h532zM813 250l18 33h-573q-30 0 -52 -22t-22 -52.5t22 -52.5
t52 -22h364q60 0 111.5 31t79.5 85z" />
    <glyph glyph-name="b" unicode="b" horiz-adv-x="1020" 
d="M777 417q86 0 147.5 -61.5t61.5 -147.5t-61.5 -147t-147.5 -61h-2h-363q-93 0 -173.5 46t-127.5 125.5t-49 172.5v64v283q0 9 9 9h116q9 0 9 -9v-274h581zM775 134q31 0 53 22t22 52.5t-22 52.5t-53 22h-572l18 -33q18 -36 47.5 -62t66.5 -40t77 -14h363z" />
    <glyph glyph-name="c" unicode="c" horiz-adv-x="1010" 
d="M395 566q-89 0 -152.5 -63.5t-63.5 -152.5t63.5 -152.5t152.5 -63.5h563q9 0 9 -9v-116q0 -9 -9 -9h-563q-95 0 -175.5 47t-127.5 127.5t-47 175.5t47 175.5t127.5 127.5t175.5 47h563q9 0 9 -9v-116q0 -9 -9 -9h-563z" />
    <glyph glyph-name="d" unicode="d" horiz-adv-x="1020" 
d="M957 408v-64q-1 -93 -48.5 -172.5t-127.5 -125.5t-174 -46h-365q-86 0 -147 61t-61 147t61 147.5t147 61.5h582v274q0 9 9 9h115q9 0 9 -9v-283zM799 250l17 33h-572q-31 0 -53 -22t-22 -52.5t22 -52.5t53 -22h363q61 0 112.5 31t79.5 85z" />
    <glyph glyph-name="e" unicode="e" 
d="M927 134q9 0 9 -9v-116q0 -9 -9 -9h-532q-95 0 -175.5 47t-127.5 127.5t-47 175.5t47 175.5t127.5 127.5t175.5 47h363q86 0 147.5 -61.5t61.5 -147t-61.5 -147t-147.5 -61.5h-572l18 -33q11 -22 26.5 -40t34 -32t39.5 -24t44 -15t47 -5h532zM204 450l-18 -33h572
q31 0 53 22t22 52.5t-22 52.5t-53 22h-363q-60 0 -111.5 -31t-79.5 -85z" />
    <glyph glyph-name="f" unicode="f" horiz-adv-x="971" 
d="M412 566q-60 0 -111.5 -31t-79.5 -85l-18 -33h720v-134h-727v-274q0 -9 -9 -9h-116q-9 0 -9 9v283v64q2 93 49 172.5t127.5 125.5t173.5 46h511v-134h-511z" />
    <glyph glyph-name="g" unicode="g" 
d="M758 417q86 0 147.5 -61.5t61.5 -147.5t-61.5 -147t-147.5 -61h-363q-95 0 -175.5 47t-127.5 127.5t-47 175.5t47 175.5t127.5 127.5t175.5 47h532q9 0 9 -9v-116q0 -9 -9 -9h-532q-60 0 -111.5 -31t-79.5 -85l-18 -33h572zM758 134q31 0 53 22t22 52.5t-22 52.5t-53 22
h-572l18 -33q28 -54 79.5 -85t111.5 -31h363z" />
    <glyph glyph-name="h" unicode="h" horiz-adv-x="1046" 
d="M1003 212v-29v-174q0 -9 -9 -9h-115q-9 0 -9 9v199q0 32 -21.5 53.5t-53.5 21.5h-581v-283h-125q-2 0 -4 1h-1l-3 3v1q-1 2 -1 4v682q0 9 9 9h116q9 0 9 -9v-274h581q85 0 146.5 -60t61.5 -145z" />
    <glyph glyph-name="i" unicode="i" horiz-adv-x="258" 
d="M187 417q9 0 9 -9v-399q0 -9 -9 -9h-116q-9 0 -9 9v399q0 9 9 9h116zM187 700q9 0 9 -9v-116q0 -9 -9 -9h-116q-9 0 -9 9v116q0 9 9 9h116z" />
    <glyph glyph-name="j" unicode="j" horiz-adv-x="640" 
d="M586 417q9 0 9 -9v-58v-10q-3 -92 -50.5 -170.5t-127 -124t-172.5 -45.5h-215q-9 0 -9 9v116q0 9 9 9h215q89 0 152.5 63.5t63.5 152.5v58q0 9 9 9h116zM586 700q9 0 9 -9v-116q0 -9 -9 -9h-116q-9 0 -9 9v116q0 9 9 9h116z" />
    <glyph glyph-name="k" unicode="k" horiz-adv-x="1051" 
d="M1003 212v-29v-174q0 -9 -9 -9h-115q-9 0 -9 9v199q0 32 -21.5 53.5t-53.5 21.5h-581v-283h-125q-2 0 -4 1h-1l-3 3v1q-1 2 -1 4v682q0 9 9 9h116q9 0 9 -9v-274h351q89 0 152.5 63.5t63.5 152.5v58q0 9 9 9h115q9 0 9 -9v-58v-10q-2 -100 -59 -184l-16 -25l27 -10
q40 -14 71.5 -43t48.5 -68t17 -81z" />
    <glyph glyph-name="l" unicode="l" horiz-adv-x="292" 
d="M204 700q9 0 9 -9v-682q0 -9 -9 -9h-116q-9 0 -9 9v682q0 9 9 9h116z" />
    <glyph glyph-name="m" unicode="m" horiz-adv-x="1529" 
d="M1117 700q95 0 175.5 -47t127.5 -127.5t47 -175.5v-341q0 -9 -9 -9h-116q-9 0 -9 9v341q0 89 -63.5 152.5t-152.5 63.5h-34h-24h-11q-90 0 -153.5 -63.5t-63.5 -152.5v-341q0 -9 -9 -9h-115q-9 0 -9 9v341q0 89 -63.5 152.5t-153.5 63.5h-34h-24h-11q-89 0 -152.5 -63.5
t-63.5 -152.5v-341q0 -9 -9 -9h-116q-9 0 -9 9v341q0 95 47 175.5t127.5 127.5t175.5 47h34h24h11q51 0 99.5 -14.5t91 -42t75.5 -66.5l17 -20l18 20q50 59 119.5 91t146.5 32h34h24h11z" />
    <glyph glyph-name="n" unicode="n" horiz-adv-x="1046" 
d="M634 700q94 0 175 -47t128 -127.5t47 -175.5v-341q0 -9 -9 -9h-116q-9 0 -9 9v341q0 89 -63.5 152.5t-152.5 63.5h-222q-89 0 -152.5 -63.5t-63.5 -152.5v-341q0 -9 -9 -9h-116q-9 0 -9 9v341q0 95 47 175.5t127.5 127.5t175.5 47h222z" />
    <glyph glyph-name="o" unicode="o" horiz-adv-x="1010" 
d="M44 350q0 115 68.5 199.5t170.5 122.5t221.5 38t222 -38t171 -122.5t68.5 -199.5t-68.5 -199.5t-171 -122.5t-222 -38t-221.5 38t-170.5 122.5t-68.5 199.5zM178 350q0 -49 22.5 -90t60 -67.5t86.5 -45t103.5 -22.5t108.5 0t103 22.5t87 45t60.5 67.5t22.5 90
q0 55 -28 99.5t-74 71.5t-105 42t-120 15t-120 -15t-105 -42t-74 -71.5t-28 -99.5z" />
    <glyph glyph-name="p" unicode="p" horiz-adv-x="1020" 
d="M777 700q86 0 147.5 -61.5t61.5 -147t-61.5 -147t-147.5 -61.5h-581v-274q0 -9 -9 -9h-116q-9 0 -9 9v283v64q1 70 29.5 133.5t75.5 109.5t111 73.5t134 27.5h365zM775 417q21 0 38 10t27 27t10 38q0 30 -22 52t-53 22h-363q-60 0 -111.5 -31t-79.5 -85l-18 -33h572z" />
    <glyph glyph-name="q" unicode="q" horiz-adv-x="1020" 
d="M957 356v-64v-283q0 -9 -9 -9h-115q-9 0 -9 9v274h-582q-86 0 -147 61.5t-61 147.5t61 147t147 61h2h363q94 0 174 -46t127.5 -125.5t48.5 -172.5zM244 417h572l-17 33q-19 36 -48.5 62t-66.5 40t-77 14h-363q-31 0 -53 -22t-22 -52.5t22 -52.5t53 -22z" />
    <glyph glyph-name="r" unicode="r" horiz-adv-x="928" 
d="M897 700q9 0 9 -9v-116q0 -9 -9 -9h-485q-89 0 -152.5 -63.5t-63.5 -152.5v-341q0 -9 -9 -9h-116q-9 0 -9 9v341v10q3 92 50.5 170.5t127 124t172.5 45.5h485z" />
    <glyph glyph-name="s" unicode="s" horiz-adv-x="1030" 
d="M187 492q0 -36 27 -55t73 -23.5t105 -2.5t124.5 6t131 5.5t124.5 -8t105 -30.5t73 -65.5t27 -110.5q0 -86 -61.5 -147t-147.5 -61h-690q-9 0 -9 9v116q0 9 9 9h691q31 0 52.5 22t21.5 52q0 36 -27 55t-72.5 23.5t-104.5 2.5t-124.5 -6t-131 -5.5t-125 8t-105 30.5
t-72.5 65.5t-27 110.5q0 85 61 146.5t147 61.5h690q9 0 9 -9v-116q0 -9 -9 -9h-690q-31 0 -53 -22t-22 -52z" />
    <glyph glyph-name="t" unicode="t" horiz-adv-x="650" 
d="M619 134q9 0 9 -9v-116q0 -9 -9 -9h-207q-93 0 -173.5 46t-127.5 125.5t-49 172.5v64v283q0 9 9 9h116q9 0 9 -9v-274h242q10 0 10 -9v-116q0 -9 -10 -9h-235l18 -33q28 -54 79.5 -85t111.5 -31h207z" />
    <glyph glyph-name="u" unicode="u" horiz-adv-x="1046" 
d="M975 700q9 0 9 -9v-341q0 -95 -47 -175.5t-128 -127.5t-175 -47h-222q-95 0 -175.5 47t-127.5 127.5t-47 175.5v341q0 9 9 9h116q9 0 9 -9v-341q0 -89 63.5 -152.5t152.5 -63.5h222q89 0 152.5 63.5t63.5 152.5v341q0 9 9 9h116z" />
    <glyph glyph-name="v" unicode="v" horiz-adv-x="1167" 
d="M1008 700h150l-476 -678q-11 -15 -41.5 -22.5t-57.5 -7.5t-57.5 7.5t-41.5 22.5l-476 678h151q4 0 7.5 -1t6.5 -4l4.5 -4.5t4.5 -6.5t4 -6l397 -566l397 566q2 1 5 6t4.5 6.5l4.5 4.5t6 4t8 1z" />
    <glyph glyph-name="w" unicode="w" horiz-adv-x="1529" 
d="M1458 700q9 0 9 -9v-341q0 -95 -47 -175.5t-127.5 -127.5t-175.5 -47h-34h-24h-11q-77 0 -146.5 32t-119.5 91l-18 20l-17 -20q-50 -59 -119.5 -91t-146.5 -32h-34h-24h-11q-95 0 -175.5 47t-127.5 127.5t-47 175.5v341q0 9 9 9h116q9 0 9 -9v-341q0 -89 63.5 -152.5
t152.5 -63.5h34h24h11q90 0 153.5 63.5t63.5 152.5v341q0 9 9 9h115q9 0 9 -9v-341q0 -89 63.5 -152.5t153.5 -63.5h34h24h11q89 0 152.5 63.5t63.5 152.5v341q0 9 9 9h116z" />
    <glyph glyph-name="x" unicode="x" horiz-adv-x="1168" 
d="M1156 700l-468 -351l465 -349h-202q-7 1 -42 27l-325 244l-325 -244q-35 -26 -43 -27h-202l466 349l-468 351h208q2 -1 7.5 -4.5t10.5 -8t11 -9t8 -5.5l327 -246l327 246q2 1 10.5 8t15.5 12.5t11 6.5h208z" />
    <glyph glyph-name="y" unicode="y" horiz-adv-x="1034" 
d="M962 700q9 0 9 -9v-341v-10q-2 -92 -49.5 -170.5t-127.5 -124t-173 -45.5h-485q-9 0 -9 9v116q0 9 9 9h485q61 0 112.5 31t79.5 85l17 33h-574q-85 0 -146.5 60t-61.5 145v29v174q0 9 9 9h116q9 0 9 -9v-199q0 -32 21.5 -53.5t52.5 -21.5h582v274q0 9 9 9h115z" />
    <glyph glyph-name="z" unicode="z" horiz-adv-x="981" 
d="M936 575q0 -4 -4 -7l-24 -16l-557 -376l-62 -42h638q9 0 9 -9v-116q0 -9 -9 -9h-874q-9 0 -9 9v116q0 4 4 7l6 4l637 430h-638q-9 0 -9 9v116q0 9 9 9h874q9 0 9 -9v-116z" />
    <glyph glyph-name="braceleft" unicode="{" horiz-adv-x="359" 
d="M279 225v-118.5v-118.5q0 -17 3 -20t20 -3h56q12 0 12 -9v-116q0 -9 -12 -9h-88h-82q-18 0 -30.5 12.5t-12.5 30.5v87v287q0 18 -13.5 31.5t-31.5 13.5h-46v114h46q18 0 31.5 13.5t13.5 31.5v374q0 18 12.5 30.5t30.5 12.5h170q12 0 12 -9v-115q0 -10 -12 -10h-56
q-17 0 -20 -2.5t-3 -20.5v-331q0 -17 -10 -31q10 -14 10 -31v-94z" />
    <glyph glyph-name="verticalbar" unicode="|" horiz-adv-x="294" 
d="M89 0q-9 0 -9 9v682q0 9 9 9h116q9 0 9 -9v-682q0 -9 -9 -9h-116z" />
    <glyph glyph-name="braceright" unicode="}" horiz-adv-x="359" 
d="M80 -12v237v94q0 17 10 31q-10 14 -10 31v331q0 18 -3 20.5t-20 2.5h-56q-12 0 -12 10v115q0 9 12 9h170q18 0 30.5 -12.5t12.5 -30.5v-374q0 -18 13.5 -31.5t31.5 -13.5h46v-114h-46q-18 0 -31.5 -13.5t-13.5 -31.5v-287v-87q0 -18 -12.5 -30.5t-30.5 -12.5h-82h-88
q-12 0 -12 9v116q0 9 12 9h56q17 0 20 3t3 20z" />
    <glyph glyph-name="asciitilde" unicode="~" horiz-adv-x="788" 
d="M744 298q0 -7 -9 -15q-31 -27 -62 -42.5t-63.5 -19t-59.5 -2t-61.5 12.5t-57.5 20.5t-58 26.5q-33 16 -49 23t-46 18.5t-47.5 14.5t-43.5 5t-46 -4.5t-43 -19t-45 -33.5q-2 -1 -4 -1.5t-3.5 2.5t-1.5 8v109q0 9 9 16q50 37 100 43.5t93.5 -8.5t88.5 -39t91 -45t93 -30.5
t103 9t113 70.5q3 3 6 2t3 -5v-116z" />
    <glyph glyph-name="nonbreakingspace" unicode="&#xa0;" horiz-adv-x="528" 
 />
    <glyph glyph-name="exclamdown" unicode="&#xa1;" horiz-adv-x="286" 
d="M201 566h-116q-9 0 -9 10v115q0 9 9 9h116q9 0 9 -9v-115q0 -10 -9 -10zM210 9q0 -9 -9 -9h-116q-9 0 -9 9v485q0 9 9 9h116q9 0 9 -9v-485z" />
    <glyph glyph-name="cent" unicode="&#xa2;" horiz-adv-x="848" 
d="M60 350q0 95 47 175.5t127.5 127.5t175.5 47h153l46 148q4 14 9 14h116q4 0 7.5 -4.5t1.5 -9.5l-46 -148h82q9 0 9 -9v-115q0 -10 -9 -10h-124l-135 -432h259q9 0 9 -9v-116q0 -9 -9 -9h-300l-47 -148q-4 -13 -9 -13h-115q-4 0 -7.5 4t-1.5 9l48 154q-123 23 -205 120
t-82 224zM387 135l134 431h-111q-89 0 -152.5 -63.5t-63.5 -152.5q0 -83 55.5 -144.5t137.5 -70.5z" />
    <glyph glyph-name="yen" unicode="&#xa5;" horiz-adv-x="1183" 
d="M1163 700l-394 -296h107q7 0 7 -9v-115q0 -9 -7 -9h-218v-29h218q7 0 7 -9v-115q0 -10 -7 -10h-218v-99q0 -9 -10 -9h-115q-9 0 -9 9v99h-218q-8 0 -8 10v115q0 9 8 9h218v29h-218q-8 0 -8 9v115q0 9 8 9h108l-395 296h208q3 -1 10.5 -6.5t16 -12.5t10.5 -8l327 -246
l327 246q2 1 10.5 8t15.5 12.5t11 6.5h208z" />
    <glyph glyph-name="softhyphen" unicode="&#xad;" horiz-adv-x="0" 
 />
    <glyph glyph-name="questiondown" unicode="&#xbf;" horiz-adv-x="838" 
d="M260 417h200q31 0 53 22t22 53q0 5 -1 11h134v-11q0 -86 -61.5 -147.5t-146.5 -61.5h-200q-31 0 -53 -22t-22 -52.5t22 -52.5t53 -22h325q31 0 53 22t22 53h133q0 -86 -61 -147.5t-147 -61.5h-325q-86 0 -147 61.5t-61 147.5q0 42 16.5 80.5t44.5 66.5t66.5 44.5
t80.5 16.5zM669 576q0 -10 -10 -10h-115q-9 0 -9 10v115q0 9 9 9h115q10 0 10 -9v-115z" />
    <glyph glyph-name="Agrave" unicode="&#xc0;" horiz-adv-x="1167" 
d="M682 678l476 -678h-150q-4 0 -7 1t-5 2t-4.5 4t-4 4.5t-3.5 5t-4 5.5l-84 121h-625l-85 -121q-1 -1 -4 -6t-4.5 -6.5l-4.5 -4.5t-6.5 -4t-7.5 -1h-151l476 678q16 22 27 22h145q11 0 26 -22zM495 968h96q6 0 9 -9l78 -184q1 -3 -2 -6t-7 -3h-24q-8 0 -15 9l-139 178
q-4 6 -2 10.5t6 4.5zM365 277h437l-219 311l-19 -26z" />
    <glyph glyph-name="Aacute" unicode="&#xc1;" horiz-adv-x="1167" 
d="M682 678l476 -678h-150q-4 0 -7 1t-5 2t-4.5 4t-4 4.5t-3.5 5t-4 5.5l-84 121h-625l-85 -121q-1 -1 -4 -6t-4.5 -6.5l-4.5 -4.5t-6.5 -4t-7.5 -1h-151l476 678q16 22 27 22h145q11 0 26 -22zM575 968h96q5 0 7 -4.5t-3 -10.5l-138 -178q-7 -9 -16 -9h-24q-4 0 -7 3t-2 6
l78 184q4 9 9 9zM365 277h437l-219 311l-19 -26z" />
    <glyph glyph-name="Acircumflex" unicode="&#xc2;" horiz-adv-x="1167" 
d="M682 678l476 -678h-150q-4 0 -7 1t-5 2t-4.5 4t-4 4.5t-3.5 5t-4 5.5l-84 121h-625l-85 -121q-1 -1 -4 -6t-4.5 -6.5l-4.5 -4.5t-6.5 -4t-7.5 -1h-151l476 678q16 22 27 22h145q11 0 26 -22zM442 764l93 196q8 11 13 11h70q6 0 13 -11l93 -196h-73q-2 0 -4 0.5t-3 2t-2 2
t-2.5 3t-1.5 3.5l-55 141l-54 -141q-1 -1 -2.5 -3t-2 -3t-2 -2.5t-3.5 -2t-4 -0.5h-73zM365 277h437l-219 311l-19 -26z" />
    <glyph glyph-name="Atilde" unicode="&#xc3;" horiz-adv-x="1167" 
d="M682 678l476 -678h-150q-4 0 -7 1t-5 2t-4.5 4t-4 4.5t-3.5 5t-4 5.5l-84 121h-625l-85 -121q-1 -1 -4 -6t-4.5 -6.5l-4.5 -4.5t-6.5 -4t-7.5 -1h-151l476 678q16 22 27 22h145q11 0 26 -22zM777 912v-72q0 -5 -6 -10q-36 -26 -69 -34.5t-59 -2t-51 18.5t-48 25t-46 20.5
t-49 1.5t-53 -29q-2 -2 -4.5 -0.5t-2.5 6.5v68q0 6 7 10q34 23 64 27.5t52.5 -4t44 -22.5t43.5 -27t45.5 -18.5t55.5 4.5t70 40q2 1 4 0.5t2 -2.5zM365 277h437l-219 311l-19 -26z" />
    <glyph glyph-name="Adieresis" unicode="&#xc4;" horiz-adv-x="1167" 
d="M682 678l476 -678h-150q-4 0 -7 1t-5 2t-4.5 4t-4 4.5t-3.5 5t-4 5.5l-84 121h-625l-85 -121q-1 -1 -4 -6t-4.5 -6.5l-4.5 -4.5t-6.5 -4t-7.5 -1h-151l476 678q16 22 27 22h145q11 0 26 -22zM412 934h116q9 0 9 -9v-115q0 -10 -9 -10h-116q-9 0 -9 10v115q0 9 9 9z
M639 934h115q9 0 9 -9v-115q0 -10 -9 -10h-115q-10 0 -10 10v115q0 9 10 9zM365 277h437l-219 311l-19 -26z" />
    <glyph glyph-name="Aring" unicode="&#xc5;" horiz-adv-x="1167" 
d="M682 678l476 -678h-150q-5 0 -8 1t-6 4l-4.5 4.5t-4.5 6.5t-5 6l-84 121h-625l-85 -121q-1 -1 -4 -6t-4.5 -6.5l-4.5 -4.5t-6.5 -4t-7.5 -1h-151l476 678q16 22 27 22h145q11 0 26 -22zM576.5 992q51.5 0 88.5 -36.5t37 -88t-37 -88.5t-88.5 -37t-88.5 37t-37 88.5t37 88
t88.5 36.5zM608.5 899q-13.5 13 -32 13t-31.5 -13t-13 -31.5t13 -32t31.5 -13.5t32 13.5t13.5 32t-13.5 31.5zM365 277h437l-219 311l-19 -26z" />
    <glyph glyph-name="AE" unicode="&#xc6;" horiz-adv-x="1945" 
d="M1001 224v467q0 9 9 9h882q9 0 9 -9v-116q0 -9 -9 -9h-757v-149h566q9 0 9 -9v-116q0 -9 -9 -9h-566v-149h757q9 0 9 -9v-116q0 -9 -9 -9h-884q-4 0 -7 1t-5 2t-4.5 4t-4 4.5t-3.5 5t-4 5.5l-84 121h-625l-85 -121q-1 -1 -4 -6t-4.5 -6.5l-4.5 -4.5t-6.5 -4t-7.5 -1h-151
l476 678q16 22 27 22h145q11 0 26 -22zM365 277h437l-219 311l-19 -26z" />
    <glyph glyph-name="Ccedilla" unicode="&#xc7;" horiz-adv-x="1010" 
d="M395 700h281.5h281.5q9 0 9 -9v-116q0 -9 -9 -9h-563q-89 0 -152.5 -63.5t-63.5 -152.5t63.5 -152.5t152.5 -63.5h563q9 0 9 -9v-116q0 -9 -9 -9h-406l-27 -50q43 -18 64 -54q15 -27 14 -58q-1 -30 -17 -56q-21 -35 -62 -56.5t-98 -21.5v96q59 0 78 31q3 6 3 11q0 3 -1 6
q-11 18 -55 18l-42 71l34 63h-48q-95 0 -175.5 47t-127.5 127.5t-47 175.5t47 175.5t127.5 127.5t175.5 47z" />
    <glyph glyph-name="Egrave" unicode="&#xc8;" horiz-adv-x="1023" 
d="M980 691v-116q0 -9 -9 -9h-757v-149h566q9 0 9 -9v-116q0 -9 -9 -9h-566v-149h757q9 0 9 -9v-116q0 -9 -9 -9h-882q-9 0 -9 9v682q0 9 9 9h882q9 0 9 -9zM438 953q-5 6 -3 10.5t7 4.5h96q5 0 9 -9l78 -184q0 -1 -0.5 -3t-2 -3t-3.5 -2t-3 -1h-24q-9 0 -16 9z" />
    <glyph glyph-name="Eacute" unicode="&#xc9;" horiz-adv-x="1023" 
d="M980 691v-116q0 -9 -9 -9h-757v-149h566q9 0 9 -9v-116q0 -9 -9 -9h-566v-149h757q9 0 9 -9v-116q0 -9 -9 -9h-882q-9 0 -9 9v682q0 9 9 9h882q9 0 9 -9zM618 968q4 0 6 -4.5t-2 -10.5l-139 -178q-7 -9 -15 -9h-24q-4 0 -7 3t-2 6l78 184q3 9 9 9h96z" />
    <glyph glyph-name="Ecircumflex" unicode="&#xca;" horiz-adv-x="1023" 
d="M980 691v-116q0 -9 -9 -9h-757v-149h566q9 0 9 -9v-116q0 -9 -9 -9h-566v-149h757q9 0 9 -9v-116q0 -9 -9 -9h-882q-9 0 -9 9v682q0 9 9 9h882q9 0 9 -9zM462 764h-73l93 196q7 11 13 11h70q6 0 13 -11l93 -196h-73q-7 1 -14 11l-54 141l-55 -141q0 -1 -1 -3
q-6 -8 -12 -8z" />
    <glyph glyph-name="Edieresis" unicode="&#xcb;" horiz-adv-x="1023" 
d="M980 691v-116q0 -9 -9 -9h-757v-149h566q9 0 9 -9v-116q0 -9 -9 -9h-566v-149h757q9 0 9 -9v-116q0 -9 -9 -9h-882q-9 0 -9 9v682q0 9 9 9h882q9 0 9 -9zM359 934h115q10 0 10 -9v-115q0 -10 -10 -10h-115q-9 0 -9 10v115q0 9 9 9zM576 925q0 9 9 9h116q9 0 9 -9v-115
q0 -10 -9 -10h-116q-9 0 -9 10v115z" />
    <glyph glyph-name="Igrave" unicode="&#xcc;" horiz-adv-x="293" 
d="M204 0h-116q-9 0 -9 9v682q0 9 9 9h116q9 0 9 -9v-682q0 -9 -9 -9zM54 953q-4 6 -2 10.5t6 4.5h96q6 0 9 -9l78 -184q1 -3 -2 -6t-7 -3h-24q-8 0 -15 9z" />
    <glyph glyph-name="Iacute" unicode="&#xcd;" horiz-adv-x="293" 
d="M204 0h-116q-9 0 -9 9v682q0 9 9 9h116q9 0 9 -9v-682q0 -9 -9 -9zM234 968q5 0 7 -4.5t-3 -10.5l-138 -178q-7 -9 -16 -9h-24q-4 0 -7 3t-2 6l78 184q4 9 9 9h96z" />
    <glyph glyph-name="Icircumflex" unicode="&#xce;" horiz-adv-x="293" 
d="M205 0h-116q-9 0 -9 9v682q0 9 9 9h116q9 0 9 -9v-682q0 -9 -9 -9zM79 764h-73l93 196q7 11 13 11h70q6 0 13 -11l93 -196h-73q-2 0 -4 0.5t-3.5 2l-2 2t-2 3t-2.5 3.5l-54 141l-55 -141q0 -1 -1 -3q-6 -8 -12 -8z" />
    <glyph glyph-name="Idieresis" unicode="&#xcf;" horiz-adv-x="293" 
d="M204 0h-116q-9 0 -9 9v682q0 9 9 9h116q9 0 9 -9v-682q0 -9 -9 -9zM-25 934h116q9 0 9 -9v-115q0 -10 -9 -10h-116q-9 0 -9 10v115q0 9 9 9zM192 925q0 9 10 9h115q9 0 9 -9v-115q0 -10 -9 -10h-115q-10 0 -10 10v115z" />
    <glyph glyph-name="Eth" unicode="&#xd0;" horiz-adv-x="1124" 
d="M166 700h281.5h281.5q95 0 175.5 -47t127.5 -127.5t47 -175.5q0 -71 -28 -135.5t-75 -111.5t-111.5 -75t-135.5 -28h-565q-7 0 -7 7v276h-127v134h127v274q0 9 9 9zM291 417h137v-134h-137v-149h438q89 0 152.5 63.5t63.5 152.5t-63.5 152.5t-152.5 63.5h-438v-149z" />
    <glyph glyph-name="Ntilde" unicode="&#xd1;" horiz-adv-x="1060" 
d="M855 0q-3 0 -5 2h-1v1l-635 519v-513q0 -9 -9 -9h-116q-9 0 -9 9v682q0 9 9 9h116q3 0 6 -3h1l634 -520v514q0 9 9 9h116q9 0 9 -9v-682q0 -9 -9 -9h-116zM724 840q0 -5 -7 -10q-35 -26 -68 -34.5t-59 -2t-51 18.5t-48.5 25t-46 20.5t-49 1.5t-53.5 -29q-2 -2 -4 -0.5
t-2 6.5v68q0 6 6 10q35 23 65 27.5t52.5 -4t44 -22.5t43 -27t45.5 -18.5t56 4.5t69 40q2 1 4.5 0.5t2.5 -2.5v-72z" />
    <glyph glyph-name="Ograve" unicode="&#xd2;" horiz-adv-x="1012" 
d="M395 700h222q94 0 175 -47t128 -127.5t47 -175.5t-47 -175.5t-128 -127.5t-175 -47h-222q-95 0 -175.5 47t-127.5 127.5t-47 175.5t47 175.5t127.5 127.5t175.5 47zM418 968h96q5 0 9 -9l78 -184q1 -3 -2 -6t-7 -3h-24q-9 0 -16 9l-138 178q-5 6 -3 10.5t7 4.5zM617 134
q89 0 152.5 63.5t63.5 152.5t-63.5 152.5t-152.5 63.5h-222q-89 0 -152.5 -63.5t-63.5 -152.5t63.5 -152.5t152.5 -63.5h222z" />
    <glyph glyph-name="Oacute" unicode="&#xd3;" horiz-adv-x="1012" 
d="M395 700h222q94 0 175 -47t128 -127.5t47 -175.5t-47 -175.5t-128 -127.5t-175 -47h-222q-95 0 -175.5 47t-127.5 127.5t-47 175.5t47 175.5t127.5 127.5t175.5 47zM498 968h96q4 0 6 -4.5t-2 -10.5l-139 -178q-7 -9 -15 -9h-24q-4 0 -7 3t-2 6l78 184q3 9 9 9zM617 134
q89 0 152.5 63.5t63.5 152.5t-63.5 152.5t-152.5 63.5h-222q-89 0 -152.5 -63.5t-63.5 -152.5t63.5 -152.5t152.5 -63.5h222z" />
    <glyph glyph-name="Ocircumflex" unicode="&#xd4;" horiz-adv-x="1012" 
d="M395 700h222q94 0 175 -47t128 -127.5t47 -175.5t-47 -175.5t-128 -127.5t-175 -47h-222q-95 0 -175.5 47t-127.5 127.5t-47 175.5t47 175.5t127.5 127.5t175.5 47zM365 764l93 196q7 11 13 11h70q5 0 13 -11l93 -196h-73q-3 0 -4.5 0.5t-3 2l-2 2t-2 3t-2.5 3.5l-54 141
l-55 -141q0 -1 -1.5 -3t-2.5 -3t-2 -2.5t-3 -2t-4 -0.5h-73zM617 134q89 0 152.5 63.5t63.5 152.5t-63.5 152.5t-152.5 63.5h-222q-89 0 -152.5 -63.5t-63.5 -152.5t63.5 -152.5t152.5 -63.5h222z" />
    <glyph glyph-name="Otilde" unicode="&#xd5;" horiz-adv-x="1012" 
d="M395 700h222q94 0 175 -47t128 -127.5t47 -175.5t-47 -175.5t-128 -127.5t-175 -47h-222q-95 0 -175.5 47t-127.5 127.5t-47 175.5t47 175.5t127.5 127.5t175.5 47zM700 912v-72q0 -5 -7 -10q-35 -26 -68 -34.5t-59 -2t-51 18.5t-48.5 25t-46 20.5t-49 1.5t-53.5 -29
q-2 -2 -4 -0.5t-2 6.5v68q0 6 6 10q35 23 65 27.5t52.5 -4t44 -22.5t43 -27t45.5 -18.5t56 4.5t69 40q2 1 4.5 0.5t2.5 -2.5zM617 134q89 0 152.5 63.5t63.5 152.5t-63.5 152.5t-152.5 63.5h-222q-89 0 -152.5 -63.5t-63.5 -152.5t63.5 -152.5t152.5 -63.5h222z" />
    <glyph glyph-name="Odieresis" unicode="&#xd6;" horiz-adv-x="1012" 
d="M395 700h222q94 0 175 -47t128 -127.5t47 -175.5t-47 -175.5t-128 -127.5t-175 -47h-222q-95 0 -175.5 47t-127.5 127.5t-47 175.5t47 175.5t127.5 127.5t175.5 47zM335 934h115q10 0 10 -9v-115q0 -10 -10 -10h-115q-9 0 -9 10v115q0 9 9 9zM561 934h116q9 0 9 -9v-115
q0 -10 -9 -10h-116q-9 0 -9 10v115q0 9 9 9zM617 134q89 0 152.5 63.5t63.5 152.5t-63.5 152.5t-152.5 63.5h-222q-89 0 -152.5 -63.5t-63.5 -152.5t63.5 -152.5t152.5 -63.5h222z" />
    <glyph glyph-name="multiply" unicode="&#xd7;" horiz-adv-x="606" 
d="M550 516q7 -6 1 -12l-154 -154l154 -154q6 -5 -1 -12l-81 -81q-7 -7 -12 -2l-154 155l-154 -155q-6 -5 -12 2l-82 81q-6 7 -1 12l154 154l-154 154q-5 6 1 12l82 82q6 6 12 1l154 -154l154 154q5 5 12 -1z" />
    <glyph glyph-name="Oslash" unicode="&#xd8;" horiz-adv-x="1012" 
d="M395 700h155q11 36 29 91q4 14 9 14h115q4 0 7.5 -4.5t1.5 -9.5q-15 -50 -30 -97q80 -15 145 -64t102.5 -122.5t37.5 -157.5q0 -95 -47 -175.5t-128 -127.5t-175 -47h-155q-14 -43 -29 -91q-4 -14 -9 -14h-116q-4 0 -7 4.5t-2 9.5q16 50 31 97q-122 23 -203.5 120
t-81.5 224q0 95 47 175.5t127.5 127.5t175.5 47zM544 260q-18 -57 -39 -126h112q89 0 152.5 63.5t63.5 152.5q0 83 -55.5 144.5t-136.5 70.5q-12 -39 -39 -124q-26 -81 -58 -181zM507 566h-112q-89 0 -152.5 -63.5t-63.5 -152.5q0 -83 55 -144.5t136 -70.5q13 40 40 125
q25 77 58 180q17 55 39 126z" />
    <glyph glyph-name="Ugrave" unicode="&#xd9;" horiz-adv-x="1046" 
d="M984 691v-170.5v-170.5q0 -95 -47 -175.5t-128 -127.5t-175 -47h-222q-95 0 -175.5 47t-127.5 127.5t-47 175.5v341q0 9 9 9h116q9 0 9 -9v-341q0 -89 63.5 -152.5t152.5 -63.5h222q89 0 152.5 63.5t63.5 152.5v341q0 9 9 9h116q9 0 9 -9zM431 953q-5 6 -3 10.5t7 4.5h96
q5 0 9 -9l78 -184q1 -3 -2 -6t-7 -3h-24q-9 0 -16 9z" />
    <glyph glyph-name="Uacute" unicode="&#xda;" horiz-adv-x="1046" 
d="M984 691v-170.5v-170.5q0 -95 -47 -175.5t-128 -127.5t-175 -47h-222q-95 0 -175.5 47t-127.5 127.5t-47 175.5v341q0 9 9 9h116q9 0 9 -9v-341q0 -89 63.5 -152.5t152.5 -63.5h222q89 0 152.5 63.5t63.5 152.5v341q0 9 9 9h116q9 0 9 -9zM611 968q4 0 6 -4.5t-2 -10.5
l-139 -178q-7 -9 -15 -9h-24q-4 0 -7 3t-2 6l78 184q3 9 9 9h96z" />
    <glyph glyph-name="Ucircumflex" unicode="&#xdb;" horiz-adv-x="1046" 
d="M984 691v-170.5v-170.5q0 -95 -47 -175.5t-128 -127.5t-175 -47h-222q-95 0 -175.5 47t-127.5 127.5t-47 175.5v341q0 9 9 9h116q9 0 9 -9v-341q0 -89 63.5 -152.5t152.5 -63.5h222q89 0 152.5 63.5t63.5 152.5v341q0 9 9 9h116q9 0 9 -9zM455 764h-73l93 196q7 11 13 11
h70q5 0 13 -11l93 -196h-73q-7 1 -14 11l-54 141l-55 -141q0 -1 -2 -3q-1 -3 -2.5 -4t-3.5 -2.5t-5 -1.5z" />
    <glyph glyph-name="Udieresis" unicode="&#xdc;" horiz-adv-x="1046" 
d="M984 691v-170.5v-170.5q0 -95 -47 -175.5t-128 -127.5t-175 -47h-222q-95 0 -175.5 47t-127.5 127.5t-47 175.5v341q0 9 9 9h116q9 0 9 -9v-341q0 -89 63.5 -152.5t152.5 -63.5h222q89 0 152.5 63.5t63.5 152.5v341q0 9 9 9h116q9 0 9 -9zM352 934h115q10 0 10 -9v-115
q0 -10 -10 -10h-115q-9 0 -9 10v115q0 9 9 9zM569 925q0 9 9 9h116q9 0 9 -9v-115q0 -10 -9 -10h-116q-9 0 -9 10v115z" />
    <glyph glyph-name="Yacute" unicode="&#xdd;" horiz-adv-x="1150" 
d="M939 700h103.5h104.5l-505 -380v-311q0 -9 -10 -9h-115q-9 0 -9 9v313l-505 378h208q3 -1 10.5 -6.5t16 -12.5t10.5 -8l327 -246l327 246q2 1 10.5 8t15.5 12.5t11 6.5zM663 968q4 0 6 -4.5t-2 -10.5l-139 -178q-7 -9 -15 -9h-24q-4 0 -7 3t-2 6l78 184q3 9 9 9h96z" />
    <glyph glyph-name="agrave" unicode="&#xe0;" 
d="M90 700h265.5h266.5q94 0 175 -47t128 -127.5t47 -175.5t-47 -175.5t-128 -127.5t-175 -47h-364q-86 0 -147 61t-61 147t61 147.5t147 61.5h573l-18 33q-14 27 -34.5 48.5t-45 36.5t-53 23t-58.5 8h-532q-10 0 -10 9v116q0 9 10 9zM423 968h96q5 0 9 -9l78 -184
q1 -3 -2 -6t-7 -3h-24q-9 0 -16 9l-138 177q-5 7 -3 11.5t7 4.5zM622 134q60 0 111.5 31t79.5 85l18 33h-573q-30 0 -52 -22t-22 -52.5t22 -52.5t52 -22h364z" />
    <glyph glyph-name="aacute" unicode="&#xe1;" 
d="M90 700h265.5h266.5q94 0 175 -47t128 -127.5t47 -175.5t-47 -175.5t-128 -127.5t-175 -47h-364q-86 0 -147 61t-61 147t61 147.5t147 61.5h573l-18 33q-14 27 -34.5 48.5t-45 36.5t-53 23t-58.5 8h-532q-10 0 -10 9v116q0 9 10 9zM503 968h96q4 0 6 -4.5t-2 -11.5
l-139 -177q-7 -9 -15 -9h-24q-4 0 -7 3t-2 6l78 184q3 9 9 9zM622 134q60 0 111.5 31t79.5 85l18 33h-573q-30 0 -52 -22t-22 -52.5t22 -52.5t52 -22h364z" />
    <glyph glyph-name="acircumflex" unicode="&#xe2;" 
d="M90 700h265.5h266.5q94 0 175 -47t128 -127.5t47 -175.5t-47 -175.5t-128 -127.5t-175 -47h-364q-86 0 -147 61t-61 147t61 147.5t147 61.5h573l-18 33q-14 27 -34.5 48.5t-45 36.5t-53 23t-58.5 8h-532q-10 0 -10 9v116q0 9 10 9zM370 764l93 195q7 11 13 11h70
q5 0 13 -11l93 -195h-73q-2 0 -4 0.5t-3.5 1.5t-2 2t-2 3.5t-2.5 2.5l-54 142l-55 -141q0 -1 -1.5 -3.5t-2.5 -3.5l-2 -2t-3 -1.5t-4 -0.5h-73zM622 134q40 0 76.5 14t66 40t48.5 62l18 33h-573q-30 0 -52 -22t-22 -52.5t22 -52.5t52 -22h364z" />
    <glyph glyph-name="atilde" unicode="&#xe3;" 
d="M90 700h265.5h266.5q94 0 175 -47t128 -127.5t47 -175.5t-47 -175.5t-128 -127.5t-175 -47h-364q-86 0 -147 61t-61 147t61 147.5t147 61.5h573l-18 33q-14 27 -34.5 48.5t-45 36.5t-53 23t-58.5 8h-532q-10 0 -10 9v116q0 9 10 9zM705 911v-72q0 -4 -7 -9
q-35 -26 -68 -34.5t-59 -2.5t-51 18.5t-48.5 25.5t-46 20.5t-49 1.5t-53.5 -29q-2 -2 -4 -0.5t-2 6.5v67q0 6 6 10q31 20 58 26.5t47 1t40.5 -16t37.5 -23.5t38 -22t42 -11.5t50 8.5t62 37q2 2 4.5 1.5t2.5 -3.5zM622 134q60 0 111.5 31t79.5 85l18 33h-573q-20 0 -37 -10
t-27 -27t-10 -38q0 -30 22 -52t52 -22h364z" />
    <glyph glyph-name="adieresis" unicode="&#xe4;" 
d="M90 700h265.5h266.5q94 0 175 -47t128 -127.5t47 -175.5t-47 -175.5t-128 -127.5t-175 -47h-364q-86 0 -147 61t-61 147t61 147.5t147 61.5h573l-18 33q-28 54 -79.5 85t-111.5 31h-532q-10 0 -10 9v116q0 9 10 9zM340 934h115q10 0 10 -9v-116q0 -9 -10 -9h-115
q-9 0 -9 9v116q0 9 9 9zM566 934h116q9 0 9 -9v-116q0 -9 -9 -9h-116q-9 0 -9 9v116q0 9 9 9zM622 134q40 0 76.5 14t66 40t48.5 62l18 33h-573q-30 0 -52 -22t-22 -52.5t22 -52.5t52 -22h364z" />
    <glyph glyph-name="aring" unicode="&#xe5;" 
d="M90 700h265.5h266.5q94 0 175 -47t128 -127.5t47 -175.5t-47 -175.5t-128 -127.5t-175 -47h-364q-86 0 -147 61t-61 147t61 147.5t147 61.5h573l-18 33q-19 36 -48.5 62t-66 40t-76.5 14h-532q-10 0 -10 9v116q0 9 10 9zM511 992q52 0 88.5 -36.5t36.5 -88.5t-36.5 -88.5
t-88.5 -36.5t-88.5 36.5t-36.5 88.5t36.5 88.5t88.5 36.5zM543 899q-13 13 -32 13t-32 -13t-13 -32t13 -32t32 -13t32 13t13 32t-13 32zM622 134q60 0 111.5 31t79.5 85l18 33h-573q-30 0 -52 -22t-22 -52.5t22 -52.5t52 -22h364z" />
    <glyph glyph-name="ae" unicode="&#xe6;" horiz-adv-x="1801" 
d="M90 700h265.5h266.5q83 0 156 -37.5t122 -101.5q33 42 76 73t95 48.5t108 17.5h363q86 0 147.5 -61.5t61.5 -147t-61.5 -147t-147.5 -61.5h-572l18 -33q28 -54 79.5 -85t111.5 -31h532q9 0 9 -9v-116q0 -9 -9 -9h-532q-83 0 -156.5 37.5t-122.5 101.5
q-49 -64 -122 -101.5t-156 -37.5h-364q-86 0 -147 61t-61 147t61 147.5t147 61.5h573l-18 33q-14 27 -34.5 48.5t-45 36.5t-53 23t-58.5 8h-532q-10 0 -10 9v116q0 9 10 9zM1542 566h-181h-182q-60 0 -111.5 -31t-79.5 -85l-18 -33h572q31 0 53 22t22 52.5t-22 52.5t-53 22z
M622 134q60 0 111.5 31t79.5 85l18 33h-573q-20 0 -37 -10t-27 -27t-10 -38q0 -30 22 -52t52 -22h364z" />
    <glyph glyph-name="ccedilla" unicode="&#xe7;" horiz-adv-x="1010" 
d="M395 700h281.5h281.5q9 0 9 -9v-116q0 -9 -9 -9h-563q-59 0 -108.5 -29t-78.5 -78.5t-29 -108.5q0 -89 63.5 -152.5t152.5 -63.5h563q9 0 9 -9v-116q0 -9 -9 -9h-417l-16 -30q43 -17 64 -54q15 -26 14 -58q-1 -29 -17 -56q-21 -34 -62 -55.5t-98 -21.5v96q59 0 78 30
q3 6 3 11q0 4 -1 7q-11 18 -55 18l-42 71l23 42h-37q-95 0 -175.5 47t-127.5 127.5t-47 175.5t47 175.5t127.5 127.5t175.5 47z" />
    <glyph glyph-name="egrave" unicode="&#xe8;" 
d="M927 0h-266h-266q-71 0 -135.5 28t-111.5 75t-75 111.5t-28 135.5q0 95 47 175.5t127.5 127.5t175.5 47h363q86 0 147.5 -61.5t61.5 -147t-61.5 -147t-147.5 -61.5h-572l18 -33q28 -54 79.5 -85t111.5 -31h532q9 0 9 -9v-116q0 -9 -9 -9zM418 968h96q5 0 9 -9l78 -184
q1 -3 -2 -6t-7 -3h-24q-9 0 -16 9l-138 177q-5 7 -3 11.5t7 4.5zM395 566q-60 0 -111.5 -31t-79.5 -85l-18 -33h572q31 0 53 22t22 52.5t-22 52.5t-53 22h-363z" />
    <glyph glyph-name="eacute" unicode="&#xe9;" 
d="M927 0h-266h-266q-71 0 -135.5 28t-111.5 75t-75 111.5t-28 135.5q0 95 47 175.5t127.5 127.5t175.5 47h363q86 0 147.5 -61.5t61.5 -147t-61.5 -147t-147.5 -61.5h-572l18 -33q28 -54 79.5 -85t111.5 -31h532q9 0 9 -9v-116q0 -9 -9 -9zM498 968h96q4 0 6 -4.5t-2 -11.5
l-139 -177q-7 -9 -15 -9h-24q-4 0 -7 3t-2 6l78 184q3 9 9 9zM395 566q-60 0 -111.5 -31t-79.5 -85l-18 -33h572q31 0 53 22t22 52.5t-22 52.5t-53 22h-363z" />
    <glyph glyph-name="ecircumflex" unicode="&#xea;" 
d="M927 0h-266h-266q-95 0 -175.5 47t-127.5 127.5t-47 175.5t47 175.5t127.5 127.5t175.5 47h363q86 0 147.5 -61.5t61.5 -147t-61.5 -147t-147.5 -61.5h-572l18 -33q14 -27 34.5 -48.5t45 -36.5t53 -23t58.5 -8h532q9 0 9 -9v-116q0 -9 -9 -9zM365 764l93 195q7 11 13 11
h70q5 0 13 -11l93 -195h-73q-2 0 -4 0.5t-3.5 1.5t-2 2t-2 3.5t-2.5 2.5l-54 142l-55 -141q0 -1 -1.5 -3.5t-2.5 -3.5l-2 -2t-3 -1.5t-4 -0.5h-73zM395 566q-60 0 -111.5 -31t-79.5 -85l-18 -33h572q31 0 53 22t22 52.5t-22 52.5t-53 22h-363z" />
    <glyph glyph-name="edieresis" unicode="&#xeb;" 
d="M927 0h-266h-266q-95 0 -175.5 47t-127.5 127.5t-47 175.5t47 175.5t127.5 127.5t175.5 47h363q86 0 147.5 -61.5t61.5 -147t-61.5 -147t-147.5 -61.5h-572l18 -33q14 -27 34.5 -48.5t45 -36.5t53 -23t58.5 -8h532q9 0 9 -9v-116q0 -9 -9 -9zM335 934h115q10 0 10 -9
v-116q0 -9 -10 -9h-115q-9 0 -9 9v116q0 9 9 9zM561 934h116q9 0 9 -9v-116q0 -9 -9 -9h-116q-9 0 -9 9v116q0 9 9 9zM395 566q-60 0 -111.5 -31t-79.5 -85l-18 -33h572q31 0 53 22t22 52.5t-22 52.5t-53 22h-363z" />
    <glyph glyph-name="igrave" unicode="&#xec;" horiz-adv-x="293" 
d="M204 0h-116q-9 0 -9 15v670q0 15 9 15h116q9 0 9 -15v-670q0 -15 -9 -15zM54 952q-4 7 -2 11.5t6 4.5h96q6 0 9 -9l78 -184q1 -3 -2 -6t-7 -3h-24q-8 0 -15 9z" />
    <glyph glyph-name="iacute" unicode="&#xed;" horiz-adv-x="293" 
d="M204 0h-116q-9 0 -9 15v670q0 15 9 15h116q9 0 9 -15v-670q0 -15 -9 -15zM234 968q5 0 7 -4.5t-3 -11.5l-138 -177q-7 -9 -16 -9h-24q-4 0 -7 3t-2 6l78 184q4 9 9 9h96z" />
    <glyph glyph-name="icircumflex" unicode="&#xee;" horiz-adv-x="292" 
d="M204 0h-116q-9 0 -9 15v670q0 15 9 15h116q9 0 9 -15v-670q0 -15 -9 -15zM78 764h-73l93 195q7 11 13 11h70q6 0 13 -11l93 -195h-73q-7 1 -14 10l-54 142l-55 -141q0 -1 -1 -3q-6 -8 -12 -8z" />
    <glyph glyph-name="idieresis" unicode="&#xef;" horiz-adv-x="293" 
d="M204 0h-116q-9 0 -9 15v670q0 15 9 15h116q9 0 9 -15v-670q0 -15 -9 -15zM-25 934h116q9 0 9 -9v-116q0 -9 -9 -9h-116q-9 0 -9 9v116q0 9 9 9zM192 925q0 9 10 9h115q9 0 9 -9v-116q0 -9 -9 -9h-115q-10 0 -10 9v116z" />
    <glyph glyph-name="eth" unicode="&#xf0;" horiz-adv-x="1146" 
d="M607 0h-182h-183q-86 0 -147 61t-61 147t61 147.5t147 61.5h582v76l-194 -36l-24 132l218 40v62q0 9 9 9h115q9 0 9 -9v-38l144 26l24 -131l-168 -31v-109v-64q-1 -93 -48.5 -172.5t-127.5 -125.5t-174 -46zM244 283q-31 0 -53 -22t-22 -52.5t22 -52.5t53 -22h363
q61 0 112.5 31t79.5 85l17 33h-572z" />
    <glyph glyph-name="ntilde" unicode="&#xf1;" horiz-adv-x="1048" 
d="M635 700q71 0 135.5 -28t111.5 -75t75 -111.5t28 -135.5v-341q0 -9 -9 -9h-116q-9 0 -9 9v341q0 89 -63.5 152.5t-152.5 63.5h-222q-89 0 -152.5 -63.5t-63.5 -152.5v-341q0 -9 -9 -9h-116q-9 0 -9 9v341q0 95 47 175.5t127.5 127.5t175.5 47h222zM718 839q0 -4 -7 -9
q-35 -26 -68 -34.5t-59 -2.5t-51 18.5t-48.5 25.5t-46 20.5t-49 1.5t-53.5 -29q-2 -2 -4 -0.5t-2 6.5v67q0 6 6 10q35 23 65 28t52.5 -3.5t44 -22.5t43 -27t45.5 -19t56 4.5t69 39.5q2 2 4.5 1.5t2.5 -3.5v-72z" />
    <glyph glyph-name="ograve" unicode="&#xf2;" horiz-adv-x="1010" 
d="M44 350q0 115 68.5 199.5t170.5 122.5t221.5 38t222 -38t171 -122.5t68.5 -199.5t-68.5 -199.5t-171 -122.5t-222 -38t-221.5 38t-170.5 122.5t-68.5 199.5zM417 968h96q5 0 9 -9l78 -184q1 -3 -2 -6t-7 -3h-24q-9 0 -16 9l-138 177q-5 7 -3 11.5t7 4.5zM832 350
q0 49 -22.5 90t-60.5 67.5t-87 45t-103 22.5t-108.5 0t-103.5 -22.5t-86.5 -45t-60 -67.5t-22.5 -90q0 -55 28 -99.5t74 -71.5t105 -42t120 -15t120 15t105 42t74 71.5t28 99.5z" />
    <glyph glyph-name="oacute" unicode="&#xf3;" horiz-adv-x="1010" 
d="M44 350q0 115 68.5 199.5t170.5 122.5t221.5 38t222 -38t171 -122.5t68.5 -199.5q0 -78 -31.5 -142.5t-85 -106.5t-122.5 -71.5t-145.5 -36t-153 0t-145.5 36t-122.5 71.5t-85 106.5t-31.5 142.5zM593 968q4 0 6 -4.5t-2 -11.5l-139 -177q-7 -9 -15 -9h-24q-4 0 -7 3
t-2 6l78 184q3 9 9 9h96zM832 350q0 55 -28 99.5t-74 71.5t-105 42t-120 15t-120 -15t-105 -42t-74 -71.5t-28 -99.5q0 -49 22.5 -90t60 -67.5t86.5 -45t103.5 -22.5t108.5 0t103 22.5t87 45t60.5 67.5t22.5 90z" />
    <glyph glyph-name="ocircumflex" unicode="&#xf4;" horiz-adv-x="1010" 
d="M44 350q0 115 68.5 199.5t170.5 122.5t221.5 38t222 -38t171 -122.5t68.5 -199.5t-68.5 -199.5t-171 -122.5t-222 -38t-221.5 38t-170.5 122.5t-68.5 199.5zM364 764l93 195q7 11 13 11h70q5 0 13 -11l93 -195h-73q-2 0 -4 0.5t-3.5 1.5t-2 2t-2 3.5t-2.5 2.5l-54 142
l-55 -141q0 -1 -1.5 -3.5t-2.5 -3.5l-2 -2t-3 -1.5t-4 -0.5h-73zM832 350q0 55 -28 99.5t-74 71.5t-105 42t-120 15t-120 -15t-105 -42t-74 -71.5t-28 -99.5q0 -49 22.5 -90t60 -67.5t86.5 -45t103.5 -22.5t108.5 0t103 22.5t87 45t60.5 67.5t22.5 90z" />
    <glyph glyph-name="otilde" unicode="&#xf5;" horiz-adv-x="1010" 
d="M44 350q0 115 68.5 199.5t170.5 122.5t221.5 38t222 -38t171 -122.5t68.5 -199.5t-68.5 -199.5t-171 -122.5t-222 -38t-221.5 38t-170.5 122.5t-68.5 199.5zM699 839q0 -4 -7 -9q-35 -26 -68 -34.5t-59 -2.5t-51 18.5t-48.5 25.5t-46 20.5t-49 1.5t-53.5 -29
q-2 -2 -4 -0.5t-2 6.5v67q0 6 6 10q35 23 65 28t52.5 -3.5t44 -22.5t43 -27t45.5 -19t56 4.5t69 39.5q2 2 4.5 1.5t2.5 -3.5v-72zM832 350q0 55 -28 99.5t-74 71.5t-105 42t-120 15t-120 -15t-105 -42t-74 -71.5t-28 -99.5q0 -49 22.5 -90t60 -67.5t86.5 -45t103.5 -22.5
t108.5 0t103 22.5t87 45t60.5 67.5t22.5 90z" />
    <glyph glyph-name="odieresis" unicode="&#xf6;" horiz-adv-x="1010" 
d="M44 350q0 115 68.5 199.5t170.5 122.5t221.5 38t222 -38t171 -122.5t68.5 -199.5t-68.5 -199.5t-171 -122.5t-222 -38t-221.5 38t-170.5 122.5t-68.5 199.5zM334 934h115q10 0 10 -9v-116q0 -9 -10 -9h-115q-9 0 -9 9v116q0 9 9 9zM560 934h116q9 0 9 -9v-116q0 -9 -9 -9
h-116q-9 0 -9 9v116q0 9 9 9zM832 350q0 55 -28 99.5t-74 71.5t-105 42t-120 15t-120 -15t-105 -42t-74 -71.5t-28 -99.5q0 -49 22.5 -90t60 -67.5t86.5 -45t103.5 -22.5t108.5 0t103 22.5t87 45t60.5 67.5t22.5 90z" />
    <glyph glyph-name="oslash" unicode="&#xf8;" horiz-adv-x="1010" 
d="M679 687q128 -37 207.5 -123t79.5 -214q0 -75 -29.5 -137.5t-79 -105t-115 -71t-138 -39.5t-146.5 -6q-12 -38 -26 -82q-4 -14 -9 -14h-116q-4 0 -7 4.5t-2 9.5q17 54 33 104q-61 18 -112.5 47.5t-91 71t-61.5 97.5t-22 121q0 75 29.5 137.5t79 105t115 71t138 39.5
t146.5 6q13 42 26 82q4 14 9 14h115q4 0 7.5 -4.5t1.5 -9.5q-16 -54 -32 -104zM543 260q-19 -61 -43 -137q86 -1 159.5 23t123 77.5t49.5 126.5q0 53 -26 96t-68.5 70.5t-98.5 43.5q-11 -33 -38 -119q-26 -81 -58 -181zM510 577q-64 1 -122.5 -13.5t-105.5 -41.5t-75.5 -72
t-28.5 -100q0 -78 53 -131.5t140 -78.5q13 40 38 120q25 77 58 180q19 63 43 137z" />
    <glyph glyph-name="ugrave" unicode="&#xf9;" horiz-adv-x="1046" 
d="M984 691v-341q0 -95 -47 -175.5t-128 -127.5t-175 -47h-222q-95 0 -175.5 47t-127.5 127.5t-47 175.5v341q0 9 9 9h116q9 0 9 -9v-341q0 -89 63.5 -152.5t152.5 -63.5h222q89 0 152.5 63.5t63.5 152.5v341q0 9 9 9h116q9 0 9 -9zM431 952q-5 7 -3 11.5t7 4.5h96q5 0 9 -9
l78 -184q1 -3 -2 -6t-7 -3h-24q-9 0 -16 9z" />
    <glyph glyph-name="uacute" unicode="&#xfa;" horiz-adv-x="1046" 
d="M984 691v-170.5v-170.5q0 -95 -47 -175.5t-128 -127.5t-175 -47h-222q-95 0 -175.5 47t-127.5 127.5t-47 175.5v341q0 9 9 9h116q9 0 9 -9v-341q0 -89 63.5 -152.5t152.5 -63.5h222q89 0 152.5 63.5t63.5 152.5v341q0 9 9 9h116q9 0 9 -9zM611 968q4 0 6 -4.5t-2 -11.5
l-139 -177q-7 -9 -15 -9h-24q-4 0 -7 3t-2 6l78 184q3 9 9 9h96z" />
    <glyph glyph-name="ucircumflex" unicode="&#xfb;" horiz-adv-x="1046" 
d="M984 691v-170.5v-170.5q0 -95 -47 -175.5t-128 -127.5t-175 -47h-222q-95 0 -175.5 47t-127.5 127.5t-47 175.5v341q0 9 9 9h116q9 0 9 -9v-341q0 -89 63.5 -152.5t152.5 -63.5h222q89 0 152.5 63.5t63.5 152.5v341q0 9 9 9h116q9 0 9 -9zM455 764h-73l93 195q7 11 13 11
h70q5 0 13 -11l93 -195h-73q-3 0 -4.5 0.5t-3 1.5t-2 2t-2 3.5t-2.5 2.5l-54 142l-55 -141q0 -1 -1.5 -3.5t-2.5 -3.5t-2.5 -2t-3 -1.5t-3.5 -0.5z" />
    <glyph glyph-name="udieresis" unicode="&#xfc;" horiz-adv-x="1046" 
d="M984 691v-170.5v-170.5q0 -95 -47 -175.5t-128 -127.5t-175 -47h-222q-95 0 -175.5 47t-127.5 127.5t-47 175.5v341q0 9 9 9h116q9 0 9 -9v-341q0 -89 63.5 -152.5t152.5 -63.5h222q89 0 152.5 63.5t63.5 152.5v341q0 9 9 9h116q9 0 9 -9zM352 934h115q10 0 10 -9v-116
q0 -9 -10 -9h-115q-9 0 -9 9v116q0 9 9 9zM569 925q0 9 9 9h116q9 0 9 -9v-116q0 -9 -9 -9h-116q-9 0 -9 9v116z" />
    <glyph glyph-name="yacute" unicode="&#xfd;" horiz-adv-x="1034" 
d="M838 417v274q0 9 9 9h115q9 0 9 -9v-341v-10q-2 -92 -49.5 -170.5t-127.5 -124t-173 -45.5h-485q-9 0 -9 9v116q0 9 9 9h485q61 0 112.5 31t79.5 85l17 33h-574q-85 0 -146.5 60t-61.5 145v29v174q0 9 9 9h116q9 0 9 -9v-199q0 -32 21.5 -53.5t52.5 -21.5h582zM598 968
q4 0 6 -4.5t-2 -11.5l-139 -177q-7 -9 -15 -9h-24q-4 0 -7 3t-2 6l77 184q4 9 10 9h96z" />
    <glyph glyph-name="ydieresis" unicode="&#xff;" horiz-adv-x="1034" 
d="M838 417v274q0 9 9 9h115q9 0 9 -9v-341v-10q-2 -69 -30.5 -132t-75 -108.5t-110.5 -72.5t-134 -27h-485q-9 0 -9 9v116q0 9 9 9h485q40 0 77 14t66.5 40t48.5 62l17 33h-574q-85 0 -146.5 60t-61.5 145v29v174q0 9 9 9h116q9 0 9 -9v-199q0 -32 21.5 -53.5t52.5 -21.5
h582zM339 934h115q9 0 9 -9v-116q0 -9 -9 -9h-115q-9 0 -9 9v116q0 9 9 9zM556 925q0 9 9 9h116q9 0 9 -9v-116q0 -9 -9 -9h-116q-9 0 -9 9v116z" />
    <glyph glyph-name="OE" unicode="&#x152;" horiz-adv-x="1775" 
d="M395 700h111h111q120 0 215 -74v65q0 9 9 9h881q9 0 9 -9v-116q0 -9 -9 -9h-757v-149h566q9 0 9 -9v-116q0 -9 -9 -9h-566v-149h757q9 0 9 -9v-116q0 -9 -9 -9h-881q-9 0 -9 10v64q-95 -74 -215 -74h-222q-95 0 -175.5 47t-127.5 127.5t-47 175.5t47 175.5t127.5 127.5
t175.5 47zM832 374q-10 81 -71.5 136.5t-143.5 55.5h-222q-89 0 -152.5 -63.5t-63.5 -152.5t63.5 -152.5t152.5 -63.5h222q82 0 143.5 55.5t71.5 136.5v48z" />
    <glyph glyph-name="oe" unicode="&#x153;" horiz-adv-x="1810" 
d="M44 350q0 73 28 134.5t75.5 104t111.5 71.5t133.5 41t143.5 8.5t140.5 -22t125.5 -54.5t97 -85q32 46 76.5 80t99 53t113.5 19h363q56 0 104 -28t76 -76t28 -104q0 -43 -16.5 -81.5t-44.5 -66.5t-66.5 -44.5t-80.5 -16.5h-572l17 -33q29 -54 80.5 -85t111.5 -31h532
q9 0 9 -9v-116q0 -9 -9 -9h-532q-88 0 -164 41t-125 111q-38 -49 -97 -85t-125.5 -54.5t-140.5 -22t-143.5 8.5t-133.5 41t-111.5 71.5t-75.5 104t-28 134.5zM1551 566h-182h-181t-111.5 -31t-80.5 -85l-17 -33h572q31 0 53 22t22 52.5t-22 52.5t-53 22zM832 350
q0 49 -22.5 90t-60.5 67.5t-87 45t-103 22.5t-108.5 0t-103.5 -22.5t-86.5 -45t-60 -67.5t-22.5 -90q0 -55 28 -99.5t74 -71.5t105 -42t120 -15t120 15t105 42t74 71.5t28 99.5z" />
    <glyph glyph-name="Scaron" unicode="&#x160;" horiz-adv-x="1029" 
d="M768 283h-507q-85 0 -146.5 61.5t-61.5 147.5t61.5 147t146.5 61h690q9 0 9 -9v-116q0 -9 -9 -9h-690q-20 0 -37.5 -10t-27.5 -27t-10 -37q0 -31 22 -53t53 -22h506q86 0 147.5 -61.5t61.5 -147t-61.5 -147t-147.5 -61.5h-690q-9 0 -9 9v116q0 9 9 9h691q31 0 52.5 22
t21.5 52.5t-21.5 52.5t-52.5 22zM373 971h73q3 0 4.5 -0.5t3 -2t2 -2.5t2 -3t2.5 -3l54 -142l55 142q0 1 2 3q5 8 11 8h73l-93 -196q-7 -11 -12 -11h-71q-5 0 -13 11z" />
    <glyph glyph-name="scaron" unicode="&#x161;" horiz-adv-x="1030" 
d="M769 134q31 0 52.5 22t21.5 52q0 36 -27 55t-72.5 23.5t-104.5 2.5t-124.5 -6t-131 -5.5t-125 8t-105 30.5t-72.5 65.5t-27 110.5q0 86 61.5 147t146.5 61h690q9 0 9 -9v-116q0 -9 -9 -9h-690q-31 0 -53 -22t-22 -52q0 -36 27 -55t73 -23.5t105 -2.5t124.5 6t131 5.5
t124.5 -8t105 -30.5t73 -65.5t27 -110.5q0 -86 -61.5 -147t-147.5 -61h-690q-9 0 -9 9v116q0 9 9 9h691zM374 970h73q3 0 4.5 -0.5t3 -2l2 -2t2 -3t2.5 -3.5l54 -141l55 141q0 1 1.5 3.5t2.5 3.5t2.5 2t3 1.5t3.5 0.5h73l-93 -196q-7 -10 -12 -10h-71q-5 0 -13 10z" />
    <glyph glyph-name="Wcircumflex" unicode="&#x174;" horiz-adv-x="2169" 
d="M484 22l-476 678h151q4 0 7.5 -1t6.5 -4l4.5 -4.5t4.5 -6.5t4 -6l397 -566l397 566q16 22 22 22h165q6 0 21 -22l398 -566l397 566q1 1 4 6t4.5 6.5l4.5 4.5t6.5 4t7.5 1h151l-476 -678q-16 -22 -27 -22h-145q-11 0 -26 22l-403 573l-402 -573q-15 -22 -26 -22h-145
q-11 0 -27 22zM1017 764h-73l92 196q8 11 13 11h71q5 0 13 -11l92 -196h-73q-2 0 -3.5 0.5t-3 2l-2 2t-2 3t-2.5 3.5l-55 141l-54 -141q-1 -1 -2.5 -3t-2 -3t-2 -2.5t-3 -2t-3.5 -0.5z" />
    <glyph glyph-name="wcircumflex" unicode="&#x175;" horiz-adv-x="1529" 
d="M446 134h6h12h6h11q90 0 153.5 63.5t63.5 152.5v341q0 9 9 9h115q9 0 9 -9v-341q0 -89 63.5 -152.5t153.5 -63.5h34h24h11q89 0 152.5 63.5t63.5 152.5v341q0 9 9 9h116q9 0 9 -9v-341q0 -95 -47 -175.5t-127.5 -127.5t-175.5 -47h-34h-24h-11q-77 0 -146.5 32t-119.5 91
l-18 20l-17 -20q-50 -59 -119.5 -91t-146.5 -32h-34h-24h-11q-95 0 -175.5 47t-127.5 127.5t-47 175.5v341q0 9 9 9h116q9 0 9 -9v-341q0 -89 63.5 -152.5t152.5 -63.5h34zM697 764h-73l92 195q8 11 13 11h71q5 0 13 -11l92 -195h-73q-2 0 -3.5 0.5t-3 1.5t-2 2t-2 3.5
t-2.5 2.5l-55 142l-54 -141q-1 -1 -2.5 -3.5t-2 -3.5t-2 -2t-3 -1.5t-3.5 -0.5z" />
    <glyph glyph-name="Ycircumflex" unicode="&#x176;" horiz-adv-x="1150" 
d="M939 700h103.5h104.5l-505 -380v-311q0 -9 -10 -9h-115q-9 0 -9 9v313l-505 378h208q3 -1 10.5 -6.5t16 -12.5t10.5 -8l327 -246l327 246q2 1 10.5 8t15.5 12.5t11 6.5zM507 764h-73l93 196q7 11 13 11h70q5 0 13 -11l93 -196h-73q-7 1 -14 11l-54 141l-55 -141
q0 -1 -2 -3q-1 -3 -2.5 -4t-3.5 -2.5t-5 -1.5z" />
    <glyph glyph-name="ycircumflex" unicode="&#x177;" horiz-adv-x="1034" 
d="M838 417v274q0 9 9 9h115q9 0 9 -9v-341v-10q-2 -92 -49.5 -170.5t-127.5 -124t-173 -45.5h-485q-9 0 -9 9v116q0 9 9 9h485q61 0 112.5 31t79.5 85l17 33h-574q-85 0 -146.5 60t-61.5 145v29v174q0 9 9 9h116q9 0 9 -9v-199q0 -32 21.5 -53.5t52.5 -21.5h582zM442 764
h-73l92 195q8 11 13 11h71q5 0 13 -11l93 -195h-74q-2 0 -3.5 0.5t-3 1.5t-2 2t-2 3.5t-2.5 2.5l-54 142l-55 -141q0 -1 -1.5 -3.5t-2.5 -3.5t-2.5 -2t-3 -1.5t-3.5 -0.5z" />
    <glyph glyph-name="Ydieresis" unicode="&#x178;" horiz-adv-x="1150" 
d="M939 700h103.5h104.5l-505 -380v-311q0 -9 -10 -9h-115q-9 0 -9 9v313l-505 378h208q3 -1 10.5 -6.5t16 -12.5t10.5 -8l327 -246l327 246q2 1 10.5 8t15.5 12.5t11 6.5zM404 934h115q9 0 9 -9v-115q0 -10 -9 -10h-115q-9 0 -9 10v115q0 9 9 9zM621 925q0 9 9 9h116
q9 0 9 -9v-115q0 -10 -9 -10h-116q-9 0 -9 10v115z" />
    <glyph glyph-name="Zcaron" unicode="&#x17d;" horiz-adv-x="981" 
d="M908 552q-371 -251 -557 -376l-62 -42h638q9 0 9 -9v-116q0 -9 -9 -9h-874q-9 0 -9 9v116q0 4 4 7l6 4l637 430h-638q-9 0 -9 9v116q0 9 9 9h874q9 0 9 -9v-116q0 -4 -4 -7zM349 971h73q2 0 4 -0.5t3 -2t2 -2.5t2.5 -3t1.5 -3l55 -142l55 142q0 1 1 3q6 8 12 8h73
l-93 -196q-7 -11 -13 -11h-70q-6 0 -13 11z" />
    <glyph glyph-name="zcaron" unicode="&#x17e;" horiz-adv-x="981" 
d="M908 552q-41 -28 -557 -376l-62 -42h638q9 0 9 -9v-116q0 -9 -9 -9h-874q-9 0 -9 9v116q0 4 4 7l6 4l637 430h-638q-9 0 -9 9v116q0 9 9 9h874q9 0 9 -9v-116q0 -4 -4 -7zM349 970h73q2 0 4 -0.5t3 -2t2 -2t2.5 -3t1.5 -3.5l55 -141l55 141q0 1 1.5 3.5t2.5 3.5l2 2
t3 1.5t4 0.5h73l-93 -196q-7 -10 -13 -10h-70q-6 0 -13 10z" />
    <glyph glyph-name="Wgrave" unicode="&#x1e80;" horiz-adv-x="2169" 
d="M484 22l-476 678h151q4 0 7.5 -1t6.5 -4l4.5 -4.5t4.5 -6.5t4 -6l397 -566l397 566q16 22 22 22h165q6 0 21 -22l398 -566l397 566q1 1 4 6t4.5 6.5l4.5 4.5t6.5 4t7.5 1h151l-476 -678q-16 -22 -27 -22h-145q-11 0 -26 22l-403 573l-402 -573q-15 -22 -26 -22h-145
q-11 0 -27 22zM993 953q-5 6 -3 10.5t7 4.5h96q5 0 9 -9l77 -184q2 -3 -1.5 -6t-7.5 -3h-24q-8 0 -15 9z" />
    <glyph glyph-name="wgrave" unicode="&#x1e81;" horiz-adv-x="1529" 
d="M446 134h6h12h6h11q90 0 153.5 63.5t63.5 152.5v341q0 9 9 9h115q9 0 9 -9v-341q0 -89 63.5 -152.5t153.5 -63.5h34h24h11q44 0 84 17t69 46t46 69t17 84v341q0 9 9 9h116q9 0 9 -9v-341q0 -95 -47 -175.5t-127.5 -127.5t-175.5 -47h-34h-24h-11q-51 0 -99.5 14.5t-91 42
t-75.5 66.5l-18 20l-17 -20q-50 -59 -119.5 -91t-146.5 -32h-34h-24h-11q-95 0 -175.5 47t-127.5 127.5t-47 175.5v341q0 9 9 9h116q9 0 9 -9v-341q0 -89 63.5 -152.5t152.5 -63.5h34zM673 952q-5 7 -3 11.5t7 4.5h96q5 0 9 -9l77 -184q2 -3 -1.5 -6t-7.5 -3h-24q-8 0 -15 9
z" />
    <glyph glyph-name="Wacute" unicode="&#x1e82;" horiz-adv-x="2169" 
d="M484 22l-476 678h151q4 0 7.5 -1t6.5 -4l4.5 -4.5t4.5 -6.5t4 -6l397 -566l397 566q16 22 22 22h165q6 0 21 -22l398 -566l397 566q1 1 4 6t4.5 6.5l4.5 4.5t6.5 4t7.5 1h151l-476 -678q-16 -22 -27 -22h-145q-11 0 -26 22l-403 573l-402 -573q-15 -22 -26 -22h-145
q-11 0 -27 22zM1172 968q5 0 7 -4.5t-3 -10.5l-138 -178q-7 -9 -15 -9h-24q-4 0 -7.5 3t-1.5 6l77 184q4 9 9 9h96z" />
    <glyph glyph-name="wacute" unicode="&#x1e83;" horiz-adv-x="1529" 
d="M446 134h12h12h11q90 0 153.5 63.5t63.5 152.5v341q0 9 9 9h115q9 0 9 -9v-341q0 -89 63.5 -152.5t153.5 -63.5h34h24h11q89 0 152.5 63.5t63.5 152.5v341q0 9 9 9h116q9 0 9 -9v-341q0 -95 -47 -175.5t-127.5 -127.5t-175.5 -47h-34h-24h-11q-77 0 -146.5 32t-119.5 91
l-18 20l-17 -20q-50 -59 -119.5 -91t-146.5 -32h-34h-24h-11q-95 0 -175.5 47t-127.5 127.5t-47 175.5v341q0 9 9 9h116q9 0 9 -9v-341q0 -89 63.5 -152.5t152.5 -63.5h34zM852 968q5 0 7 -4.5t-3 -11.5l-138 -177q-7 -9 -15 -9h-24q-4 0 -7.5 3t-1.5 6l77 184q4 9 9 9h96z
" />
    <glyph glyph-name="Wdieresis" unicode="&#x1e84;" horiz-adv-x="2169" 
d="M484 22l-476 678h151q4 0 7.5 -1t6.5 -4l4.5 -4.5t4.5 -6.5t4 -6l397 -566l397 566q16 22 22 22h165q6 0 21 -22l398 -566l397 566q1 1 4 6t4.5 6.5l4.5 4.5t6.5 4t7.5 1h151l-476 -678q-16 -22 -27 -22h-145q-11 0 -26 22l-403 573l-402 -573q-15 -22 -26 -22h-145
q-11 0 -27 22zM914 934h115q9 0 9 -9v-115q0 -10 -9 -10h-115q-10 0 -10 10v115q0 9 10 9zM1131 925q0 9 9 9h115q10 0 10 -9v-115q0 -10 -10 -10h-115q-9 0 -9 10v115z" />
    <glyph glyph-name="wdieresis" unicode="&#x1e85;" horiz-adv-x="1529" 
d="M446 134h12h12h11q90 0 153.5 63.5t63.5 152.5v341q0 9 9 9h115q9 0 9 -9v-341q0 -89 63.5 -152.5t153.5 -63.5h34h24h11q44 0 84 17t69 46t46 69t17 84v341q0 9 9 9h116q9 0 9 -9v-341q0 -95 -47 -175.5t-127.5 -127.5t-175.5 -47h-34h-24h-11q-77 0 -146.5 32
t-119.5 91l-18 20l-17 -20q-50 -59 -119.5 -91t-146.5 -32h-34h-24h-11q-95 0 -175.5 47t-127.5 127.5t-47 175.5v341q0 9 9 9h116q9 0 9 -9v-341q0 -89 63.5 -152.5t152.5 -63.5h34zM594 934h115q9 0 9 -9v-116q0 -9 -9 -9h-115q-10 0 -10 9v116q0 9 10 9zM811 925q0 9 9 9
h115q10 0 10 -9v-116q0 -9 -10 -9h-115q-9 0 -9 9v116z" />
    <glyph glyph-name="Ygrave" unicode="&#x1ef2;" horiz-adv-x="1150" 
d="M939 700h103.5h104.5l-505 -380v-311q0 -9 -10 -9h-115q-9 0 -9 9v313l-505 378h208q2 -1 7.5 -4.5t10.5 -8t11 -9t8 -5.5l327 -246l327 246q2 1 10.5 8t15.5 12.5t11 6.5zM483 953q-5 6 -3 10.5t7 4.5h96q5 0 9 -9l78 -184q1 -3 -2.5 -6t-7.5 -3h-23q-9 0 -16 9z" />
    <glyph glyph-name="ygrave" unicode="&#x1ef3;" horiz-adv-x="1034" 
d="M838 417v274q0 9 9 9h115q9 0 9 -9v-341v-10q-2 -92 -49.5 -170.5t-127.5 -124t-173 -45.5h-485q-9 0 -9 9v116q0 9 9 9h485q40 0 77 14t66.5 40t48.5 62l17 33h-574q-85 0 -146.5 60t-61.5 145v29v174q0 9 9 9h116q9 0 9 -9v-199q0 -32 21.5 -53.5t52.5 -21.5h582z
M418 952q-5 7 -3 11.5t7 4.5h96q5 0 9 -9l77 -184q1 -2 0 -4.5t-3.5 -3.5t-5.5 -1h-23q-9 0 -16 9z" />
    <glyph glyph-name="quoteleft" unicode="&#x2018;" horiz-adv-x="217" 
d="M177 507q0 -9 -9 -9h-116q-9 0 -9 9v184q0 9 9 9h30q6 0 9 -9l20 -59h57q9 0 9 -10v-115z" />
    <glyph glyph-name="quoteright" unicode="&#x2019;" horiz-adv-x="217" 
d="M40 691q0 9 9 9h116q9 0 9 -9v-184q0 -9 -9 -9h-30q-6 0 -9 9l-20 59h-57q-9 0 -9 10v115z" />
    <glyph glyph-name="quotedblleft" unicode="&#x201c;" horiz-adv-x="389" 
d="M168 498h-116q-9 0 -9 9v184q0 9 9 9h30q6 0 9 -9l20 -59h57q9 0 9 -10v-115q0 -9 -9 -9zM348 507q0 -9 -9 -9h-115q-10 0 -10 9v184q0 9 10 9h30q6 0 9 -9l19 -59h57q9 0 9 -10v-115z" />
    <glyph glyph-name="quotedblright" unicode="&#x201d;" horiz-adv-x="389" 
d="M221 700h115q9 0 9 -9v-184q0 -9 -9 -9h-30q-6 0 -9 9l-20 59h-56q-10 0 -10 10v115q0 9 10 9zM40 691q0 9 9 9h116q9 0 9 -9v-184q0 -9 -9 -9h-30q-6 0 -9 9l-20 59h-57q-9 0 -9 10v115z" />
    <glyph glyph-name="perthousand" unicode="&#x2030;" horiz-adv-x="1396" 
d="M1126 303h70q63 0 107.5 -44.5t44.5 -107t-44.5 -107t-107.5 -44.5h-70q-63 0 -107.5 44.5t-44.5 107t44.5 107t107.5 44.5zM703 303h70q63 0 107.5 -44.5t44.5 -107t-44.5 -107t-107.5 -44.5h-70q-63 0 -107 44.5t-44 107t44 107t107 44.5zM199 700h71q62 0 106.5 -44.5
t44.5 -107t-44.5 -106.5t-106.5 -44h-71q-62 0 -106.5 44t-44.5 106.5t44.5 107t106.5 44.5zM270 579h-71q-12 0 -21 -9t-9 -21.5t9 -21t21 -8.5h71q12 0 21 8.5t9 21t-9 21.5t-21 9zM773 182h-70q-13 0 -21.5 -9t-8.5 -21.5t8.5 -21.5t21.5 -9h70q13 0 22 9t9 21.5t-9 21.5
t-22 9zM322 0q-4 0 -7 4.5t-2 9.5q52 166 106.5 336.5t106.5 336.5q4 13 9 13h115q5 0 8 -4t2 -9q-52 -166 -106.5 -336.5t-106.5 -336.5q-4 -14 -9 -14h-116zM1218 173q-9 9 -22 9h-70q-13 0 -22 -9t-9 -21.5t9 -21.5t22 -9h70q13 0 22 9t9 21.5t-9 21.5z" />
    <glyph glyph-name="Euro" unicode="&#x20ac;" 
d="M580 700h185h184q10 0 10 -9v-115q0 -10 -10 -10h-369q-93 0 -157 -68h215q8 0 8 -9v-116q0 -9 -8 -9h-273q-1 -7 -1 -14t1 -14h273q8 0 8 -9v-116q0 -9 -8 -9h-215q64 -68 157 -68h369q10 0 10 -9v-116q0 -9 -10 -9h-369q-103 0 -188.5 55.5t-127.5 146.5h-195
q-8 0 -8 9v116q0 9 8 9h162q-1 8 -1 14.5t1 13.5h-162q-8 0 -8 9v116q0 9 8 9h195q42 91 127.5 146.5t188.5 55.5z" />
    <glyph glyph-name="A.alt1" unicode="&#xf000;" horiz-adv-x="1171" 
d="M707 127q-73 -45 -121 -127q-47 82 -121 127q74 45 121 127q48 -82 121 -127zM685 678l476 -678h-150q-5 0 -8 1t-6 4l-4.5 4.5t-4.5 6.5t-5 6q-264 378 -397 566l-19 -26l-189 -270l-189 -270q-1 -1 -4 -6t-4.5 -6.5l-4.5 -4.5t-6.5 -4t-7.5 -1h-151l476 678
q16 22 27 22h145q11 0 26 -22z" />
    <glyph glyph-name="A.alt2" unicode="&#xf001;" horiz-adv-x="1197" 
d="M1035 176q84 -118 164 -185.5t184.5 -100t251.5 -32.5v-127q-133 0 -237.5 24.5t-192 77.5t-159.5 127t-149 183h-473l94 134h285l-219 311l-19 -26l-189 -270l-189 -270q-1 -1 -4 -6t-4.5 -6.5l-4.5 -4.5t-6.5 -4t-7.5 -1h-151l476 678q16 22 27 22h145q11 0 26 -22z
" />
    <glyph glyph-name="B.alt1" unicode="&#xf002;" horiz-adv-x="1059" 
d="M74 691q0 9 9 9h706q41 0 77 -14t64.5 -40.5t46.5 -63.5q25 -54 19 -112.5t-42 -105.5l-11 -14l11 -14q36 -47 42 -105.5t-19 -112.5q-27 -55 -77 -86.5t-111 -31.5h-706q-9 0 -9 9v399q0 9 10 9h115h590q32 0 53 21.5t21 53.5q0 20 -9 37q-20 37 -65 37h-706q-9 0 -9 9
v116zM208 134h23h558q32 0 53 21t21 53q0 20 -9 38q-20 37 -65 37h-581v-149z" />
    <glyph glyph-name="B.alt2" unicode="&#xf003;" horiz-adv-x="1052" 
d="M76 700h353h353q61 0 111 -31.5t77 -86.5q25 -54 19 -112.5t-42 -105.5l-11 -14l11 -14q36 -47 42 -105.5t-19 -112.5q-27 -55 -77 -86.5t-111 -31.5h-706q-9 0 -9 9v116q0 9 10 9h705q32 0 53 21t21 53q0 20 -9 38q-20 37 -65 37h-705q-10 0 -10 9v116q0 9 10 9h115h590
q32 0 53 21.5t21 53.5q0 20 -9 37q-20 37 -65 37h-706q-9 0 -9 9v116q0 9 9 9z" />
    <glyph glyph-name="C.alt1" unicode="&#xf004;" horiz-adv-x="1236" 
d="M380 0q-69 3 -131 32t-106.5 75.5t-71 110t-26.5 132.5q0 95 47 175.5t127.5 127.5t175.5 47h563q9 0 9 -9v-116q0 -9 -9 -9h-563q-58 0 -108 -29t-79 -78.5t-29 -108.5q0 -89 63.5 -152.5t152.5 -63.5h135q95 -2 177 -9t153 -20t122.5 -24t111.5 -31.5t92 -32.5t90 -36
q72 -29 113 -43.5t111 -35t148 -30.5t171 -12v-135q-102 2 -186.5 13t-161 32.5t-121 37.5t-122.5 48q-56 22 -87.5 34t-90 31.5t-109.5 30.5t-121.5 23t-154 18t-178.5 7h-105h-2z" />
    <glyph glyph-name="D.alt1" unicode="&#xf005;" horiz-adv-x="1040" 
d="M645 700q94 0 175 -47t128 -127.5t47 -175.5t-47 -175.5t-128 -127.5t-175 -47h-565q-7 0 -7 7v401q0 9 9 9h116q9 0 9 -9v-274h438q89 0 152.5 63.5t63.5 152.5t-63.5 152.5t-152.5 63.5h-563q-9 0 -9 9v116q0 9 9 9h563z" />
    <glyph glyph-name="D.alt2" unicode="&#xf006;" horiz-adv-x="1010" 
d="M615 0h-563q-9 0 -9 9v116q0 9 9 9h563q89 0 152.5 63.5t63.5 152.5t-63.5 152.5t-152.5 63.5h-563q-9 0 -9 9v116q0 9 9 9h563q94 0 175 -47t128 -127.5t47 -175.5t-47 -175.5t-128 -127.5t-175 -47zM409 223q-47 82 -121 127q74 45 121 127q48 -82 121 -127
q-73 -45 -121 -127z" />
    <glyph glyph-name="E.alt1" unicode="&#xf007;" horiz-adv-x="1006" 
d="M980 575q0 -9 -9 -9h-757v-149h566q9 0 9 -9v-116q0 -9 -9 -9h-566v-153q117 -2 220.5 -12.5t172.5 -23t147.5 -36t118 -38.5t110.5 -43q57 -23 88 -35t88.5 -30.5t105.5 -28t116.5 -18t144.5 -10.5v-130q-102 2 -187 13t-161 32.5t-120.5 37.5t-122.5 48q-58 23 -90 35
t-92.5 32.5t-114.5 31t-128 22.5t-161.5 17.5t-189.5 5.5h-70q-9 0 -9 9v682q0 9 9 9h882q9 0 9 -9v-116z" />
    <glyph glyph-name="E.alt2" unicode="&#xf008;" horiz-adv-x="998" 
d="M962 691v-116q0 -9 -9 -9h-882q-9 0 -9 9v116q0 9 9 9h882q9 0 9 -9zM71 0q-9 0 -9 9v399q0 9 10 9h690q9 0 9 -9v-116q0 -9 -9 -9h-566v-149h757q9 0 9 -9v-116q0 -9 -9 -9h-882z" />
    <glyph glyph-name="E.alt3" unicode="&#xf009;" horiz-adv-x="976" 
d="M946 691v-116q0 -9 -9 -9h-882q-9 0 -9 9v116q0 9 9 9h882q9 0 9 -9zM937 0h-882q-9 0 -9 9v116q0 9 10 9h881q9 0 9 -9v-116q0 -9 -9 -9zM180 283h-124q-10 0 -10 9v116q0 9 10 9h690q9 0 9 -9v-116q0 -9 -9 -9h-566z" />
    <glyph glyph-name="L.alt1" unicode="&#xf00a;" horiz-adv-x="749" 
d="M89 0q-9 0 -9 9v682q0 9 9 9h116q9 0 9 -9v-563q96 -8 177.5 -22.5t155.5 -37t116.5 -38.5t114.5 -45t113 -43.5t111 -35t148 -30.5t171 -12v-135q-102 2 -186.5 13t-161 32.5t-121 37.5t-122.5 48q-75 30 -120 46t-124.5 39t-171 36t-203.5 19h-22z" />
    <glyph glyph-name="M.alt1" unicode="&#xf00b;" horiz-adv-x="1319" 
d="M80 700h154q5 0 8.5 -1t6 -4t4 -4.5t4.5 -6.5t5 -6l282 -403q62 -84 125 -148l387 551q2 1 5 6t4.5 6.5t4 4.5t6 4t8.5 1h154v-7v-2v-682q0 -9 -9 -9h-116q-9 0 -9 9v506l-335 -477q51 -39 105.5 -68.5t111 -49t118 -32.5t126 -19.5t137 -10t150 -3t163.5 0.5h57.5h42.5
h24v-133h-123h-182t-165.5 3.5t-152 12t-140 24t-130.5 39.5t-123.5 59.5t-119 83t-116.5 111t-116 142.5q-8 11 -17 23l-1 1l-204 293v-506q0 -9 -9 -9h-116q-9 0 -9 9v682v9z" />
    <glyph glyph-name="N.alt1" unicode="&#xf00c;" horiz-adv-x="1135" 
d="M980 84q80 -50 156 -88q277 -138 585 -133l1 -133q-174 -3 -331 33t-314 114q-230 114 -512 349q-36 30 -159 134.5t-192 161.5v-513q0 -9 -9 -9h-116q-9 0 -9 9v682q0 9 9 9h116q3 0 6 -3h1q186 -153 392 -329q130 -112 242 -193v516q0 9 9 9h116q9 0 9 -9v-607z" />
    <glyph glyph-name="O.alt1" unicode="&#xf00d;" horiz-adv-x="1012" 
d="M395 700h222q94 0 175 -47t128 -127.5t47 -175.5t-47 -175.5t-128 -127.5t-175 -47h-222q-95 0 -175.5 47t-127.5 127.5t-47 175.5t47 175.5t127.5 127.5t175.5 47zM506 223q-48 82 -121 127q73 45 121 127q47 -82 121 -127q-74 -45 -121 -127zM617 134q89 0 152.5 63.5
t63.5 152.5t-63.5 152.5t-152.5 63.5h-222q-58 0 -108 -29t-79 -78.5t-29 -108.5q0 -89 63.5 -152.5t152.5 -63.5h222z" />
    <glyph glyph-name="P.alt1" unicode="&#xf00f;" horiz-adv-x="1030" 
d="M82 0q-9 0 -9 9v199.5v199.5q0 9 10 9h115h590q31 0 53 22t22 52.5t-22 52.5t-53 22h-706q-9 0 -9 9v116q0 9 9 9h705q86 0 147.5 -61t61.5 -147t-61.5 -147.5t-147.5 -61.5h-580v-23v-251q0 -9 -9 -9h-116z" />
    <glyph glyph-name="Q.alt1" unicode="&#xf010;" horiz-adv-x="1012" 
d="M488 130l4 -3l100 -89q51 -39 105.5 -68.5t110.5 -49t117.5 -32.5t126.5 -19.5t137 -10t149.5 -3t164.5 0.5h57h42.5h23.5v-133h-123q-89 -1 -171.5 -0.5t-157 3t-144.5 10t-134 20t-125 33t-118.5 49.5t-113.5 69.5t-110 92.5h-34q-95 0 -175.5 47t-127.5 127.5
t-47 175.5t47 175.5t127.5 127.5t175.5 47h222q71 0 135.5 -28t111.5 -75t75 -111.5t28 -135.5q0 -109 -62.5 -198.5t-163.5 -128.5q-55 29 -106 67l-49 44h46q84 6 142.5 68.5t58.5 147.5q0 89 -63.5 152.5t-152.5 63.5h-222q-89 0 -152.5 -63.5t-63.5 -152.5t63.5 -152.5
t152.5 -63.5h86q5 0 7 -4zM627 350q-74 -45 -121 -127q-48 82 -121 127q73 45 121 127q47 -82 121 -127z" />
    <glyph glyph-name="Q.alt2" unicode="&#xf011;" horiz-adv-x="1012" 
d="M689 -156q3 -4 4 -8h-2h-138q-18 0 -24 4q-2 2 -6 7l-107 153h-21q-95 0 -175.5 47t-127.5 127.5t-47 175.5t47 175.5t127.5 127.5t175.5 47h222q94 0 175 -47t128 -127.5t47 -175.5q0 -119 -73 -213.5t-188 -124.5l-85 122q88 2 150 65t62 151q0 89 -63.5 152.5
t-152.5 63.5h-222q-58 0 -108 -29t-79 -78.5t-29 -108.5q0 -89 63.5 -152.5t152.5 -63.5h86q5 0 8 -4zM627 350q-74 -45 -121 -127q-48 82 -121 127q73 45 121 127q47 -82 121 -127z" />
    <glyph glyph-name="R.alt1" unicode="&#xf012;" horiz-adv-x="1063" 
d="M798 283h-28q111 -184 269 -286q216 -139 540 -139v-127h-8q-361 0 -608 159q-210 135 -347 393h-409v-274q0 -9 -9 -9h-116q-9 0 -9 9v399q0 9 10 9h705q31 0 53 22t22 52.5t-22 52.5t-53 22h-706q-9 0 -9 9v116q0 9 9 9h705q86 0 147.5 -61t61.5 -147
q0 -53 -24.5 -98.5t-67.5 -74.5t-94 -35z" />
    <glyph glyph-name="R.alt2" unicode="&#xf013;" horiz-adv-x="1013" 
d="M942 0h-151q-4 0 -7.5 1t-6.5 4l-4.5 4.5t-4.5 6.5t-4 6q-34 49 -97 139.5t-78 111.5l-7 10h-534v125v9h715q31 0 52.5 22t21.5 52.5t-21.5 52.5t-52.5 22h-715v125q0 9 9 9h705q57 0 105 -28t76 -76t28 -104q0 -80 -54 -139.5t-132 -68.5l-39 -4z" />
    <glyph glyph-name="X.alt1" unicode="&#xf014;" horiz-adv-x="1207" 
d="M692 352q290 -247 518 -360q278 -138 585 -133l2 -133q-174 -3 -331 33t-314 113q-251 125 -569 399l-324 -244q-35 -26 -43 -27h-202l466 349l-468 351h208q3 -1 10.5 -6.5t16 -12.5t10.5 -8l327 -246l327 246q2 1 10.5 8t15.5 12.5t11 6.5h208z" />
    <glyph glyph-name="F.alt1" unicode="&#xf015;" horiz-adv-x="1021" 
d="M971 700q9 0 9 -9v-116q0 -9 -9 -9h-757v-149h566q9 0 9 -9v-116q0 -9 -9 -9h-566v-274q0 -9 -9 -9h-116q-9 0 -9 9v682q0 9 9 9h882z" />
    </font>
</defs>
</svg>
